<ttFont>
          <CharString index="0">
            -12 2 -18 6 -15 vhcurveto
            -9 14 23 -5 20 hhcurveto
            20 23 5 9 14 hvcurveto
            6 14 2 19 12 vvcurveto
            12 -2 18 -3 callgsubr
            9 -15 -22 5 -20 hhcurveto
            -19 -23 -5 -9 -15 hvcurveto
            -6 -15 -2 -18 -12 vvcurveto
            return
          </CharString>
          <CharString index="1">
            rmoveto
            -26 -16 31 callsubr
            -9 -54 callgsubr
            9 -12 vhcurveto
            -8 15 16 -6 26 hhcurveto
            22 19 6 8 13 82 callgsubr
            3 19 16 vvcurveto
            15 -3 18 -8 12 67 callgsubr
            -19 6 -22 hhcurveto
            -224 hmoveto
            -23 -19 -6 -8 -12 hvcurveto
            -8 -54 callgsubr
            8 -12 vhcurveto
            -8 12 19 68 callgsubr
            25 17 6 8 15 82 callgsubr
            2 19 16 vvcurveto
            15 -2 18 -8 12 vhcurveto
            8 -15 -17 6 -25 hhcurveto
            endchar
          </CharString>
          <CharString index="2">
            529 111 -60 callsubr
            118 65 vlineto
            169 -53 callgsubr
            -169 hlineto
            -14 -26 -63 callgsubr
            7 20 4 15 callgsubr
            -1 14 callsubr
            -417 -4 callsubr
            -598 vlineto
            -50 29 -30 48 vhcurveto
            return
          </CharString>
          <CharString index="3">
            273 106 rmoveto
            46 callsubr
            -20 hvcurveto
            19 1 14 -24 callsubr
            16 1 22 32 callgsubr
            23 -6 15 -31 callgsubr
            61 vlineto
            21 -1 14 17 vvcurveto
            60 hlineto
            188 hlineto
            8 19 -74 callsubr
            244 hlineto
            47 -19 callsubr
            18 11 vvcurveto
            return
          </CharString>
          <CharString index="4">
            hintmask 11010000
            -105 callgsubr
            return
          </CharString>
          <CharString index="5">
            hintmask 11101000
            -104 callgsubr
            return
          </CharString>
          <CharString index="6">
            172 274 rmoveto
            -70 callsubr
            -136 hmoveto
            -18 callgsubr
            48 -19 78 hhcurveto
            78 48 19 30 40 hvcurveto
            73 57 25 97 85 -65 callsubr
            -10 callgsubr
            return
          </CharString>
          <CharString index="7">
            -27 45 82 -30 104 hhcurveto
            129 1 93 63 107 vvcurveto
            81 -60 55 -86 31 vhcurveto
            -94 33 rlineto
            -35 13 -23 10 26 vvcurveto
            29 26 22 44 vhcurveto
            49 1 65 -16 50 -22 rrcurveto
            28 21 17 41 38 vvcurveto
            -51 22 -80 21 -76 -1 rrcurveto
            -131 -80 -71 -97 -80 61 -44 78 -28 hvcurveto
            96 -34 rlineto
            42 -15 18 -20 -25 vvcurveto
            -36 -37 -21 -45 vhcurveto
            -66 -1 -64 24 -50 27 -27 -18 -21 -47 -1 -33 rrcurveto
            return
          </CharString>
          <CharString index="8">
            507 384 rmoveto
            122 -94 47 -121 -68 -65 -2 -2 -76 -11 callgsubr
            79 callgsubr
            18 25 -53 callsubr
            204 40 vlineto
            41 19 -10 -35 16 hvcurveto
            46 -106 rlineto
            -42 18 21 -19 39 hhcurveto
            38 35 19 22 17 hvcurveto
            -17 15 -15 24 -12 26 -31 72 rcurveline
            -16 36 -21 23 -35 13 rrcurveto
            58 13 57 55 74 vvcurveto
            -298 72 rmoveto
            27 25 -1 25 hhcurveto
            64 21 -35 -38 -38 -19 -38 -71 -15 -28 -1 -1 -29 hvcurveto
            return
          </CharString>
          <CharString index="9">
            rmoveto
            9 -24 24 -21 22 -7 179 136 rcurveline
            -12 35 -38 34 -34 11 rrcurveto
            endchar
          </CharString>
          <CharString index="10">
            53 125 rmoveto
            -11 -13 -5 -19 -16 vvcurveto
            -10 2 -10 12 -58 vhcurveto
            338 hlineto
            51 38 26 46 22 -3 15 -5 18 hvcurveto
            -26 -13 -40 -4 -40 -1 -53 -1 rcurveline
            -35 -1 -47 -1 -44 -4 -2 4 rcurveline
            23 21 31 33 17 21 201 243 rcurveline
            12 15 3 15 15 vvcurveto
            9 -1 9 -17 62 vhcurveto
            -388 hlineto
            -6 -22 -4 -17 -22 vvcurveto
            -15 1 -14 4 -15 vhcurveto
            126 hlineto
            22 81 2 5 39 hvcurveto
            3 -3 -24 -22 -35 -35 -17 -20 rlinecurve
            return
          </CharString>
          <CharString index="11">
            597 683 rmoveto
            4 -21 -30 1 -17 hhcurveto
            -19 -26 -25 callsubr
            -438 vlineto
            -100 -40 -52 -87 -88 -40 52 100 vhcurveto
            358 -23 callsubr
            -6 -7 rlineto
            -436 vlineto
            -167 98 -93 163 164 98 93 167 vhcurveto
            return
          </CharString>
          <CharString index="12">
            22 43 rmoveto
            -100 callsubr
            return
          </CharString>
          <CharString index="13">
            65 -37 40 -59 vhcurveto
            -17 hlineto
            -19 -29 -2 -3 -28 -68 callgsubr
            13 hlineto
            34 11 -21 -34 hvcurveto
            -348 49 callsubr
            24 -33 callgsubr
            return
          </CharString>
          <CharString index="14">
            rmoveto
            -37 13 -51 -6 -31 -21 rrcurveto
            9 -16 4 -20 -17 vvcurveto
            -41 -21 -31 -42 -26 vhcurveto
            5 -25 15 -22 21 -7 rrcurveto
            85 29 54 59 75 vvcurveto
            20 -5 23 -6 13 vhcurveto
            endchar
          </CharString>
          <CharString index="15">
            rmoveto
            -18 -6 -27 -22 -9 -27 113 -108 rcurveline
            31 -6 50 -1 31 8 118 118 rcurveline
            -7 24 -31 23 -18 7 -118 -84 rcurveline
            endchar
          </CharString>
          <CharString index="16">
            95 -126 29 -8 50 -2 29 10 rlinecurve
            107 136 -14 27 -26 18 -19 7 rlinecurve
            -100 -96 rlineto
            endchar
          </CharString>
          <CharString index="17">
            rmoveto
            -17 3 -19 7 -16 vhcurveto
            -8 13 29 -6 -34 callsubr
            16 3 19 17 vvcurveto
            16 -3 20 -7 16 67 callgsubr
            -29 5 70 callgsubr
            -27 -5 21 callsubr
            -16 -3 -19 -17 vvcurveto
            return
          </CharString>
          <CharString index="18">
            hintmask 00000000
            hintmask 01001000
            213 395 rmoveto
            hintmask 10001000
            -94 callsubr
            return
          </CharString>
          <CharString index="19">
            125 hintmask 00000000
            hintmask 01010100
            -56 callgsubr
            hintmask 10010100
            -87 callsubr
            return
          </CharString>
          <CharString index="20">
            -146 279 rlineto
            5 -21 -38 0 -17 hhcurveto
            -17 -37 -3 -8 callgsubr
            -546 23 callsubr
            25 32 callsubr
            17 22 -53 callsubr
            190 vlineto
            35 -4 102 -4 71 vhcurveto
            3 1 14 -28 29 -67 14 -25 rlinecurve
            147 -279 rlineto
            -5 20 41 0 17 hhcurveto
            16 38 2 5 21 hvcurveto
            546 vlineto
            return
          </CharString>
          <CharString index="21">
            rmoveto
            14 44 18 66 13 48 rrcurveto
            5 hlineto
            13 -50 18 -69 15 -48 21 -64 rcurveline
            -11 -12 1 -9 hhcurveto
            -73 hlineto
            -10 -15 -1 -12 hhcurveto
            return
          </CharString>
          <CharString index="22">
            33 vvcurveto
            205 vlineto
            120 -79 49 -92 -66 -91 -19 -26 -62 vhcurveto
            3 -33 12 -39 19 -21 rrcurveto
            18 52 54 17 46 hhcurveto
            49 25 -24 -52 hvcurveto
            -27 vlineto
            3 -30 -31 0 -23 -22 callsubr
            return
          </CharString>
          <CharString index="23">
            rmoveto
            3 -22 15 -31 20 -11 229 92 rcurveline
            -3 39 -28 45 -23 17 rrcurveto
            endchar
          </CharString>
          <CharString index="24">
            237 154 rmoveto
            -40 callsubr
            rlineto
            -57 16 21 -15 43 hhcurveto
            26 32 6 11 19 hvcurveto
            -219 673 rlineto
            return
          </CharString>
          <CharString index="25">
            65 -35 40 -58 vhcurveto
            -18 hlineto
            -19 -35 -2 -3 -31 -68 callgsubr
            22 hlineto
            34 12 -21 -34 hvcurveto
            -365 vlineto
            -71 -20 -26 -57 -26 vhcurveto
            2 -31 16 -33 18 -16 rrcurveto
            149 33 20 71 140 vvcurveto
            return
          </CharString>
          <CharString index="26">
            86 hmoveto
            -4 20 29 -1 18 -38 callgsubr
            683 vlineto
            4 -22 -26 10 callgsubr
            -18 -29 9 callgsubr
            return
          </CharString>
          <CharString index="27">
            115 -14 99 289 101 124 100 hstem
            100 133 198 68 callsubr
            100 hmoveto
            -3 20 25 -2 21 hhcurveto
            22 25 2 3 20 hvcurveto
            489 vlineto
            67 29 43 68 68 33 -50 -57 -10 -1 -11 -2 -10 vhcurveto
            -58 -24 -33 -49 -45 vvcurveto
            -41 22 -33 41 -37 vhcurveto
            41 -37 rlineto
            21 -19 14 -18 -22 vvcurveto
            -31 -28 -20 -41 -21 -29 7 14 -28 vhcurveto
            -21 -20 -16 -43 -1 -28 rrcurveto
            -20 39 53 -9 37 hhcurveto
            114 80 56 95 45 -27 44 -45 43 hvcurveto
            -38 36 rlineto
            -20 18 -8 14 15 vvcurveto
            23 20 30 52 13 vhcurveto
            10 26 6 27 24 vvcurveto
            125 -93 79 -141 -137 -93 -67 -129 vhcurveto
            -28 vlineto
            -86 1 rlineto
            -3 -15 -2 -20 -15 vvcurveto
            -16 2 -21 37 callgsubr
          </CharString>
          <CharString index="28">
            4 -6 rlineto
            -7 15 24 -3 23 hhcurveto
            20 20 2 4 16 hvcurveto
            37 109 rlineto
            13 19 -1 9 hhcurveto
            return
          </CharString>
          <CharString index="29">
            485 rmoveto
            -15 -38 -20 -55 -12 -45 rrcurveto
            -6 hlineto
            -12 47 -16 48 -15 39 -63 154 rcurveline
            39 -16 -18 17 -37 hhcurveto
            -28 -29 -9 -15 -26 hvcurveto
            192 -450 rlineto
            -217 23 callsubr
            79 callgsubr
            20 18 callgsubr
            213 vlineto
            192 458 -5 8 rlineto
            6 -19 -24 3 -23 hhcurveto
            -18 -19 -1 -4 -18 hvcurveto
            return
          </CharString>
          <CharString index="30">
            rmoveto
            5 -25 19 -30 25 -12 39 18 28 18 20 26 rrcurveto
            -2 -29 -2 -30 -16 vvcurveto
            -120 -101 vlineto
            -3 -15 -1 -17 -16 vvcurveto
            -15 1 -16 3 -16 vhcurveto
            290 hlineto
            4 15 1 17 39 callgsubr
            -1 17 -4 15 vhcurveto
            -82 343 hlineto
            4 -21 -14 1 -16 hhcurveto
            -15 -18 30 callsubr
            -28 -61 -35 -38 -73 -44 rrcurveto
            return
          </CharString>
          <CharString index="31">
            -21 callsubr
            340 vlineto
            32 31 39 16 29 hhcurveto
            41 11 -25 -56 hvcurveto
            -233 vlineto
            -53 18 -28 52 32 31 12 16 19 vhcurveto
            -16 24 -5 34 37 vvcurveto
            return
          </CharString>
          <CharString index="32">
            -12 3 -29 7 -15 vhcurveto
            -10 17 30 -6 24 hhcurveto
            23 31 6 10 16 hvcurveto
            7 -5 callsubr
            -7 15 vhcurveto
            9 -17 -30 7 -1 callsubr
            -7 -9 -17 77 callsubr
            -28 -12 vvcurveto
            return
          </CharString>
          <CharString index="33">
            -41 callsubr
            -380 hlineto
            -5 -5 rlineto
            -468 vlineto
            -47 29 -29 47 vhcurveto
            return
          </CharString>
          <CharString index="34">
            134 hintmask 10101000
            -96 callsubr
            hintmask 01010000
            return
          </CharString>
          <CharString index="35">
            hintmask 10010000
            -81 callgsubr
            return
          </CharString>
          <CharString index="36">
            -51 24 rlineto
            9 -17 -22 8 -23 hhcurveto
            -52 -40 -33 -48 -22 hvcurveto
            -9 -19 10 -23 30 -16 26 -30 callsubr
            11 14 8 13 hhcurveto
            11 12 -4 -5 9 hvcurveto
            endchar
          </CharString>
          <CharString index="37">
            83 19 106 108 109 18 -106 -83 -84 -18 -105 -109 -108 -19 105 84 vhcurveto
            return
          </CharString>
          <CharString index="38">
            -61 callsubr
            341 vlineto
            -6 callsubr
            -729 -62 callgsubr
            return
          </CharString>
          <CharString index="39">
            rmoveto
            -67 52 -54 79 79 52 54 67 -57 callgsubr
            -30 -20 -22 -30 -30 -20 22 30 vhcurveto
            endchar
          </CharString>
          <CharString index="40">
            -10 15 31 -6 50 callgsubr
            31 7 9 15 hvcurveto
            6 11 5 27 18 vvcurveto
            18 -5 25 -6 10 vhcurveto
            -9 8 -20 3 -15 3 2 43 44 29 32 13 3 23 -11 27 -23 11 rrcurveto
            -103 -32 -50 -77 -87 vvcurveto
            -27 4 -24 8 -22 vhcurveto
            return
          </CharString>
          <CharString index="41">
            -193 542 rlineto
            4 -28 -26 22 callsubr
            -22 -30 -2 -4 -27 hvcurveto
            return
          </CharString>
          <CharString index="42">
            vvcurveto
            85 -25 98 -73 56 vhcurveto
            30 -40 -48 19 -78 hhcurveto
            -78 -48 -20 -29 -39 hvcurveto
            return
          </CharString>
          <CharString index="43">
            49 116 rmoveto
            -14 -19 -5 -16 -14 vvcurveto
            -16 4 -18 12 -33 vhcurveto
            299 hlineto
            56 19 23 36 19 -4 14 -9 22 hvcurveto
            -13 -27 -36 -3 -37 hhcurveto
            -41 hlineto
            -25 -30 -1 -4 -31 hvcurveto
            -3 5 25 27 29 36 23 30 rlinecurve
            141 191 rlineto
            10 13 4 15 13 vvcurveto
            18 -6 22 -11 33 vhcurveto
            -342 hlineto
            -5 -18 -3 -21 -18 vvcurveto
            -12 2 -16 3 -13 vhcurveto
            90 hlineto
            39 57 3 4 33 hvcurveto
            3 -4 -24 -28 -33 -37 -23 -31 rlinecurve
            return
          </CharString>
          <CharString index="44">
            rmoveto
            -11 2 -28 6 -14 vhcurveto
            -10 15 25 -6 21 hhcurveto
            19 27 6 10 13 hvcurveto
            6 14 3 28 11 vvcurveto
            12 -3 27 -6 14 vhcurveto
            8 -14 -26 7 -19 hhcurveto
            -21 -25 -7 23 callgsubr
            -6 -14 -2 -27 -12 vvcurveto
            endchar
          </CharString>
          <CharString index="45">
            rmoveto
            -25 -28 -17 -37 -6 -35 rrcurveto
            -28 46 61 -15 52 hhcurveto
            181 38 114 152 hvcurveto
            427 67 callsubr
            -27 10 callgsubr
            -17 -29 -25 callsubr
            -442 vlineto
            -93 -21 -47 -77 -34 -35 14 18 -29 vhcurveto
            return
          </CharString>
          <CharString index="46">
            424 193 rmoveto
            -18 47 -29 28 -40 13 17 12 14 16 11 21 93 160 rcurveline
            -6 8 rlineto
            1 -24 -21 1 -27 hhcurveto
            -39 -21 -17 -33 -18 hvcurveto
            -69 -119 rlineto
            -12 -7 -7 -4 -12 hhcurveto
            -25 -1 rlineto
            return
          </CharString>
          <CharString index="47">
            rmoveto
            -245 -39 callgsubr
            17 22 vvcurveto
            return
          </CharString>
          <CharString index="48">
            0 -1 -25 hvcurveto
            103 vlineto
            63 callgsubr
            26 vvcurveto
            66 hlineto
            return
          </CharString>
          <CharString index="49">
            rmoveto
            -23 -17 -28 -45 -3 -39 229 -92 rcurveline
            22 13 12 27 4 24 rrcurveto
            endchar
          </CharString>
          <CharString index="50">
            45 callgsubr
            hintmask 01010100
            481 334 rmoveto
            hintmask 10010100
            12 callsubr
            hintmask 01010100
            -70 callgsubr
            hintmask 00000000
            return
          </CharString>
          <CharString index="51">
            rmoveto
            -36 -20 26 33 -16 callgsubr
            hvcurveto
            -87 vlineto
            -29 -29 -35 -15 -30 hhcurveto
            return
          </CharString>
          <CharString index="52">
            -19 22 -94 12 -98 vhcurveto
            15 -9 36 0 15 9 rrcurveto
            12 97 22 95 19 vvcurveto
            19 -3 18 -4 17 vhcurveto
            10 -16 -21 5 -23 hhcurveto
            -24 -20 -5 -10 -17 hvcurveto
            -4 -17 -2 -18 -19 vvcurveto
            return
          </CharString>
          <CharString index="53">
            558 273 rmoveto
            93 -15 27 callgsubr
            -51 hhcurveto
            -76 -56 -2 -2 -78 hvcurveto
            -5 -6 rlineto
            -538 vlineto
            5 -6 rlineto
            -2 78 56 -1 76 hhcurveto
            51 74 11 29 41 hvcurveto
            85 59 14 26 callsubr
            -94 -112 vhcurveto
            -32 -21 -1 -31 hhcurveto
            353 vlineto
            -1 30 22 0 32 hhcurveto
            112 18 -96 -81 hvcurveto
            return
          </CharString>
          <CharString index="54">
            1 4 22 hvcurveto
            return
          </CharString>
          <CharString index="55">
            184 hmoveto
            -4 23 25 59 callsubr
            25 1 4 23 hvcurveto
            498 vlineto
            27 -1 19 28 vvcurveto
            1 hlineto
            14 32 -1 14 hhcurveto
            47 hlineto
            49 23 16 44 17 -3 21 -4 14 hvcurveto
            -478 hlineto
            -4 -20 -1 -21 -15 vvcurveto
            -16 1 -20 4 -20 vhcurveto
            111 hlineto
            14 32 1 14 hhcurveto
            1 hlineto
            -28 -1 -19 -27 vvcurveto
            return
          </CharString>
          <CharString index="56">
            9 -14 -31 7 -1 callsubr
            -8 -8 2 callgsubr
            return
          </CharString>
          <CharString index="57">
            162 hmoveto
            -3 19 29 -2 19 hhcurveto
            19 31 2 3 16 hvcurveto
            381 vlineto
            22 -1 16 22 vvcurveto
            1 hlineto
            12 27 -1 13 hhcurveto
            37 hlineto
            49 18 21 38 13 -2 21 -5 15 hvcurveto
            -435 hlineto
            -3 -19 -1 -21 -15 vvcurveto
            -15 1 -18 3 -20 vhcurveto
            99 hlineto
            13 28 1 14 hhcurveto
            -22 -1 -16 -22 vvcurveto
            return
          </CharString>
          <CharString index="58">
            133 -72 callsubr
            hintmask 01100000
            return
          </CharString>
          <CharString index="59">
            rmoveto
            -19 -7 -28 -21 -12 -27 rrcurveto
            return
          </CharString>
          <CharString index="60">
            rmoveto
            9 -28 33 -32 29 -8 198 187 rcurveline
            8 21 0 36 -8 20 -201 186 rcurveline
            -28 -8 -36 -31 -9 -28 135 -159 rcurveline
            return
          </CharString>
          <CharString index="61">
            -7 31 -29 38 -28 18 rrcurveto
            -40 -52 -56 -33 -66 hhcurveto
            -95 -56 82 153 164 44 88 95 return
          </CharString>
          <CharString index="62">
            -57 211 rlineto
            44 -12 -21 13 -32 hhcurveto
            -21 -31 -6 -13 -28 hvcurveto
            124 -434 12 -43 31 -14 48 -1 rlinecurve
            -4 -13 rlineto
            -63 -19 -31 -39 -58 hhcurveto
            -30 -34 8 6 -19 hvcurveto
            -17 -20 -13 -43 3 -30 rrcurveto
            -9 25 49 -10 35 hhcurveto
            145 50 90 143 40 hvcurveto
            return
          </CharString>
          <CharString index="63">
            -2 16 15 -2 15 hhcurveto
            55 24 25 47 85 -70 93 -152 -135 -122 -87 -203 return
          </CharString>
          <CharString index="64">
            116 rmoveto
            10 -14 -31 6 -1 callsubr
            -7 -9 2 callgsubr
            -18 vvcurveto
            -18 5 -25 6 -10 vhcurveto
            9 -8 18 -5 15 -2 -6 -46 -36 -37 -47 -18 -2 -23 12 -28 23 -11 rrcurveto
            108 35 55 90 89 vvcurveto
            27 -3 24 -9 22 vhcurveto
            return
          </CharString>
          <CharString index="65">
            -28 callgsubr
            114 184 rcurveline
            -37 callsubr
            return
          </CharString>
          <CharString index="66">
            3 21 -31 callsubr
            return
          </CharString>
          <CharString index="67">
            140 hlineto
            10 24 1 15 hhcurveto
            28 -91 return
          </CharString>
          <CharString index="68">
            -43 -44 -30 -33 -12 -2 -24 11 -27 22 -11 rrcurveto
            103 return
          </CharString>
          <CharString index="69">
            -51 callsubr
            -18 vvcurveto
            -19 -17 callsubr
            14 -2 -1 -39 callsubr
            33 50 77 47 callsubr
            25 -9 22 vhcurveto
            return
          </CharString>
          <CharString index="70">
            -8 8 rlineto
            3 -22 -41 3 -15 hhcurveto
            -43 -14 -16 -30 -17 hvcurveto
            -89 -147 rlineto
            -20 -12 -3 -5 -25 hhcurveto
            -23 -1 rlineto
            return
          </CharString>
          <CharString index="71">
            83 210 rmoveto
            59 23 -48 -58 hvcurveto
            -12 -166 vlineto
            76 4 26 42 54 hhcurveto
            return
          </CharString>
          <CharString index="72">
            43 -2 -32 callsubr
            return
          </CharString>
          <CharString index="73">
            50 callgsubr
            29 6 8 13 hvcurveto
            7 return
          </CharString>
          <CharString index="74">
            22 -7 71 -2 34 9 377 683 rcurveline
            -21 7 -71 2 -34 -9 rrcurveto
            return
          </CharString>
          <CharString index="75">
            113 178 -14 callgsubr
            return
          </CharString>
          <CharString index="76">
            39 callgsubr
            0 17 -4 19 vhcurveto
            return
          </CharString>
          <CharString index="77">
            -1 rlinecurve
            10 14 rlineto
            16 return
          </CharString>
          <CharString index="78">
            298 109 rmoveto
            -26 -31 -2 -3 -32 hvcurveto
            366 vlineto
            12 callgsubr
            -472 -15 callgsubr
            1 16 rrcurveto
            return
          </CharString>
          <CharString index="79">
            237 96 rmoveto
            -30 -12 16 30 hvcurveto
            513 -9 callsubr
            -612 -2 callgsubr
            1 11 10 vvcurveto
            22 -4 23 -7 18 vhcurveto
            return
          </CharString>
          <CharString index="80">
            12 -19 44 -17 26 -1 rrcurveto
            27 9 19 24 28 hhcurveto
            26 18 -19 -25 -23 -10 -17 -25 -21 hvcurveto
            -82 -68 rlineto
            -42 -34 -29 -37 -39 vvcurveto
            -25 22 -24 14 -18 vhcurveto
            214 hlineto
            36 22 18 33 6 hvcurveto
            return
          </CharString>
          <CharString index="81">
            hhcurveto
            23 24 -21 callsubr
            return
          </CharString>
          <CharString index="82">
            -1 -8 callgsubr
            return
          </CharString>
          <CharString index="83">
            21 vvcurveto
            67 59 vlineto
            142 hlineto
            6 return
          </CharString>
          <CharString index="84">
            vlineto
            60 -25 26 -53 vhcurveto
            -50 hlineto
            return
          </CharString>
          <CharString index="85">
            hhcurveto
            -105 -90 -52 -117 -72 49 -78 101 return
          </CharString>
          <CharString index="86">
            2 3 18 hvcurveto
            return
          </CharString>
          <CharString index="87">
            33 -10 32 hhcurveto
            76 54 43 63 48 -38 36 -59 4 hvcurveto
            return
          </CharString>
          <CharString index="88">
            25 21 42 8 hvcurveto
            2 15 0 return
          </CharString>
          <CharString index="89">
            hhcurveto
            -10 -13 rlineto
            -17 return
          </CharString>
          <CharString index="90">
            5 -24 6 -11 vhcurveto
            9 -7 20 -4 return
          </CharString>
          <CharString index="91">
            98 154 108 295 131 return
          </CharString>
          <CharString index="92">
            67 callsubr
            -27 10 callgsubr
            -18 53 callgsubr
            return
          </CharString>
          <CharString index="93">
            hvcurveto
            228 vlineto
            1 18 16 0 10 hhcurveto
            40 -1 17 -15 18 -43 49 -113 rcurveline
            17 -40 17 -23 45 -1 34 -1 35 18 18 23 rrcurveto
            return
          </CharString>
          <CharString index="94">
            88 16 76 74 73 16 -76 -88 -87 -16 -76 -73 return
          </CharString>
          <CharString index="95">
            47 14 callgsubr
            25 vhcurveto
            -2 26 -12 22 -15 13 rrcurveto
            return
          </CharString>
          <CharString index="96">
            3 17 0 21 11 vvcurveto
            return
          </CharString>
          <CharString index="97">
            1 4 21 hvcurveto
            return
          </CharString>
          <CharString index="98">
            78 callgsubr
            17 callsubr
            return
          </CharString>
          <CharString index="99">
            -24 -1 -21 rrcurveto
            hintmask 10111100
            -21 callgsubr
            7 return
          </CharString>
          <CharString index="100">
            -5 19 27 -1 15 hhcurveto
            17 23 1 5 20 hvcurveto
            387 vlineto
            4 -20 -23 1 -17 hhcurveto
            -15 -27 30 callsubr
            return
          </CharString>
          <CharString index="101">
            58 -18 23 -52 vhcurveto
            -51 -1 callgsubr
            return
          </CharString>
          <CharString index="102">
            15 3 29 12 vvcurveto
            12 -3 28 return
          </CharString>
          <CharString index="103">
            hlineto
            -7 -7 rlineto
            return
          </CharString>
          <CharString index="104">
            rmoveto
            -103 hlineto
            -26 -36 -3 -7 -36 hvcurveto
            11 12 19 12 21 16 56 43 rcurveline
            51 39 31 40 63 vvcurveto
            return
          </CharString>
          <CharString index="105">
            vlineto
            -13 callgsubr
            return
          </CharString>
          <CharString index="106">
            -23 hhcurveto
            -24 -30 return
          </CharString>
          <CharString index="107">
            -4 22 25 -1 19 hhcurveto
            19 25 -53 callsubr
            return
          </CharString>
          <CharString index="108">
            hhcurveto
            -23 -24 -1 -4 -18 hvcurveto
            return
          </CharString>
          <CharString index="109">
            71 -14 99 378 99 return
          </CharString>
          <CharString index="110">
            1 -18 hhcurveto
            return
          </CharString>
          <CharString index="111">
            15 vvcurveto
            15 return
          </CharString>
          <CharString index="112">
            11 callgsubr
            6 8 2 8 hhcurveto
            23 14 -15 -19 hvcurveto
            return
          </CharString>
          <CharString index="113">
            -199 -21 623 97 -5 -20 return
          </CharString>
          <CharString index="114">
            -17 -14 99 134 86 100 103 return
          </CharString>
          <CharString index="115">
            18 1 22 14 69 callsubr
            22 return
          </CharString>
          <CharString index="116">
            -35 callsubr
            45 4 callgsubr
            83 callsubr
            return
          </CharString>
          <CharString index="117">
            vvcurveto
            -60 48 14 callgsubr
            24 26 callgsubr
            return
          </CharString>
          <CharString index="118">
            -7 -6 rlineto
            -673 vlineto
            7 -6 rlineto
            -2 return
          </CharString>
          <CharString index="119">
            99 -44 72 -92 -58 -50 -27 -36 -42 vhcurveto
            return
          </CharString>
          <CharString index="120">
            111 110 111 return
          </CharString>
          <CharString index="121">
            18 -4 20 vhcurveto
            return
          </CharString>
          <CharString index="122">
            hstemhm
            36 136 return
          </CharString>
          <CharString index="123">
            29 -1 12 hhcurveto
            141 hlineto
            12 29 1 12 hhcurveto
            -27 -1 -19 -28 vvcurveto
            return
          </CharString>
          <CharString index="124">
            -53 vhcurveto
            -50 -4 callsubr
            return
          </CharString>
          <CharString index="125">
            -233 548 -20 return
          </CharString>
          <CharString index="126">
            216 hstemhm
            return
          </CharString>
          <CharString index="127">
            -7 -19 callgsubr
            43 216 45 callsubr
            return
          </CharString>
          <CharString index="128">
            23 callgsubr
            -7 return
          </CharString>
          <CharString index="129">
            2 -21 hhcurveto
            return
          </CharString>
          <CharString index="130">
            vlineto
            -4 21 return
          </CharString>
          <CharString index="131">
            vvcurveto
            13 22 -1 12 hhcurveto
            112 hlineto
            12 22 1 13 hhcurveto
            return
          </CharString>
          <CharString index="132">
            vhcurveto
            -9 14 24 -4 22 hhcurveto
            21 26 5 8 12 hvcurveto
            7 return
          </CharString>
          <CharString index="133">
            85 93 vvcurveto
            -135 hmoveto
            -80 -18 return
          </CharString>
          <CharString index="134">
            29 -14 110 492 109 return
          </CharString>
          <CharString index="135">
            hintmask 00000000
            hintmask 10110000
            return
          </CharString>
          <CharString index="136">
            104 553 -20 21 -20 return
          </CharString>
          <CharString index="137">
            -1 -4 -19 hvcurveto
            return
          </CharString>
          <CharString index="138">
            -6 23 callgsubr
            return
          </CharString>
          <CharString index="139">
            -1 16 hhcurveto
            return
          </CharString>
          <CharString index="140">
            -347 vlineto
            return
          </CharString>
          <CharString index="141">
            -119 rmoveto
            54 callsubr
            return
          </CharString>
          <CharString index="142">
            hlineto
            -5 -18 -1 -7 -18 vvcurveto
            -19 1 -6 5 -16 vhcurveto
            return
          </CharString>
          <CharString index="143">
            3 callgsubr
            63 216 48 callsubr
            return
          </CharString>
          <CharString index="144">
            4 -16 vhcurveto
            return
          </CharString>
          <CharString index="145">
            78 131 return
          </CharString>
          <CharString index="146">
            5 -21 -30 1 -16 hhcurveto
            -19 -25 -1 -5 -21 hvcurveto
            return
          </CharString>
          <CharString index="147">
            -4 20 31 32 callsubr
            18 18 callgsubr
            return
          </CharString>
          <CharString index="148">
            32 204 102 149 98 return
          </CharString>
          <CharString index="149">
            29 216 15 callsubr
            return
          </CharString>
          <CharString index="150">
            21 -9 118 367 20 return
          </CharString>
          <CharString index="151">
            15 -14 110 362 104 return
          </CharString>
          <CharString index="152">
            hstemhm
            38 callsubr
            return
          </CharString>
          <CharString index="153">
            85 callgsubr
            -1 return
          </CharString>
          <CharString index="154">
            87 vvcurveto
            26 -3 return
          </CharString>
          <CharString index="155">
            hstemhm
            68 133 return
          </CharString>
          <CharString index="156">
            vlineto
            -3 19 return
          </CharString>
          <CharString index="157">
            16 vvcurveto
            16 -4 26 -6 11 vhcurveto
            9 -16 -26 return
          </CharString>
          <CharString index="158">
            161 -5 694 return
          </CharString>
          <CharString index="159">
            23 callsubr
            28 -1 return
          </CharString>
          <CharString index="160">
            131 vstem
            return
          </CharString>
          <CharString index="161">
            13 callgsubr
            -25 -20 13 27 return
          </CharString>
          <CharString index="162">
            -13 61 0 28 13 rlinecurve
            29 130 rlineto
            return
          </CharString>
          <CharString index="163">
            hintmask 00000000
            hintmask 11110100
            return
          </CharString>
          <CharString index="164">
            hintmask 00000000
            hintmask 10100000
            return
          </CharString>
          <CharString index="165">
            139 156 142 return
          </CharString>
          <CharString index="166">
            -1 19 hhcurveto
            20 return
          </CharString>
          <CharString index="167">
            19 vvcurveto
            20 -1 return
          </CharString>
          <CharString index="168">
            -4 18 vhcurveto
            return
          </CharString>
          <CharString index="169">
            42 7 hvcurveto
            return
          </CharString>
          <CharString index="170">
            105 68 hstem
            68 81 100 81 vstem
            68 return
          </CharString>
          <CharString index="171">
            -157 -153 96 778 96 hstem
            return
          </CharString>
          <CharString index="172">
            hstem
            78 132 151 136 vstem
            return
          </CharString>
          <CharString index="173">
            vlineto
            58 -18 return
          </CharString>
          <CharString index="174">
            vlineto
            4 -21 return
          </CharString>
          <CharString index="175">
            133 vstem
            return
          </CharString>
          <CharString index="176">
            vvcurveto
            14 -1 return
          </CharString>
          <CharString index="177">
            23 2 3 return
          </CharString>
          <CharString index="178">
            15 vvcurveto
            13 return
          </CharString>
          <CharString index="179">
            hstem
            124 140 vstem
            124 return
          </CharString>
          <CharString index="180">
            -21 -26 3 callsubr
            -16 -31 -1 return
          </CharString>
          <CharString index="181">
            1 13 1 23 11 vvcurveto
            endchar
          </CharString>
          <CharString index="182">
            vlineto
            4 -19 -24 1 return
          </CharString>
          <CharString index="183">
            -20 hstemhm
            78 132 return
          </CharString>
          <CharString index="184">
            hvcurveto
            -7 -15 -3 return
          </CharString>
          <CharString index="185">
            16 callgsubr
            17 return
          </CharString>
          <CharString index="186">
            hstemhm
            78 123 return
          </CharString>
          <CharString index="187">
            -26 -16 vvcurveto
            -16 return
          </CharString>
          <CharString index="188">
            4 16 1 return
          </CharString>
          <CharString index="189">
            -1 18 hhcurveto
            return
          </CharString>
          <CharString index="190">
            82 133 return
          </CharString>
          <CharString index="191">
            -21 hhcurveto
            -23 return
          </CharString>
          <CharString index="192">
            9 543 return
          </CharString>
        <CharString name=".notdef">
          -341 endchar
        </CharString>
        <CharString name=".null">
          -527 endchar
        </CharString>
        <CharString name="A">
          -16 callsubr
          hstem
          14 597 vstem
          -105 callgsubr
          endchar
        </CharString>
        <CharString name="AE">
          355 -2 113 43 107 28 -14 callgsubr
          hstemhm
          395 130 hintmask 00000000
          hintmask 11111000
          262 154 rmoveto
          89 hlineto
          9 20 0 1 15 hvcurveto
          -77 vlineto
          -50 28 -30 48 vhcurveto
          281 hlineto
          49 30 22 42 7 hvcurveto
          -11 callsubr
          -247 -39 callgsubr
          18 22 vvcurveto
          hintmask 10111000
          117 65 vlineto
          171 -53 callgsubr
          -171 hlineto
          -15 -25 -59 callsubr
          222 hlineto
          7 20 4 15 callgsubr
          -1 14 callsubr
          -416 hlineto
          -25 -36 -3 -9 -20 hvcurveto
          -311 -661 4 -6 rlineto
          -7 17 28 -2 23 hhcurveto
          21 23 0 5 19 hvcurveto
          70 155 rlineto
          -1 16 22 0 9 hhcurveto
          59 234 rmoveto
          23 50 26 66 20 53 rrcurveto
          5 -297 hlineto
          -15 -21 1 -9 hhcurveto
          -51 hlineto
          -8 -16 -1 -12 hhcurveto
          endchar
        </CharString>
        <CharString name="Aacute">
          20 callgsubr
          -409 267 -103 callsubr
          hintmask 00101000
          -19 531 -84 callsubr
        </CharString>
        <CharString name="Acircumflex">
          -16 callsubr
          38 38 callgsubr
          14 597 -470 341 -103 callsubr
          hintmask 00101000
          208 475 -84 callgsubr
        </CharString>
        <CharString name="Adieresis">
          -16 callsubr
          62 106 hstemhm
          14 597 -462 13 callsubr
          -103 callsubr
          hintmask 00101100
          206 595 -106 callsubr
        </CharString>
        <CharString name="Agrave">
          20 callgsubr
          -439 267 -103 callsubr
          hintmask 00101000
          5 660 -58 callsubr
        </CharString>
        <CharString name="Aogonek">
          98 -218 84 134 -20 174 108 295 131 hstem
          426 98 vstem
          14 10 rmoveto
          -80 callgsubr
          -40 callsubr
          10 -35 11 -19 18 -10 rlinecurve
          -34 -29 -33 -43 -49 vvcurveto
          -60 0 callgsubr
          -20 13 27 38 32 33 51 29 hvcurveto
          4 3 -219 673 rlineto
          4 -21 -35 2 84 callsubr
          -33 -2 -3 -22 hvcurveto
          23 -295 -86 callgsubr
          endchar
        </CharString>
        <CharString name="Aring">
          98 154 108 575 68 hstem
          183 82 99 82 vstem
          -83 callsubr
          -2 -1 1 -1 hhcurveto
          36 21 22 37 43 vvcurveto
          67 -53 54 -78 -79 -53 -54 -67 -42 21 -37 36 -22 vhcurveto
          -3 hlineto
          -100 callgsubr
          44 523 rmoveto
          30 20 23 30 29 20 -23 -30 -29 -20 -23 -29 -30 -20 23 29 vhcurveto
          endchar
        </CharString>
        <CharString name="Atilde">
          -16 callsubr
          53 102 hstemhm
          14 597 -487 382 -103 callsubr
          hintmask 00000000
          100 497 -66 callgsubr
          hintmask 00101000
          -71 callsubr
        </CharString>
        <CharString name="B">
          83 -5 97 217 99 182 98 hstemhm
          83 133 187 133 -104 136 56 callsubr
          90 684 rmoveto
          11 callsubr
          80 75 -2 79 hhcurveto
          159 85 73 126 83 -56 70 -68 21 hvcurveto
          hintmask 11111000
          54 22 38 55 62 vvcurveto
          119 -83 62 -144 vhcurveto
          hintmask 11110100
          -68 -74 -2 -2 -77 hvcurveto
          224 -375 rmoveto
          93 25 -62 -47 -46 -20 -62 -94 -30 -36 0 -1 -36 hvcurveto
          218 vlineto
          282 vmoveto
          hintmask 11111000
          -1 28 38 0 22 hhcurveto
          80 19 -47 -43 -44 -19 -48 -81 hvcurveto
          -87 hlineto
          endchar
        </CharString>
        <CharString name="C">
          28 callgsubr
          hstem
          42 141 263 129 vstem
          -75 callgsubr
          endchar
        </CharString>
        <CharString name="CR">
          -341 endchar
        </CharString>
        <CharString name="Cacute">
          28 callgsubr
          42 callgsubr
          28 267 -32 -52 callgsubr
          -235 365 -84 callsubr
        </CharString>
        <CharString name="Ccaron">
          28 callgsubr
          41 178 22 callgsubr
          -32 343 -48 -52 callgsubr
          -241 479 -92 callsubr
        </CharString>
        <CharString name="Ccedilla">
          79 6 callgsubr
          624 108 22 callgsubr
          154 101 8 129 hintmask 00000000
          hintmask 01111100
          258 5 callsubr
          hintmask 10111100
          51 callgsubr
          -19 6 7 -11 vhcurveto
          hintmask 01111100
          -14 -15 -8 -8 callsubr
          90 10 82 42 49 49 -46 callsubr
          hvcurveto
          hintmask 01111110
          98 28 -82 -80 -2 hvcurveto
          -48 callgsubr
          -166 59 -167 177 72 callgsubr
          -4 -17 rrcurveto
          endchar
        </CharString>
        <CharString name="D">
          131 -5 106 481 106 81 callgsubr
          259 138 vstem
          -55 callgsubr
          endchar
        </CharString>
        <CharString name="Dcaron">
          131 -5 106 481 106 50 38 callgsubr
          83 134 -75 343 -9 138 hintmask 11010100
          -55 callgsubr
          hintmask 00101000
          -280 564 -92 callsubr
        </CharString>
        <CharString name="E">
          -35 callsubr
          hstem
          82 68 callsubr
          -104 callgsubr
          endchar
        </CharString>
        <CharString name="Eacute">
          9 callsubr
          -29 267 -102 callsubr
          hintmask 00010100
          -343 681 -84 callsubr
        </CharString>
        <CharString name="Ecaron">
          -35 callsubr
          55 38 callgsubr
          83 callsubr
          -89 343 -102 callsubr
          hintmask 00010100
          -349 795 -92 callsubr
        </CharString>
        <CharString name="Ecircumflex">
          -35 callsubr
          43 38 callgsubr
          83 callsubr
          -90 341 -102 callsubr
          hintmask 00010100
          -116 625 -84 callgsubr
        </CharString>
        <CharString name="Edieresis">
          -35 callsubr
          67 106 hstemhm
          83 callsubr
          -82 13 callsubr
          -102 callsubr
          hintmask 00010110
          -118 745 -106 callsubr
        </CharString>
        <CharString name="Egrave">
          9 callsubr
          -59 267 -102 callsubr
          hintmask 00010100
          -319 810 -58 callsubr
        </CharString>
        <CharString name="Eogonek">
          45 -218 84 132 -32 callsubr
          hstem
          83 callsubr
          81 99 vstem
          -105 callsubr
          202 hlineto
          -37 -29 -28 -41 -48 vvcurveto
          -61 0 callgsubr
          -19 13 27 33 27 41 55 23 hvcurveto
          2 1 1 1 2 hvcurveto
          24 9 15 20 5 28 rrcurveto
          -11 callsubr
          endchar
        </CharString>
        <CharString name="Eth">
          146 -5 106 191 109 181 106 hstem
          98 132 261 139 vstem
          630 342 rmoveto
          116 -18 106 -91 74 vhcurveto
          36 -45 -80 14 -54 hhcurveto
          -84 -66 -1 -3 -87 hvcurveto
          -7 -6 rlineto
          -277 -72 vlineto
          -4 -18 -1 -20 -18 vvcurveto
          -19 1 -18 37 callsubr
          72 -287 hlineto
          7 -6 rlineto
          -2 87 66 -2 84 hhcurveto
          54 80 14 36 45 hvcurveto
          92 74 17 106 117 vvcurveto
          -260 -50 rmoveto
          81 callsubr
          19 60 callsubr
          17 61 callsubr
          -140 182 hlineto
          -1 40 33 0 39 hhcurveto
          130 19 -130 -110 -110 -19 -131 -130 -39 -33 0 -1 -40 hvcurveto
          192 vlineto
          endchar
        </CharString>
        <CharString name="Euro">
          36 -14 107 110 84 72 84 112 107 hstem
          90 130 vstem
          493 498 rmoveto
          28 16 23 34 5 29 rrcurveto
          52 -61 -79 33 -81 hhcurveto
          -143 -64 -97 -122 -22 hvcurveto
          -81 60 callgsubr
          -14 -12 vvcurveto
          -12 1 -13 37 callsubr
          72 hlineto
          -1 -12 0 -12 -12 vvcurveto
          -12 0 -12 1 -12 vhcurveto
          -72 60 callgsubr
          -14 -11 vvcurveto
          -13 1 -13 37 callsubr
          81 hlineto
          -121 22 63 -96 144 hhcurveto
          80 80 32 52 61 hvcurveto
          -5 30 -21 32 -30 17 rrcurveto
          -33 -44 -55 -23 -48 hhcurveto
          -62 -37 37 73 -16 hvcurveto
          182 hlineto
          81 callsubr
          13 13 vvcurveto
          13 -1 12 -4 17 vhcurveto
          -193 36 hlineto
          36 193 vlineto
          81 callsubr
          12 13 69 callsubr
          12 -4 17 vhcurveto
          -183 hlineto
          75 17 36 37 63 hhcurveto
          48 55 -23 -34 44 hvcurveto
          endchar
        </CharString>
        <CharString name="Euro.smcp">
          -29 -14 102 82 76 57 75 82 102 -65 -20 hstemhm
          79 124 56 callsubr
          434 421 rmoveto
          hintmask 11101100
          27 14 23 32 4 30 rrcurveto
          hintmask 11110100
          41 -54 -66 24 -71 hhcurveto
          -132 -57 -83 -101 -20 hvcurveto
          -73 hlineto
          -5 -16 0 -14 -8 vvcurveto
          -9 0 -12 5 -16 vhcurveto
          64 -29 hlineto
          -10 0 -9 1 -9 vhcurveto
          -65 hlineto
          -5 -16 0 -14 -7 vvcurveto
          -11 0 -12 5 -16 vhcurveto
          74 hlineto
          -101 21 58 -83 128 hhcurveto
          74 63 25 42 55 hvcurveto
          -4 28 -22 31 -28 15 rrcurveto
          -24 -37 -46 -15 -39 hhcurveto
          -52 -31 28 54 -15 hvcurveto
          148 hlineto
          81 callsubr
          12 11 vvcurveto
          10 -1 11 -4 16 vhcurveto
          -159 27 hlineto
          30 159 vlineto
          81 callsubr
          11 10 vvcurveto
          11 -1 11 -4 16 vhcurveto
          -148 hlineto
          54 15 30 28 53 hhcurveto
          39 45 -15 -24 38 hvcurveto
          endchar
        </CharString>
        <CharString name="F">
          2 286 111 172 114 81 callgsubr
          vstem
          217 hmoveto
          286 31 vlineto
          197 hlineto
          5 17 2 24 4 callsubr
          -2 24 -5 16 vhcurveto
          -197 hlineto
          -31 75 hlineto
          31 0 33 -1 33 vhcurveto
          84 hlineto
          135 hlineto
          50 23 18 44 16 -2 21 -4 15 hvcurveto
          -412 hlineto
          -7 -6 rlineto
          -677 vlineto
          -4 22 27 59 callsubr
          24 -53 callsubr
          endchar
        </CharString>
        <CharString name="G">
          122 -14 108 167 114 209 113 hstem
          42 138 285 69 callgsubr
          345 374 rmoveto
          -6 -16 -4 -22 -18 vvcurveto
          -41 20 -16 44 vhcurveto
          68 hlineto
          -2 -22 0 -22 -22 vvcurveto
          -89 vlineto
          -7 -30 -35 -5 -41 hhcurveto
          -116 -63 77 165 178 72 70 102 62 63 -22 -35 49 hvcurveto
          28 18 30 40 4 40 rrcurveto
          43 -64 -87 29 -92 hhcurveto
          -152 -153 -112 -248 -202 88 -149 205 106 92 21 21 59 hvcurveto
          262 vlineto
          51 -23 34 -69 vhcurveto
          endchar
        </CharString>
        <CharString name="H">
          154 296 113 81 callgsubr
          246 62 callgsubr
          463 hmoveto
          -4 22 27 59 callsubr
          24 1 4 23 hvcurveto
          683 vlineto
          4 -22 -28 3 callsubr
          -19 -27 -25 callsubr
          -201 vlineto
          -28 1 -19 -27 vvcurveto
          -12 -29 1 -12 hhcurveto
          -141 hlineto
          -12 -29 -1 -13 hhcurveto
          27 1 19 28 vvcurveto
          201 -36 callgsubr
          223 vlineto
          28 -1 19 27 vvcurveto
          13 16 callsubr
          endchar
        </CharString>
        <CharString name="Hbar">
          162 294 112 85 100 hstem
          87 135 245 62 callgsubr
          222 hmoveto
          221 vlineto
          28 -1 19 27 vvcurveto
          12 16 callsubr
          -221 vlineto
          -4 22 27 -1 20 hhcurveto
          19 25 -53 callsubr
          491 68 vlineto
          4 17 2 14 20 vvcurveto
          19 -2 12 61 callsubr
          -68 92 hlineto
          4 -21 -29 3 callsubr
          -19 71 callgsubr
          -22 hvcurveto
          -92 -245 92 vlineto
          4 -22 -27 10 callgsubr
          -17 -29 -25 callsubr
          -92 -67 vlineto
          -5 -18 -2 -15 -18 vvcurveto
          -19 2 -13 5 -17 vhcurveto
          67 -491 hlineto
          -4 21 79 callgsubr
          19 27 -53 callsubr
          193 406 rmoveto
          -141 hlineto
          -12 -29 -1 -12 hhcurveto
          27 1 20 28 vvcurveto
          11 245 -11 vlineto
          -28 1 -20 -27 vvcurveto
          -12 -29 1 -12 hhcurveto
          endchar
        </CharString>
        <CharString name="I">
          19 callgsubr
          hstem
          86 33 callgsubr
          -81 callsubr
          endchar
        </CharString>
        <CharString name="IJ">
          234 -10 111 -106 693 hstemhm
          86 134 335 134 hintmask 01100000
          -81 callsubr
          hintmask 10010000
          273 -550 -62 callsubr
          endchar
        </CharString>
        <CharString name="Iacute">
          19 callgsubr
          41 4 callgsubr
          40 267 -221 134 -71 callgsubr
          hintmask 01100000
          -46 110 -84 callsubr
        </CharString>
        <CharString name="Icircumflex">
          19 callgsubr
          39 38 callgsubr
          -21 341 -234 134 -71 callgsubr
          hintmask 01100000
          181 54 -84 callgsubr
        </CharString>
        <CharString name="Idieresis">
          19 callgsubr
          63 106 hstemhm
          -13 111 -12 134 -12 111 -71 callgsubr
          hintmask 01101000
          179 174 -106 callsubr
        </CharString>
        <CharString name="Igrave">
          19 callgsubr
          41 4 callgsubr
          10 267 -191 134 -71 callgsubr
          hintmask 01100000
          -22 239 -58 callsubr
        </CharString>
        <CharString name="Itilde">
          19 callgsubr
          54 102 hstemhm
          -38 382 -258 134 -71 callgsubr
          hintmask 00000000
          73 76 -66 callgsubr
          hintmask 01100000
          -71 callsubr
        </CharString>
        <CharString name="J">
          -67 -10 111 hstem
          254 33 callgsubr
          58 133 -62 callsubr
          endchar
        </CharString>
        <CharString name="Jcircumflex">
          -67 -10 111 625 38 callgsubr
          147 341 -234 134 hintmask 10010000
          58 133 -62 callsubr
          hintmask 01100000
          377 603 -84 callgsubr
        </CharString>
        <CharString name="K">
          82 297 112 265 14 81 callgsubr
          vstem
          -72 callgsubr
          endchar
        </CharString>
        <CharString name="Kcommaaccent">
          82 -23 callgsubr
          349 112 265 14 hstemhm
          83 134 62 117 hintmask 00011100
          -72 callgsubr
          hintmask 11100010
          -213 -93 -93 callsubr
        </CharString>
        <CharString name="L">
          -10 -2 116 hstem
          82 62 callgsubr
          -27 callgsubr
          endchar
        </CharString>
        <CharString name="Ldot">
          -10 -2 116 191 106 hstemhm
          82 135 120 128 hintmask 10100000
          -27 callgsubr
          hintmask 01010000
          -157 244 -63 callsubr
        </CharString>
        <CharString name="Lslash">
          -1 -2 116 hstem
          91 33 callgsubr
          225 603 rmoveto
          60 -25 26 -53 vhcurveto
          -49 -4 callsubr
          -301 vlineto
          -81 -27 -7 -33 1 -42 8 -25 rlinecurve
          10 -5 69 25 rlineto
          -196 vlineto
          -50 31 -30 47 vhcurveto
          242 hlineto
          49 32 22 43 31 callgsubr
          0 20 15 vvcurveto
          -185 hlineto
          -28 -32 -1 -3 -32 hvcurveto
          205 vlineto
          177 60 6 33 0 42 -8 24 rlinecurve
          -10 5 -165 -58 rlineto
          endchar
        </CharString>
        <CharString name="M">
          294 2 -20 120 132 303 145 hstem
          64 693 vstem
          64 2 rmoveto
          -5 19 27 -2 21 hhcurveto
          21 20 1 3 19 hvcurveto
          19 321 4 62 3 92 1 63 rlinecurve
          7 hlineto
          117 -435 rlineto
          -3 20 30 -2 18 hhcurveto
          19 30 2 3 20 hvcurveto
          117 435 rlineto
          7 hlineto
          -63 4 -92 4 -62 vhcurveto
          19 -321 rlineto
          -3 19 19 -1 21 hhcurveto
          22 27 2 5 19 hvcurveto
          -53 680 rlineto
          5 -30 -37 2 -24 hhcurveto
          -23 -32 -2 -5 -30 hvcurveto
          -76 -277 -7 -28 -25 -103 -6 -40 rlinecurve
          -7 hlineto
          -6 40 -25 103 -7 28 -77 277 rcurveline
          5 -28 -33 2 -24 hhcurveto
          -23 -38 -2 -5 -29 hvcurveto
          endchar
        </CharString>
        <CharString name="N">
          51 callsubr
          hstem
          83 125 273 124 vstem
          598 689 rmoveto
          -43 hlineto
          -53 -21 -23 -60 hvcurveto
          -183 vlineto
          -69 4 -118 6 -87 vhcurveto
          -3 -1 -65 148 -182 387 rlineto
          4 -28 -33 3 callsubr
          -16 -42 -2 -5 -21 hvcurveto
          -681 23 callsubr
          26 78 callsubr
          22 -53 callsubr
          254 vlineto
          78 -5 117 -6 77 vhcurveto
          4 1 16 -41 21 -48 23 -51 rlinecurve
          184 -387 rlineto
          -4 28 34 78 callsubr
          42 2 5 22 hvcurveto
          680 vlineto
          endchar
        </CharString>
        <CharString name="Nacute">
          51 callsubr
          39 4 callgsubr
          83 125 26 267 -20 -85 callgsubr
          hintmask 01010000
          -371 110 -84 callsubr
        </CharString>
        <CharString name="Ncaron">
          51 callsubr
          49 38 callgsubr
          83 125 -34 343 -36 -85 callgsubr
          hintmask 01010000
          -377 224 -92 callsubr
        </CharString>
        <CharString name="Ntilde">
          51 callsubr
          52 102 hstemhm
          83 125 -52 382 -57 -85 callgsubr
          hintmask 00000000
          -252 76 -66 callgsubr
          hintmask 01010000
          -71 callsubr
        </CharString>
        <CharString name="O">
          -6 callgsubr
          hstem
          42 141 296 141 vstem
          -103 callgsubr
          endchar
        </CharString>
        <CharString name="OE">
          380 -1 113 177 -14 callgsubr
          hstem
          42 139 248 130 vstem
          873 112 -60 callsubr
          117 65 vlineto
          170 hlineto
          5 -30 callgsubr
          -5 17 vhcurveto
          -170 hlineto
          -15 -25 -63 callgsubr
          8 20 3 15 callgsubr
          0 14 callsubr
          -380 hlineto
          6 -42 -51 8 -45 hhcurveto
          -86 -53 -25 -36 -44 hvcurveto
          -81 -69 -27 -118 -107 vvcurveto
          -107 27 -119 81 -69 vhcurveto
          -36 44 53 -25 86 hhcurveto
          44 52 7 6 41 hvcurveto
          315 hlineto
          48 30 21 43 31 callgsubr
          0 22 11 vvcurveto
          -541 -21 rmoveto
          -127 -24 138 113 113 24 137 128 31 34 -6 -9 31 hvcurveto
          -472 vlineto
          -8 -31 -34 -6 -32 hhcurveto
          endchar
        </CharString>
        <CharString name="Oacute">
          -6 callgsubr
          42 callgsubr
          35 267 -6 -94 callgsubr
          hintmask 00101000
          176 450 -84 callsubr
        </CharString>
        <CharString name="Ocircumflex">
          -6 callgsubr
          29 178 22 callgsubr
          -26 341 -19 -94 callgsubr
          hintmask 00101000
          403 394 -84 callgsubr
        </CharString>
        <CharString name="Odieresis">
          -6 callgsubr
          53 106 22 callgsubr
          -18 13 callsubr
          -18 141 hintmask 11010010
          -103 callgsubr
          hintmask 00101100
          401 514 -106 callsubr
        </CharString>
        <CharString name="Ograve">
          -6 callgsubr
          42 callgsubr
          5 267 24 -94 callgsubr
          hintmask 00101000
          200 579 -58 callsubr
        </CharString>
        <CharString name="Oslash">
          138 -14 101 509 101 hstem
          42 136 309 136 vstem
          42 342 rmoveto
          -99 24 -108 66 -71 vhcurveto
          -46 -81 18 -23 36 -19 30 -4 rlinecurve
          41 71 rlineto
          -13 33 38 -9 50 hhcurveto
          86 54 25 36 43 hvcurveto
          80 70 28 118 107 vvcurveto
          98 -24 107 -66 71 vhcurveto
          47 84 -19 23 -35 19 -31 4 rlinecurve
          -42 -73 rlineto
          14 -33 -39 8 -49 hhcurveto
          -85 -54 -25 -36 -43 hvcurveto
          -81 -70 -27 -117 -107 vvcurveto
          136 hmoveto
          114 26 140 128 27 23 -7 -11 19 vhcurveto
          -202 -388 rlineto
          -16 46 -5 56 50 vvcurveto
          309 hmoveto
          -114 -26 -141 -129 -27 -23 6 11 -19 vhcurveto
          202 388 rlineto
          17 -46 5 -54 -50 vvcurveto
          endchar
        </CharString>
        <CharString name="Otilde">
          -6 callgsubr
          51 101 22 callgsubr
          -49 384 -39 -94 callgsubr
          hintmask 00000000
          290 423 rmoveto
          -9 17 22 -8 25 hhcurveto
          49 42 31 50 22 hvcurveto
          9 18 rlineto
          23 -10 -29 17 -26 -18 callsubr
          -13 -12 -8 -14 hhcurveto
          -11 -11 4 5 -11 hvcurveto
          hintmask 00101000
          -51 25 rlineto
          9 -17 -23 7 -23 hhcurveto
          -52 -41 -32 -47 -21 hvcurveto
          -9 -20 9 -23 31 -16 25 -30 callsubr
          13 13 8 13 hhcurveto
          12 11 -4 -5 10 hvcurveto
          endchar
        </CharString>
        <CharString name="P">
          52 227 104 252 105 65 callgsubr
          546 457 rmoveto
          156 -99 75 -138 -72 -67 -32 callgsubr
          18 hhcurveto
          19 27 1 4 21 hvcurveto
          227 92 vlineto
          138 99 79 151 hvcurveto
          -329 127 rmoveto
          -1 30 29 0 25 hhcurveto
          89 18 -72 -54 -53 -18 -73 -89 -15 -36 -1 -1 -33 hvcurveto
          endchar
        </CharString>
        <CharString name="Q">
          135 -137 97 26 106 500 105 hstemhm
          42 139 298 139 hintmask 00000000
          hintmask 11111000
          444 -103 rmoveto
          -20 24 28 -14 40 hhcurveto
          45 40 35 62 2 hvcurveto
          -38 -31 10 41 -57 hvcurveto
          -24 17 22 9 20 14 19 21 rlinecurve
          67 68 17 104 97 vvcurveto
          107 -25 119 -81 69 vhcurveto
          37 -43 -53 24 -86 hhcurveto
          -85 -54 -24 -37 -42 hvcurveto
          -82 -69 -25 -119 -106 vvcurveto
          hintmask 01111000
          -106 25 -119 82 -70 vhcurveto
          -37 43 55 -24 85 hhcurveto
          4 hlineto
          -155 356 rmoveto
          114 22 136 127 128 21 -136 -114 -114 -21 -136 -128 -127 -22 136 114 vhcurveto
          endchar
        </CharString>
        <CharString name="R">
          43 callgsubr
          hstem
          83 133 199 138 vstem
          -99 callgsubr
          endchar
        </CharString>
        <CharString name="Racute">
          43 callgsubr
          40 4 callgsubr
          83 133 -28 267 -40 -69 callgsubr
          -28 426 -84 callsubr
        </CharString>
        <CharString name="Rcaron">
          43 callgsubr
          50 38 callgsubr
          83 133 -88 343 -56 -69 callgsubr
          -34 540 -92 callsubr
        </CharString>
        <CharString name="Rcommaaccent">
          81 -23 callgsubr
          314 107 216 103 hstemhm
          83 133 61 117 21 138 hintmask 00011101
          -99 callgsubr
          hintmask 11100010
          167 -425 -93 callsubr
        </CharString>
        <CharString name="S">
          27 callsubr
          hstem
          47 137 198 141 vstem
          -83 callgsubr
          endchar
        </CharString>
        <CharString name="Sacute">
          27 callsubr
          31 4 callgsubr
          47 137 -11 267 -58 -64 callgsubr
          151 732 -84 callsubr
        </CharString>
        <CharString name="Scaron">
          27 callsubr
          41 38 callgsubr
          47 137 -71 343 -74 -64 callgsubr
          145 846 -92 callsubr
        </CharString>
        <CharString name="T">
          -26 571 112 hstem
          184 62 callgsubr
          -52 callsubr
          endchar
        </CharString>
        <CharString name="Tcaron">
          -26 571 112 55 38 callgsubr
          78 343 -237 135 hintmask 10010000
          -52 callsubr
          hintmask 01100000
          -52 408 -92 callsubr
        </CharString>
        <CharString name="Thorn">
          54 140 105 237 104 65 callgsubr
          83 hmoveto
          -13 callgsubr
          140 90 vlineto
          138 101 72 152 156 -101 66 -138 hvcurveto
          -31 -29 -1 -30 hhcurveto
          98 -15 callsubr
          216 -201 rmoveto
          89 20 -65 -53 -54 -20 -65 -89 -14 -35 0 -1 -33 hvcurveto
          239 vlineto
          34 33 -1 15 hhcurveto
          endchar
        </CharString>
        <CharString name="U">
          47 callgsubr
          hstem
          74 134 255 33 callgsubr
          -96 callsubr
          endchar
        </CharString>
        <CharString name="Uacute">
          41 callgsubr
          13 267 -25 -73 callsubr
          -376 546 -84 callsubr
        </CharString>
        <CharString name="Ucircumflex">
          47 callgsubr
          633 38 callgsubr
          74 134 -48 341 -38 -73 callsubr
          -149 490 -84 callgsubr
        </CharString>
        <CharString name="Udieresis">
          47 callgsubr
          657 106 hstemhm
          74 134 -40 13 callsubr
          -37 134 hintmask 10100100
          -96 callsubr
          hintmask 01011000
          -151 610 -106 callsubr
        </CharString>
        <CharString name="Ugrave">
          41 callgsubr
          -17 267 5 -73 callsubr
          -352 675 -58 callsubr
        </CharString>
        <CharString name="Uring">
          47 callgsubr
          571 68 105 68 hstemhm
          74 134 -5 81 100 81 -2 134 hintmask 10010010
          -96 callsubr
          hintmask 01101100
          -394 538 -20 callgsubr
        </CharString>
        <CharString name="V">
          64 -5 120 hstemhm
          14 565 57 callgsubr
          308 115 rmoveto
          -5 -2 2 9 -2 hvcurveto
          -11 56 -15 67 -15 54 -90 322 rcurveline
          47 -12 -21 19 -39 hhcurveto
          -30 -27 -9 -11 -25 hvcurveto
          175 -614 rlineto
          -54 15 32 -8 44 hhcurveto
          35 39 1 4 32 hvcurveto
          193 671 -6 8 rlineto
          6 -18 -26 3 -17 hhcurveto
          -19 -21 0 -5 -19 hvcurveto
          endchar
        </CharString>
        <CharString name="W">
          351 -5 117 425 132 hstem
          22 832 vstem
          144 57 rmoveto
          -55 11 33 -7 43 hhcurveto
          36 45 2 4 32 hvcurveto
          53 297 13 74 15 91 10 74 rlinecurve
          8 hlineto
          8 -74 14 -93 12 -72 41 -241 rcurveline
          -55 8 34 -7 40 hhcurveto
          35 50 2 4 31 hvcurveto
          138 670 -7 8 rlineto
          6 -18 -25 3 -20 hhcurveto
          -19 -22 9 callgsubr
          -66 -361 -11 -61 -15 -92 -7 -57 rlinecurve
          -5 -3 0 12 -2 hvcurveto
          -87 545 rlineto
          5 -25 -35 2 -26 hhcurveto
          -26 -34 -2 -5 -27 hvcurveto
          -95 -557 rlineto
          -7 -1 0 12 -2 hvcurveto
          -5 48 -14 90 -10 58 -52 298 rcurveline
          56 -9 -19 17 -46 hhcurveto
          -24 -26 -6 -10 -22 hvcurveto
          endchar
        </CharString>
        <CharString name="X">
          75 662 -20 hstem
          13 576 vstem
          439 683 rmoveto
          -129 -214 -105 170 rlineto
          39 -25 -23 14 -36 hhcurveto
          -28 -33 -11 -19 -27 hvcurveto
          190 -307 -210 -341 4 -8 rlineto
          -6 18 27 -5 26 hhcurveto
          22 21 2 3 14 hvcurveto
          146 244 124 -199 rlineto
          -40 26 24 -14 36 hhcurveto
          28 33 11 19 27 hvcurveto
          -211 338 190 310 -3 8 rlineto
          6 -17 -27 5 -26 hhcurveto
          -23 -20 -2 -3 -13 hvcurveto
          endchar
        </CharString>
        <CharString name="Y">
          -4 -5 696 hstem
          195 33 callgsubr
          316 -78 callsubr
          endchar
        </CharString>
        <CharString name="Yacute">
          -12 -5 696 37 4 callgsubr
          148 267 -225 134 hintmask 10010000
          311 -78 callsubr
          hintmask 01100000
          -242 109 -84 callsubr
        </CharString>
        <CharString name="Ydieresis">
          -12 -5 696 59 106 hstemhm
          95 111 -16 134 -8 111 hintmask 10010000
          311 -78 callsubr
          hintmask 01101000
          -17 173 -106 callsubr
        </CharString>
        <CharString name="Z">
          7 callgsubr
          hstem
          42 487 vstem
          -96 callgsubr
          endchar
        </CharString>
        <CharString name="Zacute">
          7 callgsubr
          45 4 callgsubr
          42 487 -356 267 -87 callgsubr
          -123 316 -84 callsubr
        </CharString>
        <CharString name="Zcaron">
          7 callgsubr
          55 38 callgsubr
          42 487 -416 343 -87 callgsubr
          -129 430 -92 callsubr
        </CharString>
        <CharString name="Zdotaccent">
          7 callgsubr
          74 103 hstemhm
          42 487 -318 140 -87 callgsubr
          -85 332 -34 callgsubr
        </CharString>
        <CharString name="a">
          7 callsubr
          hstem
          36 129 150 130 vstem
          -97 callgsubr
          endchar
        </CharString>
        <CharString name="a.smcp">
          -12 callgsubr
          hstem
          85 callsubr
          vstem
          -106 callgsubr
          endchar
        </CharString>
        <CharString name="aacute">
          7 callsubr
          31 216 49 callgsubr
          -2 234 -82 130 hintmask 11101010
          -97 callgsubr
          hintmask 00010100
          -58 506 -98 callsubr
        </CharString>
        <CharString name="aacute.smcp">
          25 callgsubr
          -353 234 -102 callgsubr
          hintmask 00101000
          -4 430 -98 callsubr
        </CharString>
        <CharString name="acircumflex">
          -17 48 0 97 195 endchar
        </CharString>
        <CharString name="acircumflex.smcp">
          -12 callgsubr
          47 4 callgsubr
          85 callsubr
          -422 308 -102 callgsubr
          hintmask 00101000
          177 388 -89 callgsubr
        </CharString>
        <CharString name="acute">
          539 216 hstem
          113 234 vstem
          113 591 -98 callsubr
        </CharString>
        <CharString name="acute.cap">
          728 193 hstem
          86 267 vstem
          86 792 -84 callsubr
        </CharString>
        <CharString name="adieresis">
          7 callsubr
          65 90 49 callgsubr
          -80 -4 callgsubr
          -86 130 hintmask 11101001
          -97 callgsubr
          hintmask 00010110
          58 533 -107 callgsubr
        </CharString>
        <CharString name="adieresis.smcp">
          -12 callgsubr
          77 90 hstemhm
          85 callsubr
          -430 -4 callgsubr
          -102 callgsubr
          hintmask 00101100
          113 457 -107 callgsubr
        </CharString>
        <CharString name="ae">
          241 -14 99 121 92 -79 86 100 103 -92 94 49 callgsubr
          150 130 162 123 hintmask 00000000
          hintmask 11001111
          719 -26 callgsubr
          -72 92 -131 -56 -45 -22 -33 -34 vhcurveto
          hintmask 10110111
          35 -29 -44 18 -54 hhcurveto
          -63 -85 -19 -26 -62 hvcurveto
          3 -33 12 -39 19 -21 rrcurveto
          19 52 55 16 46 hhcurveto
          48 25 -24 -51 hvcurveto
          -29 vlineto
          3 -29 -31 1 -24 -22 callsubr
          76 60 36 40 39 hvcurveto
          -49 36 55 -27 74 hhcurveto
          70 71 21 36 50 hvcurveto
          -4 26 -13 34 -21 20 rrcurveto
          -20 -41 -44 -15 -48 hhcurveto
          hintmask 11001111
          -76 -21 50 68 -4 hvcurveto
          -224 -121 rmoveto
          -36 -20 26 33 hvcurveto
          hintmask 10101111
          -16 callgsubr
          vhcurveto
          1 -28 5 -26 6 -23 rrcurveto
          hintmask 11001111
          -36 -32 -39 -18 -35 hhcurveto
          306 331 rmoveto
          59 21 -49 -58 hvcurveto
          -11 -162 vlineto
          77 4 25 41 53 hhcurveto
          endchar
        </CharString>
        <CharString name="ae.smcp">
          266 -1 106 8 100 13 102 114 106 hstemhm
          356 124 hintmask 00000000
          hintmask 11111000
          235 113 rmoveto
          85 hlineto
          8 15 0 1 13 hvcurveto
          hintmask 10111000
          -39 vlineto
          -47 27 -29 48 vhcurveto
          239 hlineto
          48 -19 callsubr
          17 11 vvcurveto
          -210 hlineto
          -29 -15 -1 -2 -20 hvcurveto
          1 vlineto
          19 1 15 21 vvcurveto
          68 59 vlineto
          144 hlineto
          6 16 1 21 32 callgsubr
          21 -6 16 vhcurveto
          -144 hlineto
          -13 -23 0 -1 -23 hvcurveto
          61 vlineto
          20 -1 16 18 vvcurveto
          60 hlineto
          190 hlineto
          8 19 3 20 -31 callsubr
          -375 hlineto
          -25 -37 -2 -8 -19 hvcurveto
          -275 -527 5 -7 rlineto
          -7 16 21 -2 22 hhcurveto
          21 18 0 5 20 hvcurveto
          57 114 rlineto
          13 25 -1 12 hhcurveto
          39 178 rmoveto
          21 44 32 66 24 52 rrcurveto
          5 -241 hlineto
          -13 -16 1 -9 hhcurveto
          -46 hlineto
          -10 -15 -1 -13 hhcurveto
          endchar
        </CharString>
        <CharString name="agrave">
          -17 50 0 97 193 endchar
        </CharString>
        <CharString name="agrave.smcp">
          25 callgsubr
          -408 233 -102 callgsubr
          hintmask 00101000
          25 594 -67 callgsubr
        </CharString>
        <CharString name="ampersand">
          113 -14 103 215 112 176 105 hstemhm
          45 137 -108 138 178 129 56 callsubr
          323 416 rmoveto
          hintmask 11101100
          -76 -35 32 58 50 32 36 62 52 49 -12 -15 45 hvcurveto
          22 25 13 42 -1 33 rrcurveto
          18 -51 -74 14 -73 hhcurveto
          -133 -81 -76 -105 -71 41 -59 59 -21 hvcurveto
          hintmask 11110100
          -69 -22 -60 -70 -94 vvcurveto
          -106 67 -87 126 60 57 22 33 41 vhcurveto
          9 -42 rlineto
          -4 15 23 -3 22 hhcurveto
          24 21 3 5 16 hvcurveto
          -3 42 -4 73 41 vvcurveto
          87 vlineto
          16 -1 22 23 vvcurveto
          27 hlineto
          52 33 20 48 23 -6 25 -11 13 hvcurveto
          -11 -26 -38 -6 -37 hhcurveto
          -122 -174 rmoveto
          -110 vlineto
          -21 -24 -42 -22 -51 hhcurveto
          -52 -39 34 67 65 41 49 89 hvcurveto
          79 hlineto
          -1 -23 0 -22 -17 vvcurveto
          endchar
        </CharString>
        <CharString name="ampersand.smcp">
          51 -13 98 152 103 122 100 hstemhm
          40 136 -108 138 143 126 hintmask 00000000
          hintmask 01101100
          299 340 rmoveto
          -63 -30 23 40 33 25 26 53 42 45 -11 -12 41 hvcurveto
          23 24 13 40 -3 33 rrcurveto
          14 -46 -70 12 -60 hhcurveto
          -126 -75 -60 -88 -58 35 -47 53 -17 hvcurveto
          hintmask 11110100
          -62 -17 -54 -56 -76 vvcurveto
          -85 59 -71 112 57 52 19 27 34 vhcurveto
          8 -37 rlineto
          -4 15 22 82 callsubr
          24 26 2 6 15 hvcurveto
          -2 25 -5 50 27 vvcurveto
          79 vlineto
          21 0 18 -1 18 vhcurveto
          15 hlineto
          51 32 15 48 20 -8 26 -9 12 hvcurveto
          -11 -23 -29 -7 -40 hhcurveto
          -114 -158 rmoveto
          -66 vlineto
          -17 -23 -37 -14 -37 hhcurveto
          -42 -34 21 50 50 38 31 73 hvcurveto
          62 hlineto
          endchar
        </CharString>
        <CharString name="aogonek">
          12 -218 84 120 99 134 86 100 103 49 callgsubr
          110 99 -59 130 56 callsubr
          473 34 callsubr
          32 23 25 28 25 hvcurveto
          hintmask 11111010
          26 24 17 23 8 26 rrcurveto
          -21 16 -10 24 -85 callsubr
          hvcurveto
          hintmask 11110100
          66 47 30 34 36 hvcurveto
          7 -12 10 -10 11 -9 rrcurveto
          -41 -30 -47 -51 -59 10 callsubr
          hintmask 11111010
          -252 204 -56 callsubr
          endchar
        </CharString>
        <CharString name="aogonek.smcp">
          33 -218 84 134 -20 128 106 230 104 hstem
          366 99 vstem
          9 10 rmoveto
          -79 callsubr
          -40 callgsubr
          8 -27 13 -15 14 -7 rlinecurve
          -35 -29 -34 -43 -49 10 callsubr
          13 callgsubr
          -26 -19 13 26 39 32 33 52 27 hvcurveto
          3 2 -66 callsubr
          23 -262 -86 callsubr
          endchar
        </CharString>
        <CharString name="aring">
          7 callsubr
          33 69 105 68 49 callgsubr
          -49 81 100 81 -63 130 hintmask 1110010010000000
          -97 callgsubr
          hintmask 0001101100000000
          -105 577 -68 callsubr
        </CharString>
        <CharString name="aring.smcp">
          -12 callgsubr
          45 69 105 68 hstemhm
          85 callsubr
          -399 81 100 81 hintmask 11001000
          -106 callgsubr
          hintmask 00110110
          -50 501 -68 callsubr
        </CharString>
        <CharString name="asciicircum">
          3 548 106 hstem
          36 458 vstem
          335 648 rmoveto
          -31 8 -79 0 -30 -8 -159 -342 rcurveline
          30 -8 63 -1 33 9 64 146 rcurveline
          9 23 18 51 8 22 rrcurveto
          8 hlineto
          8 -22 17 -51 10 -23 64 -146 rcurveline
          33 -9 63 1 30 8 rrcurveto
          endchar
        </CharString>
        <CharString name="asciitilde">
          83 202 120 -52 121 hstemhm
          35 540 hintmask 00000000
          hintmask 01100000
          289 371 rmoveto
          13 -30 -30 7 -27 hhcurveto
          -65 -51 -36 -59 -34 hvcurveto
          -17 -29 13 -29 38 -19 27 -2 rlinecurve
          22 24 rlineto
          19 16 19 10 22 hhcurveto
          15 16 -4 -7 17 hvcurveto
          hintmask 10100000
          81 -37 rlineto
          -13 30 30 -7 27 hhcurveto
          65 51 36 59 34 hvcurveto
          17 29 -13 29 -38 19 -27 2 rlinecurve
          -22 -24 rlineto
          -19 -16 -19 -11 -22 hhcurveto
          -15 -16 5 7 -17 hvcurveto
          endchar
        </CharString>
        <CharString name="asterisk">
          -14 505 57 -1 -20 189 8 hstemhm
          203 106 28 callsubr
          40 534 rmoveto
          58 -16 34 -10 39 -2 36 -1 rlinecurve
          -28 -22 -32 -25 -21 -28 -37 -47 rcurveline
          15 -24 46 -33 27 -6 33 50 rcurveline
          20 29 14 35 12 34 13 -34 13 -36 20 -29 33 -50 rcurveline
          28 7 46 34 13 23 -37 47 rcurveline
          -22 28 -30 24 -28 23 36 1 40 1 33 10 59 17 rcurveline
          2 29 -19 53 -17 20 -57 -21 rcurveline
          -33 -12 -33 -20 -30 -21 9 35 11 38 2 35 2 60 rcurveline
          -26 11 -57 0 -25 -11 2 -60 rcurveline
          hintmask 01110000
          1 -35 11 -38 10 -36 -30 21 -33 22 -33 13 -56 20 rcurveline
          hintmask 10110000
          -19 -21 -17 -55 2 -27 rrcurveto
          endchar
        </CharString>
        <CharString name="at">
          438 -196 100 97 99 -95 96 290 93 101 97 hstemhm
          44 131 111 125 146 122 121 128 hintmask 0000000000000000
          hintmask 1101111110000000
          680 412 rmoveto
          38 -39 -71 34 -74 hhcurveto
          -136 -74 -110 -147 -135 57 -91 104 52 50 28 35 36 hvcurveto
          hintmask 1011111110000000
          -36 27 45 -23 58 hhcurveto
          105 108 91 197 244 -182 145 -247 -264 -191 -193 -266 -283 171 -136 239 81 94 20 28 67 hvcurveto
          29 -12 38 -21 23 vhcurveto
          -25 -62 -68 -13 -70 hhcurveto
          -175 -113 106 213 210 128 152 196 182 119 -111 -177 -148 -41 -48 -43 -26 -11 17 43 hvcurveto
          hintmask 1101111110000000
          -203 -61 rmoveto
          -48 -17 47 85 87 22 72 63 25 21 -9 -14 15 hvcurveto
          -217 vlineto
          -6 vlineto
          -26 -23 -31 -19 -27 hhcurveto
          endchar
        </CharString>
        <CharString name="atilde">
          -17 48 0 97 196 endchar
        </CharString>
        <CharString name="atilde.smcp">
          -12 callgsubr
          59 102 hstemhm
          85 callsubr
          -451 366 -102 callgsubr
          hintmask 00000000
          87 411 -98 callgsubr
        </CharString>
        <CharString name="b">
          4 -8 95 312 107 hstem
          69 127 165 33 callgsubr
          495 255 rmoveto
          146 -59 105 -116 -51 -41 -18 -24 -32 vhcurveto
          191 vlineto
          58 -19 74 callgsubr
          -704 vlineto
          -21 54 66 -12 69 hhcurveto
          138 100 94 169 -1 hvcurveto
          -211 144 rmoveto
          47 30 -43 -103 -107 -37 -59 -65 -23 -20 3 5 -20 hvcurveto
          260 vlineto
          25 29 34 16 29 -1 rrcurveto
          endchar
        </CharString>
        <CharString name="b.smcp">
          30 -4 94 151 93 126 93 hstemhm
          78 129 152 130 -105 134 56 callsubr
          83 549 rmoveto
          -5 -6 rlineto
          -539 vlineto
          5 -5 rlineto
          -1 76 64 -2 71 hhcurveto
          140 84 48 114 63 -47 57 -60 17 hvcurveto
          hintmask 11111000
          48 17 30 47 49 vvcurveto
          101 -80 44 -128 vhcurveto
          hintmask 11110100
          -63 -79 -2 -2 -56 hvcurveto
          202 -308 rmoveto
          77 22 -42 -35 -33 -16 -41 -75 -27 -29 0 -1 -30 hvcurveto
          152 vlineto
          220 vmoveto
          hintmask 11111000
          -1 22 30 0 17 hhcurveto
          66 17 -32 -31 -30 -17 -33 -67 hvcurveto
          -68 hlineto
          endchar
        </CharString>
        <CharString name="backslash">
          -90 -115 880 hstem
          6 427 vstem
          321 -115 rmoveto
          38 4 42 13 32 25 -315 838 rcurveline
          -38 -4 -42 -14 -32 -25 rrcurveto
          endchar
        </CharString>
        <CharString name="bar">
          -264 -147 926 hstem
          70 122 vstem
          70 -141 rmoveto
          -5 19 28 -1 15 hhcurveto
          17 24 1 5 19 hvcurveto
          915 75 callsubr
          -17 hhcurveto
          -15 -28 30 callsubr
          endchar
        </CharString>
        <CharString name="braceleft">
          -154 -175 1002 hstemhm
          37 136 -46 132 57 callsubr
          44 369 rmoveto
          hintmask 11000000
          -9 -21 0 -43 9 -21 rrcurveto
          hintmask 10100000
          47 -11 36 -47 -55 vvcurveto
          -165 vlineto
          -101 64 -56 88 -14 vhcurveto
          59 -10 18 20 12 45 -6 22 rlinecurve
          -55 18 rlineto
          -28 9 -20 26 42 vvcurveto
          162 vlineto
          66 -34 64 -52 24 vhcurveto
          8 vlineto
          52 23 34 64 66 vvcurveto
          162 vlineto
          42 20 26 28 9 vhcurveto
          55 18 6 22 -12 45 -18 19 rlinecurve
          -59 -9 rlineto
          -88 -14 -64 -57 -100 vvcurveto
          -165 vlineto
          -56 -36 -46 -47 -11 vhcurveto
          endchar
        </CharString>
        <CharString name="braceright">
          -154 -175 1002 hstem
          115 132 vstem
          330 369 rmoveto
          -48 11 -35 46 56 vvcurveto
          165 vlineto
          100 -65 57 -88 14 vhcurveto
          -59 9 -18 -19 -11 -45 5 -22 rlinecurve
          55 -18 rlineto
          28 -9 21 -26 -42 vvcurveto
          -162 vlineto
          -66 33 -64 53 -23 vhcurveto
          -8 vlineto
          -53 -24 -33 -64 -66 vvcurveto
          -162 vlineto
          -42 -21 -26 -28 -9 vhcurveto
          -55 -18 -5 -22 11 -45 18 -20 rlinecurve
          59 10 rlineto
          88 14 65 56 101 vvcurveto
          165 vlineto
          55 35 47 48 11 vhcurveto
          8 21 0 43 -8 21 rrcurveto
          endchar
        </CharString>
        <CharString name="bracketleft">
          64 callsubr
          99 83 callgsubr
          334 -149 rmoveto
          3 10 1 17 10 vvcurveto
          21 -5 22 -5 11 vhcurveto
          -101 3 rlineto
          775 vlineto
          101 3 rlineto
          5 11 5 22 21 vvcurveto
          10 -1 17 -3 10 vhcurveto
          -227 8 -8 -7 rlineto
          -965 vlineto
          8 -7 rlineto
          endchar
        </CharString>
        <CharString name="bracketright">
          64 callsubr
          143 83 callgsubr
          263 -157 rmoveto
          8 7 rlineto
          965 vlineto
          -8 7 -226 -8 rlineto
          -4 -10 -1 -17 -10 vvcurveto
          -21 6 -22 4 -11 vhcurveto
          101 -3 rlineto
          -775 vlineto
          -101 -3 rlineto
          -4 -11 -6 -22 -21 vvcurveto
          -10 1 -17 4 -10 vhcurveto
          endchar
        </CharString>
        <CharString name="brokenbar">
          -270 -147 926 hstem
          68 121 vstem
          68 -141 rmoveto
          -7 callsubr
          141 vmoveto
          -7 callsubr
          endchar
        </CharString>
        <CharString name="bullet">
          -72 177 186 hstem
          102 238 vstem
          102 271 rmoveto
          -20 5 -49 11 -25 vhcurveto
          -17 27 47 -10 38 hhcurveto
          36 48 10 17 26 hvcurveto
          11 25 4 49 20 vvcurveto
          20 -4 47 -11 25 vhcurveto
          15 -27 -47 12 -36 hhcurveto
          -38 -47 -12 -15 -27 hvcurveto
          -11 -25 -5 -47 -20 vvcurveto
          endchar
        </CharString>
        <CharString name="c">
          -54 -14 104 322 98 hstem
          37 134 153 118 vstem
          -49 callgsubr
          endchar
        </CharString>
        <CharString name="c.smcp">
          44 callsubr
          hstem
          36 136 218 125 vstem
          -74 callgsubr
          endchar
        </CharString>
        <CharString name="cacute">
          -54 54 0 99 194 endchar
        </CharString>
        <CharString name="cacute.smcp">
          44 callsubr
          42 callsubr
          36 234 -52 125 hintmask 11010100
          -74 callgsubr
          hintmask 00101000
          -182 327 -98 callsubr
        </CharString>
        <CharString name="caron">
          552 99 0 -20 hstemhm
          45 310 hintmask 00000000
          hintmask 01100000
          104 740 -48 callsubr
          hintmask 10100000
          -91 callsubr
        </CharString>
        <CharString name="caron.alt">
          -82 556 9 208 21 hstem
          195 125 vstem
          195 565 -17 callgsubr
        </CharString>
        <CharString name="caron.cap">
          738 178 hstem
          26 343 vstem
          80 906 -92 callsubr
        </CharString>
        <CharString name="ccaron">
          -54 -14 104 322 98 141 -20 61 callgsubr
          -73 310 -84 118 hintmask 11010100
          -49 callgsubr
          hintmask 00000000
          -167 450 -92 callgsubr
        </CharString>
        <CharString name="ccaron.smcp">
          44 callsubr
          141 -20 15 callsubr
          -33 310 -59 125 hintmask 11010100
          -74 callgsubr
          hintmask 00000000
          -192 476 -92 callgsubr
        </CharString>
        <CharString name="ccedilla">
          -54 6 callgsubr
          446 98 61 callgsubr
          98 101 -46 118 hintmask 00000000
          hintmask 01111100
          190 -76 rmoveto
          4 -8 8 -8 8 -4 rrcurveto
          2 7 7 2 8 hhcurveto
          24 13 -15 -19 hvcurveto
          hintmask 10111100
          51 callgsubr
          -18 6 7 -12 vhcurveto
          hintmask 01111100
          -13 -15 -9 -8 callsubr
          60 8 56 27 38 38 -24 callgsubr
          hvcurveto
          hintmask 01111010
          62 12 -51 -71 -1 hvcurveto
          -22 callgsubr
          -135 56 -104 118 72 callgsubr
          -5 -18 rrcurveto
          endchar
        </CharString>
        <CharString name="ccedilla.smcp">
          15 6 callgsubr
          21 109 362 104 15 callsubr
          137 101 -20 125 hintmask 00000000
          hintmask 01101110
          230 11 callgsubr
          7 7 2 8 hhcurveto
          24 13 -15 -19 hvcurveto
          hintmask 10101110
          51 callgsubr
          -18 6 7 -12 vhcurveto
          hintmask 01101110
          -14 -15 -8 -24 -1 -21 rrcurveto
          hintmask 10101110
          -21 callgsubr
          8 rrcurveto
          hintmask 01111110
          77 9 63 32 45 40 -46 callgsubr
          hvcurveto
          hintmask 01111101
          80 21 -62 -80 hvcurveto
          -44 callsubr
          -132 53 -139 161 -14 hvcurveto
          hintmask 01101110
          -8 -20 -8 -26 -4 -17 rrcurveto
          endchar
        </CharString>
        <CharString name="cedilla">
          6 callgsubr
          -58 92 hstemhm
          219 101 hintmask 00000000
          hintmask 01011000
          140 5 callsubr
          hintmask 10011000
          51 callgsubr
          -19 6 7 -11 vhcurveto
          hintmask 01011000
          -14 -15 -9 -24 -1 -21 rrcurveto
          hintmask 10101000
          -12 18 -20 callsubr
          hintmask 01011000
          4 11 7 14 5 9 rrcurveto
          -73 hlineto
          -9 -20 -12 -35 -5 -21 rrcurveto
          endchar
        </CharString>
        <CharString name="cent">
          -62 -32 200 321 192 hstem
          195 97 vstem
          195 -32 rmoveto
          -3 12 26 0 10 hhcurveto
          12 24 0 3 13 hvcurveto
          98 vlineto
          55 11 52 28 32 37 -6 26 -24 32 -21 14 rrcurveto
          -25 -33 -40 -21 -40 hhcurveto
          -61 -38 42 114 111 23 54 53 61 13 -62 -59 -1 hvcurveto
          -4 15 19 -2 14 hhcurveto
          47 23 24 49 66 -51 66 -89 17 hvcurveto
          97 vlineto
          4 -13 -24 1 -12 hhcurveto
          -10 71 callgsubr
          -12 hvcurveto
          -99 vlineto
          -89 -21 -76 -79 -158 vvcurveto
          -113 37 -119 125 -25 vhcurveto
          endchar
        </CharString>
        <CharString name="cent.smcp">
          -107 -30 173 359 -20 hstemhm
          172 94 hintmask 00000000
          hintmask 11100000
          172 -30 rmoveto
          -3 12 24 -1 11 hhcurveto
          10 23 0 4 14 hvcurveto
          77 vlineto
          47 8 47 22 31 30 -7 26 -21 30 -21 14 rrcurveto
          -19 -30 -37 -15 -34 hhcurveto
          -55 -32 40 86 98 22 41 43 48 12 -40 -68 hvcurveto
          -4 13 20 -2 13 hhcurveto
          46 22 23 47 71 -48 52 -77 15 hvcurveto
          80 vlineto
          2 -14 -23 1 -9 hhcurveto
          -11 -24 -1 -2 -12 hvcurveto
          -82 vlineto
          -79 -19 -67 -70 -138 vvcurveto
          -96 33 -104 110 -25 vhcurveto
          endchar
        </CharString>
        <CharString name="circumflex">
          543 193 hstem
          45 308 vstem
          295 549 -89 callgsubr
        </CharString>
        <CharString name="circumflex.cap">
          726 178 hstem
          25 341 vstem
          313 736 -84 callgsubr
        </CharString>
        <CharString name="colon">
          -245 6 111 208 111 hstemhm
          60 151 hintmask 10100000
          60 62 rmoveto
          -75 callsubr
          hintmask 01100000
          319 vmoveto
          -75 callsubr
          endchar
        </CharString>
        <CharString name="comma">
          -244 -8 124 hstem
          74 149 vstem
          211 -43 callsubr
          endchar
        </CharString>
        <CharString name="commaaccent">
          -41 callgsubr
        </CharString>
        <CharString name="commaaccent.cap">
          -41 callgsubr
        </CharString>
        <CharString name="copyright">
          268 -21 89 78 81 234 77 77 89 hstem
          36 102 87 105 124 95 109 102 vstem
          36 341 rmoveto
          -204 157 -158 204 204 159 158 204 204 -159 159 -204 -204 -157 -159 -204 vhcurveto
          102 hmoveto
          151 107 123 152 152 109 -123 -151 -151 -109 -122 -152 -152 -107 122 151 vhcurveto
          316 31 rmoveto
          -4 10 16 -2 13 hhcurveto
          38 18 20 34 61 -58 57 -91 -84 -91 -55 -141 -103 47 -93 126 52 61 25 33 32 hvcurveto
          -4 21 -17 27 -18 11 rrcurveto
          -19 -27 -34 -17 -28 hhcurveto
          -54 -31 39 76 78 23 41 43 47 13 -46 -43 -2 hvcurveto
          endchar
        </CharString>
        <CharString name="currency">
          56 116 97 242 97 hstem
          65 130 192 129 vstem
          65 334 rmoveto
          -45 11 -41 21 -33 vhcurveto
          -70 -77 16 -27 26 -26 26 -15 rlinecurve
          81 72 rlineto
          -17 33 38 -9 43 hhcurveto
          43 39 9 17 33 hvcurveto
          81 -73 28 17 25 25 15 26 rlinecurve
          -71 78 rlineto
          21 33 12 40 46 vvcurveto
          44 -11 40 -20 33 vhcurveto
          71 80 -16 26 -26 26 -26 16 rlinecurve
          -82 -74 rlineto
          17 -33 -39 10 -44 hhcurveto
          -43 -40 -10 -17 -33 hvcurveto
          -79 72 -26 -16 -28 -26 -14 -26 rlinecurve
          70 -77 rlineto
          -21 -33 -11 -40 -45 vvcurveto
          130 hmoveto
          66 30 55 65 67 30 -55 -66 -66 -30 -55 -67 -65 -30 57 64 vhcurveto
          endchar
        </CharString>
        <CharString name="currency.smcp">
          -52 101 73 186 89 hstem
          46 121 140 120 vstem
          46 267 rmoveto
          -36 8 -32 15 -27 vhcurveto
          -57 -64 17 -26 25 -27 26 -14 rlinecurve
          69 60 rlineto
          -11 25 30 -6 32 hhcurveto
          32 30 5 12 26 hvcurveto
          68 -62 28 17 25 25 15 26 rlinecurve
          -57 64 rlineto
          15 27 9 32 37 vvcurveto
          35 -8 31 -15 26 vhcurveto
          59 67 -17 25 -26 27 -25 15 rlinecurve
          -70 -62 rlineto
          11 -26 -30 7 -33 hhcurveto
          -33 -31 -7 -12 -26 hvcurveto
          -66 60 -26 -15 -28 -25 -14 -26 rlinecurve
          57 -64 rlineto
          -15 -27 -8 -31 -35 vvcurveto
          121 hmoveto
          51 21 42 48 48 23 -42 -51 -52 -23 -41 -48 -48 -21 43 50 vhcurveto
          endchar
        </CharString>
        <CharString name="d">
          7 -14 107 313 100 hstem
          38 133 165 83 callgsubr
          -59 callgsubr
          endchar
        </CharString>
        <CharString name="d.smcp">
          69 -4 103 351 103 hstem
          38 callsubr
          214 62 callgsubr
          -54 callsubr
          endchar
        </CharString>
        <CharString name="dcaron">
          105 -14 107 313 100 47 9 208 21 hstemhm
          38 133 165 128 60 125 hintmask 11001100
          -59 callgsubr
          hintmask 00110010
          278 469 -17 callgsubr
        </CharString>
        <CharString name="dcaron.smcp">
          69 -4 103 351 103 150 -20 45 callsubr
          -78 310 -18 135 hintmask 11010100
          -54 callsubr
          hintmask 00000000
          -233 519 -92 callgsubr
        </CharString>
        <CharString name="degree">
          -188 365 84 140 84 hstem
          16 94 118 95 vstem
          16 519 rmoveto
          -90 65 -64 89 88 65 64 90 90 -65 64 -88 -89 -65 -64 -90 vhcurveto
          94 hmoveto
          42 23 28 37 35 23 -28 -42 -42 -23 -28 -35 -37 -23 28 42 vhcurveto
          endchar
        </CharString>
        <CharString name="dieresis">
          573 90 hstem
          37 -4 callgsubr
          vstem
          231 618 -107 callgsubr
        </CharString>
        <CharString name="dieresis.cap">
          750 106 hstem
          33 13 callsubr
          vstem
          311 856 -106 callsubr
        </CharString>
        <CharString name="divide">
          3 70 95 78 108 76 95 hstem
          195 129 vstem
          195 475 rmoveto
          -16 4 -19 6 -13 25 callsubr
          13 3 19 16 vvcurveto
          15 -3 20 -7 12 vhcurveto
          8 -12 -26 6 -21 hhcurveto
          -22 -24 -6 -8 -14 hvcurveto
          -6 -12 -4 -19 -16 vvcurveto
          -358 vmoveto
          -15 4 -20 6 -12 25 callsubr
          12 3 20 39 callgsubr
          -3 20 -7 12 vhcurveto
          8 -12 -26 5 -21 hhcurveto
          -22 -24 -5 -8 -14 hvcurveto
          -6 -12 -4 -20 -16 vvcurveto
          281 126 rmoveto
          4 17 1 23 13 69 callsubr
          23 61 callsubr
          -422 hlineto
          -4 -18 -1 -23 -14 vvcurveto
          -13 1 -23 4 -17 vhcurveto
          endchar
        </CharString>
        <CharString name="dollar">
          -22 -40 179 365 185 hstemhm
          198 98 -94 98 35 138 hintmask 00000000
          hintmask 11011000
          27 96 rmoveto
          hintmask 11101000
          34 -23 64 -26 73 -10 rrcurveto
          -77 vlineto
          -3 12 26 0 11 hhcurveto
          12 24 0 3 13 hvcurveto
          75 vlineto
          106 13 71 63 89 vvcurveto
          84 -57 54 -79 29 vhcurveto
          -94 35 rlineto
          -35 13 -22 11 27 vvcurveto
          32 26 19 43 44 59 -17 -23 53 vhcurveto
          27 23 19 41 38 vvcurveto
          -42 19 -52 18 -63 6 rrcurveto
          80 vlineto
          3 -13 -24 1 -12 hhcurveto
          -11 -26 -1 -3 -12 hvcurveto
          -81 vlineto
          -90 -16 -61 -63 -85 vvcurveto
          -77 52 -48 77 -29 vhcurveto
          97 -35 rlineto
          38 -13 20 -24 -26 vvcurveto
          -34 -34 -19 -45 -67 -63 29 26 -49 vhcurveto
          -26 -16 -23 -48 -1 -34 rrcurveto
          endchar
        </CharString>
        <CharString name="dollar.smcp">
          -77 -33 159 298 159 hstemhm
          175 93 -90 93 hintmask 00000000
          hintmask 11010000
          23 78 rmoveto
          hintmask 11100000
          30 -20 56 -23 66 -8 rrcurveto
          -60 vlineto
          -3 12 24 -1 11 hhcurveto
          10 24 1 3 12 hvcurveto
          60 vlineto
          91 12 64 49 84 vvcurveto
          71 -50 47 -77 28 vhcurveto
          -78 28 rlineto
          -26 10 -20 9 20 vvcurveto
          24 20 15 36 42 52 -15 -21 43 vhcurveto
          27 21 16 33 2 40 -38 18 -49 15 -52 6 rrcurveto
          62 vlineto
          4 -12 -24 1 -10 hhcurveto
          -10 -25 -1 -4 -12 hvcurveto
          -65 vlineto
          -82 -16 -53 -53 -75 vvcurveto
          -71 53 -39 64 -24 vhcurveto
          85 -31 rlineto
          34 -12 11 -16 -17 vvcurveto
          -26 -24 -12 -37 -56 -59 22 23 -44 vhcurveto
          -25 -17 -20 -43 -2 -33 rrcurveto
          endchar
        </CharString>
        <CharString name="dotaccent">
          585 104 72 callsubr
          637 -90 callsubr
          endchar
        </CharString>
        <CharString name="dotaccent.cap">
          757 103 72 callsubr
          808 -34 callgsubr
        </CharString>
        <CharString name="dotlessi">
          -242 403 97 -5 -20 hstemhm
          87 45 callgsubr
          hintmask 01100000
          218 395 rmoveto
          hintmask 10100000
          -94 callsubr
          endchar
        </CharString>
        <CharString name="dotlessj">
          -235 6 callsubr
          hstemhm
          96 128 28 callsubr
          224 395 rmoveto
          hintmask 11010000
          -82 callsubr
          endchar
        </CharString>
        <CharString name="e">
          -29 -14 17 callgsubr
          hstem
          37 132 166 122 vstem
          -77 callgsubr
          endchar
        </CharString>
        <CharString name="e.smcp">
          -7 -19 callgsubr
          hstem
          78 53 callsubr
          -104 callsubr
          endchar
        </CharString>
        <CharString name="eacute">
          -29 -14 17 callgsubr
          29 19 callsubr
          37 132 1 234 -69 122 hintmask 11101010
          -77 callgsubr
          hintmask 00010100
          -83 175 -98 callsubr
        </CharString>
        <CharString name="eacute.smcp">
          20 callsubr
          -19 234 -101 callgsubr
          hintmask 00010100
          -290 537 -98 callsubr
        </CharString>
        <CharString name="ecaron">
          -29 56 0 101 207 endchar
        </CharString>
        <CharString name="ecaron.smcp">
          -7 -19 callgsubr
          155 -20 45 callsubr
          -88 310 -101 callgsubr
          hintmask 00000000
          -300 686 -48 callsubr
          hintmask 00010100
          -91 callsubr
        </CharString>
        <CharString name="ecircumflex">
          -29 56 0 101 195 endchar
        </CharString>
        <CharString name="ecircumflex.smcp">
          -7 -19 callgsubr
          47 193 45 callsubr
          -88 308 -101 callgsubr
          hintmask 00010100
          -109 495 -89 callgsubr
        </CharString>
        <CharString name="edieresis">
          -29 -14 17 callgsubr
          63 90 hstemhm
          37 132 -76 -4 callgsubr
          -74 122 hintmask 11101001
          -77 callgsubr
          hintmask 00010110
          34 202 -107 callgsubr
        </CharString>
        <CharString name="edieresis.smcp">
          -7 -19 callgsubr
          77 90 45 callsubr
          -96 -4 callgsubr
          -101 callgsubr
          hintmask 00010110
          -173 564 -107 callgsubr
        </CharString>
        <CharString name="egrave">
          -29 57 0 101 193 endchar
        </CharString>
        <CharString name="egrave.smcp">
          20 callsubr
          -73 233 -101 callgsubr
          hintmask 00010100
          -260 701 -67 callgsubr
        </CharString>
        <CharString name="eight">
          3 -14 92 490 94 hstemhm
          35 132 -116 129 170 127 -116 134 hintmask 00000000
          hintmask 11100100
          35 164 rmoveto
          -112 89 -66 135 130 105 69 116 1 vhcurveto
          83 -45 57 -68 38 vhcurveto
          hintmask 11011000
          52 29 43 48 65 vvcurveto
          100 -84 71 -128 -123 -91 -75 -99 -70 36 -48 60 -36 vhcurveto
          hintmask 11100100
          -61 -35 -51 -60 -75 vvcurveto
          201 130 rmoveto
          22 -8 rlineto
          60 -21 43 -38 -55 vvcurveto
          -54 -39 -40 -58 -57 -40 37 58 43 21 45 47 33 vhcurveto
          hintmask 11011000
          -55 195 rmoveto
          46 36 33 48 50 36 -33 -49 -39 -21 -35 -37 -24 vhcurveto
          -13 5 rlineto
          -61 19 -38 29 48 vvcurveto
          endchar
        </CharString>
        <CharString name="eight.smcp">
          -45 -14 88 399 89 hstemhm
          33 126 -110 124 137 122 -112 129 hintmask 00000000
          hintmask 11100100
          33 132 rmoveto
          -89 80 -57 123 118 95 56 111 64 -36 46 -57 34 vhcurveto
          hintmask 11011000
          41 22 35 39 57 vvcurveto
          86 -74 61 -117 -113 -79 -70 -86 -57 31 -41 54 -32 vhcurveto
          hintmask 11100100
          -52 -25 -49 -50 -69 vvcurveto
          203 101 rmoveto
          44 -16 40 -28 -46 vvcurveto
          -38 -29 -31 -51 -50 -31 28 40 33 18 36 49 25 vhcurveto
          hintmask 11011000
          -53 179 rmoveto
          31 26 27 42 45 24 -28 -33 -26 -13 -29 -31 -21 vhcurveto
          -13 5 rlineto
          -50 19 -30 20 35 vvcurveto
          endchar
        </CharString>
        <CharString name="emdash">
          280 214 102 hstem
          71 666 vstem
          731 24 callgsubr
          -655 60 callgsubr
          -20 -14 vvcurveto
          -14 1 -19 4 -18 vhcurveto
          endchar
        </CharString>
        <CharString name="endash">
          17 214 102 hstem
          58 428 vstem
          480 24 callgsubr
          -416 hlineto
          -5 -17 -1 -20 -14 vvcurveto
          -14 1 -19 5 -18 vhcurveto
          endchar
        </CharString>
        <CharString name="eogonek">
          -29 -218 84 120 17 callgsubr
          hstemhm
          37 132 45 99 22 122 hintmask 00000000
          hintmask 11111010
          -58 callgsubr
          vhcurveto
          hintmask 11111110
          6 5 0 1 6 hvcurveto
          -33 -31 -22 -37 -38 vvcurveto
          -62 48 -37 66 45 42 18 20 25 26 callgsubr
          -8 -14 -21 -7 -20 hhcurveto
          -25 -19 13 27 33 24 38 42 32 hvcurveto
          24 9 22 11 19 14 -35 callgsubr
          hintmask 11111010
          -36 callsubr
          endchar
        </CharString>
        <CharString name="eogonek.smcp">
          -7 -218 84 133 108 118 105 110 108 hstem
          38 callsubr
          41 98 vstem
          447 34 callsubr
          34 27 40 58 23 hvcurveto
          0 0 1 1 vhcurveto
          24 9 15 20 5 29 rrcurveto
          2 15 0 19 11 vvcurveto
          -207 hlineto
          85 callgsubr
          -2 -20 hvcurveto
          1 vlineto
          19 1 13 -24 callsubr
          15 1 23 32 callgsubr
          23 -6 16 -31 callgsubr
          59 vlineto
          20 -1 14 18 vvcurveto
          60 hlineto
          188 hlineto
          8 20 -74 callsubr
          163 hlineto
          -39 -29 -28 -41 -49 vvcurveto
          -61 -12 callsubr
          endchar
        </CharString>
        <CharString name="equal">
          3 138 108 103 108 hstem
          49 432 vstem
          476 138 -7 callgsubr
          422 211 -7 callgsubr
          endchar
        </CharString>
        <CharString name="eth">
          -8 -14 97 310 94 hstem
          35 134 179 33 callgsubr
          97 571 rmoveto
          5 -23 20 -26 19 -14 95 65 rcurveline
          30 -30 25 -33 13 -35 rrcurveto
          7 -17 -18 5 -20 hhcurveto
          -58 -47 -19 -34 -37 hvcurveto
          -48 -45 -24 -64 -83 vvcurveto
          -74 18 -73 53 -52 vhcurveto
          -39 40 52 -18 60 hhcurveto
          61 52 18 39 40 hvcurveto
          53 52 18 74 78 vvcurveto
          160 -53 134 -99 96 vhcurveto
          68 47 -6 25 -20 25 -19 13 rlinecurve
          -85 -59 -34 24 -37 21 -41 17 rlinecurve
          -24 -12 -23 -37 -4 -31 24 -13 24 -15 23 -17 rrcurveto
          172 -378 rmoveto
          -87 -16 -77 -73 -74 -16 77 80 90 22 63 69 27 26 -9 -14 23 vhcurveto
          8 -33 4 -38 -52 vvcurveto
          endchar
        </CharString>
        <CharString name="eth.smcp">
          77 -4 99 128 102 128 100 hstem
          86 129 217 62 callgsubr
          567 273 rmoveto
          93 -16 27 callgsubr
          -50 hhcurveto
          -77 -55 -2 -2 -78 hvcurveto
          -6 -6 rlineto
          -218 -66 vlineto
          -4 -18 -1 -16 -17 vvcurveto
          -19 1 -15 4 -17 vhcurveto
          66 -218 hlineto
          6 -6 rlineto
          -2 77 56 -1 77 hhcurveto
          50 74 11 29 41 hvcurveto
          85 59 15 26 callsubr
          -98 -113 vhcurveto
          -32 -23 -1 -31 hhcurveto
          129 111 vlineto
          4 17 1 15 60 callsubr
          13 61 callsubr
          -111 129 hlineto
          -1 31 23 0 32 hhcurveto
          113 18 -99 -81 hvcurveto
          endchar
        </CharString>
        <CharString name="exclam">
          -229 4 121 556 10 hstem
          80 132 vstem
          96 202 rmoveto
          -5 16 23 -1 12 hhcurveto
          14 18 1 5 17 hvcurveto
          30 479 -8 10 rlineto
          -58 -51 -15 -22 -30 hvcurveto
          67 -529 rmoveto
          -24 -25 -6 -9 -17 hvcurveto
          -6 -11 -3 80 callsubr
          3 -26 6 -11 vhcurveto
          -9 17 25 -5 24 hhcurveto
          24 26 5 9 16 hvcurveto
          6 11 4 26 50 callsubr
          6 -24 hhcurveto
          endchar
        </CharString>
        <CharString name="exclamdown">
          -229 -195 9 557 121 hstem
          87 53 callsubr
          202 294 rmoveto
          5 -16 -22 1 -13 hhcurveto
          -14 -18 -1 -5 -17 hvcurveto
          -30 -480 8 -9 rlineto
          58 52 15 21 29 hvcurveto
          -67 530 rmoveto
          24 26 5 10 16 hvcurveto
          6 10 4 27 50 callsubr
          5 -24 hhcurveto
          -24 -25 -5 -9 -16 hvcurveto
          -7 -11 -3 80 callsubr
          3 -27 7 -10 vhcurveto
          -10 16 25 -5 24 hhcurveto
          endchar
        </CharString>
        <CharString name="f">
          -181 404 93 144 99 hstem
          94 83 callgsubr
          94 hmoveto
          -3 20 23 -2 20 hhcurveto
          22 70 callsubr
          20 hvcurveto
          405 vlineto
          127 -2 rlineto
          3 15 2 18 4 callsubr
          -2 16 -3 15 vhcurveto
          -136 -2 rlineto
          -4 24 -2 24 22 vvcurveto
          50 26 26 44 28 31 -8 -6 23 vhcurveto
          18 19 11 38 30 vvcurveto
          12 -33 -54 14 -54 hhcurveto
          -101 -64 -72 -94 -26 3 -26 3 -26 hvcurveto
          -80 1 rlineto
          -3 -15 -2 -16 -15 vvcurveto
          -15 2 -18 37 callgsubr
        </CharString>
        <CharString name="f.smcp">
          -49 215 105 119 109 hstem
          78 132 vstem
          455 548 rmoveto
          -372 hlineto
          -5 -4 rlineto
          -544 vlineto
          0 callsubr
          215 23 vlineto
          169 hlineto
          5 16 1 23 15 69 callsubr
          22 -5 15 vhcurveto
          -169 hlineto
          -23 59 hlineto
          19 -1 21 20 vvcurveto
          70 hlineto
          115 hlineto
          50 17 22 38 13 -2 21 -4 15 hvcurveto
          endchar
        </CharString>
        <CharString name="five">
          3 -14 106 239 101 106 110 hstem
          78 129 137 62 callgsubr
          445 648 rmoveto
          -351 hlineto
          -8 -7 -16 -302 13 -20 29 -20 23 -5 rlinecurve
          24 30 34 13 34 hhcurveto
          56 55 -31 -84 -84 -53 -40 -61 -50 -40 19 28 -40 hvcurveto
          -26 -19 -23 -42 -5 -25 rrcurveto
          -41 46 70 -26 78 hhcurveto
          120 119 74 162 128 -79 82 -130 -25 -23 -4 -7 -22 hvcurveto
          3 21 4 58 rlineto
          9 1 14 15 vvcurveto
          22 hlineto
          168 hlineto
          36 20 20 36 13 -1 20 -8 21 hvcurveto
          endchar
        </CharString>
        <CharString name="five.smcp">
          -45 -14 103 179 93 82 105 hstem
          73 124 108 53 callsubr
          42 44 rmoveto
          -37 46 63 -21 70 hhcurveto
          110 105 67 133 104 -78 71 -105 -21 -20 -3 -5 -19 hvcurveto
          2 26 3 47 rlineto
          17 15 vlineto
          149 hlineto
          36 20 18 34 13 -1 19 -7 21 hvcurveto
          -321 hlineto
          -8 -6 -15 -261 14 -20 28 -21 23 -5 rlinecurve
          20 26 29 13 31 hhcurveto
          47 41 -30 -59 -58 -41 -32 -53 -44 -38 14 26 -35 hvcurveto
          -25 -19 -22 -43 -5 -23 rrcurveto
          endchar
        </CharString>
        <CharString name="four">
          3 124 110 hstem
          281 69 callgsubr
          281 hmoveto
          -4 22 22 59 callsubr
          21 1 4 23 hvcurveto
          63 vlineto
          22 -1 20 21 vvcurveto
          86 hlineto
          6 20 3 24 17 vvcurveto
          15 -1 17 -3 16 vhcurveto
          -39 hlineto
          -22 -9 -1 -21 hhcurveto
          21 1 20 22 vvcurveto
          114 vlineto
          -6 6 rlineto
          -32 hlineto
          -56 -33 -40 -63 hvcurveto
          -55 vlineto
          -25 -1 vlineto
          -19 -66 -2 -4 -39 hvcurveto
          -3 4 30 45 40 91 20 50 rlinecurve
          90 211 -21 22 -62 12 -37 -8 rlinecurve
          -165 -386 rlineto
          -9 -21 -10 -24 -19 vvcurveto
          -24 13 -31 16 -26 vhcurveto
          160 hlineto
          22 21 2 21 hhcurveto
          -21 -1 -20 -22 vvcurveto
          endchar
        </CharString>
        <CharString name="four.smcp">
          -45 97 98 -96 104 352 -20 hstemhm
          257 120 28 callsubr
          257 hmoveto
          hintmask 01110000
          -4 22 21 46 callgsubr
          18 -53 callsubr
          39 vlineto
          22 -1 17 21 vvcurveto
          70 hlineto
          7 22 2 17 23 vvcurveto
          14 0 13 -3 15 vhcurveto
          -35 hlineto
          -11 -19 -1 -11 hhcurveto
          1 vlineto
          20 2 34 21 vvcurveto
          73 vlineto
          -5 6 rlineto
          -31 hlineto
          -51 -34 -40 -56 hvcurveto
          -39 vlineto
          -20 vlineto
          -23 -1 -49 -3 -31 -3 -3 4 rcurveline
          29 49 35 67 19 40 82 171 rcurveline
          -24 22 -52 13 -41 -6 -154 -325 rcurveline
          -7 -15 -10 -21 -18 vvcurveto
          -22 13 -31 15 -26 vhcurveto
          139 hlineto
          22 20 2 21 hhcurveto
          -21 -1 -17 -22 vvcurveto
          endchar
        </CharString>
        <CharString name="foursuperior">
          -107 402 91 hstemhm
          217 105 57 callgsubr
          217 329 -88 callgsubr
        </CharString>
        <CharString name="fraction">
          -270 0 -20 hstem
          -124 504 vstem
          -124 hmoveto
          -33 callsubr
          endchar
        </CharString>
        <CharString name="g">
          5 -221 99 113 54 callgsubr
          167 127 hintmask 00000000
          hintmask 11101100
          38 247 rmoveto
          -152 58 -104 119 47 43 19 26 33 vhcurveto
          -39 vlineto
          -68 -25 -51 -87 -41 -52 11 20 -42 vhcurveto
          -19 -22 -14 -43 -31 vvcurveto
          -20 49 69 -14 63 hhcurveto
          77 64 25 45 36 hvcurveto
          31 40 18 57 129 vvcurveto
          279 vlineto
          hintmask 11011100
          35 9 32 19 16 vhcurveto
          -4 23 -21 31 -18 13 -37 -4 -27 -15 -19 -24 rrcurveto
          hintmask 11101100
          27 -30 -43 22 -60 hhcurveto
          -102 -94 -88 -175 hvcurveto
          300 116 rmoveto
          -220 vlineto
          -29 -26 -34 -17 -33 hhcurveto
          -41 -33 44 106 106 31 57 54 25 29 -14 -26 28 hvcurveto
          endchar
        </CharString>
        <CharString name="g.smcp">
          50 -14 100 116 108 145 107 -51 -20 15 callsubr
          230 124 hintmask 00000000
          hintmask 11101100
          297 308 rmoveto
          -4 -13 -3 -21 -19 vvcurveto
          -37 21 -16 39 vhcurveto
          54 hlineto
          -1 -23 -1 -20 -7 vvcurveto
          -58 vlineto
          -5 -24 -27 -3 -29 hhcurveto
          -102 -48 62 123 126 57 58 86 54 50 -15 -27 46 hvcurveto
          hintmask 11011100
          26 18 24 44 4 36 rrcurveto
          hintmask 11101100
          30 -54 -78 21 -77 hhcurveto
          -143 -131 -85 -205 -161 72 -125 190 84 96 17 16 48 hvcurveto
          218 vlineto
          47 -21 26 -69 -48 -45 0 -2 -46 vhcurveto
          endchar
        </CharString>
        <CharString name="germandbls">
          -80 callsubr
        </CharString>
        <CharString name="germandbls.cap">
          -80 callsubr
        </CharString>
        <CharString name="germandbls.cap_smcp">
          61 9 -20 269 99 110 96 hstem
          90 133 205 136 vstem
          90 hmoveto
          -3 20 26 -2 21 hhcurveto
          22 70 callsubr
          21 hvcurveto
          383 vlineto
          53 27 31 56 55 28 -38 -44 -5 0 -5 -1 -5 vhcurveto
          -45 -19 -28 -38 -39 vvcurveto
          -33 19 -22 34 -28 vhcurveto
          33 -28 rlineto
          21 -17 6 -13 -14 vvcurveto
          -20 -18 -15 -30 -20 -23 5 10 -21 vhcurveto
          -20 -20 -15 -42 -1 -28 rrcurveto
          -14 34 45 -7 38 hhcurveto
          96 71 49 75 35 -13 33 -44 40 hvcurveto
          -29 26 rlineto
          -14 12 -8 10 13 vvcurveto
          23 22 19 36 12 vhcurveto
          6 18 2 22 16 vvcurveto
          102 -87 70 -129 -127 -89 -54 -110 vhcurveto
          -42 vlineto
          -77 1 rlineto
          -3 -14 -2 -20 -15 vvcurveto
          -15 2 -21 3 -15 vhcurveto
          77 1 rlineto
          endchar
        </CharString>
        <CharString name="germandbls.smcp">
          477 52 callgsubr
          hstemhm
          38 58 callsubr
          65 58 callsubr
          hintmask 11110000
          -95 callsubr
          hintmask 11001100
          502 hmoveto
          -100 callsubr
          endchar
        </CharString>
        <CharString name="grave">
          539 216 hstem
          58 233 vstem
          142 755 -67 callgsubr
        </CharString>
        <CharString name="grave.cap">
          728 193 hstem
          56 267 vstem
          110 921 -58 callsubr
        </CharString>
        <CharString name="greater">
          3 547 -20 hstem
          345 139 vstem
          478 246 rmoveto
          9 31 -2 41 -7 29 -362 200 rcurveline
          -30 -18 -27 -43 -3 -42 209 -109 rcurveline
          20 -10 41 -18 19 -7 rrcurveto
          -7 vlineto
          -19 -7 -41 -18 -20 -10 -209 -109 rcurveline
          2 -42 26 -41 31 -19 rrcurveto
          endchar
        </CharString>
        <CharString name="guillemotleft">
          62 31 450 hstemhm
          27 280 -32 280 hintmask 10100000
          551 413 -47 callgsubr
          hintmask 11000000
          -117 156 -47 callgsubr
          endchar
        </CharString>
        <CharString name="guillemotright">
          62 31 450 hstemhm
          33 280 -32 280 hintmask 11000000
          38 99 -47 callsubr
          hintmask 10100000
          118 -156 -47 callsubr
          endchar
        </CharString>
        <CharString name="guilsinglleft">
          -186 31 450 hstem
          27 280 vstem
          303 413 -47 callgsubr
          endchar
        </CharString>
        <CharString name="guilsinglright">
          -186 31 450 hstem
          33 280 vstem
          38 99 -47 callsubr
          endchar
        </CharString>
        <CharString name="h">
          16 48 callgsubr
          hstem
          69 127 151 53 callsubr
          478 334 rmoveto
          55 callgsubr
          211 vlineto
          -6 callsubr
          -729 -25 callgsubr
          endchar
        </CharString>
        <CharString name="h.smcp">
          97 231 108 209 -20 hstem
          78 132 204 132 vstem
          414 hmoveto
          0 callsubr
          548 vlineto
          39 callsubr
          -151 vlineto
          -22 1 -16 -21 vvcurveto
          -13 -22 1 -12 hhcurveto
          56 callgsubr
          16 22 vvcurveto
          151 34 callgsubr
          -548 vlineto
          40 callsubr
          172 vlineto
          23 -1 15 22 24 callsubr
          -22 -1 -15 -23 vvcurveto
          endchar
        </CharString>
        <CharString name="hbar">
          19 48 callgsubr
          58 84 hstem
          72 127 151 53 callsubr
          199 655 rmoveto
          -6 callsubr
          -83 vlineto
          -73 2 rlineto
          -4 -17 -2 -10 -15 vvcurveto
          -17 2 -11 4 -15 vhcurveto
          73 1 rlineto
          -564 -25 callgsubr
          218 vlineto
          55 callgsubr
          120 vlineto
          152 -1 rlineto
          4 15 1 11 17 vvcurveto
          15 -1 10 -4 17 vhcurveto
          -152 -2 rlineto
          endchar
        </CharString>
        <CharString name="hbar.smcp">
          105 227 107 65 149 hstem
          82 132 204 132 vstem
          214 hmoveto
          169 vlineto
          23 -1 15 21 24 callsubr
          -21 -1 -15 -23 vvcurveto
          -169 vlineto
          0 callsubr
          399 61 vlineto
          3 13 2 16 13 vvcurveto
          14 -2 12 -3 14 vhcurveto
          -61 67 hlineto
          39 callsubr
          -67 -204 67 34 callgsubr
          -67 -60 vlineto
          -4 -14 -2 -15 -12 vvcurveto
          -12 2 -16 4 -13 vhcurveto
          60 -399 hlineto
          40 callsubr
          158 334 rmoveto
          56 callgsubr
          19 22 vvcurveto
          4 204 -4 vlineto
          -22 1 -19 -21 vvcurveto
          -13 -22 1 -12 hhcurveto
          endchar
        </CharString>
        <CharString name="hyphen">
          -29 callgsubr
        </CharString>
        <CharString name="i">
          -242 -67 0 245 199 endchar
        </CharString>
        <CharString name="i.smcp">
          18 callsubr
          hstem
          80 68 callsubr
          -81 callgsubr
          endchar
        </CharString>
        <CharString name="iacute">
          1 callgsubr
          64 19 callsubr
          42 234 -194 131 -89 callsubr
          hintmask 00110000
          -171 591 -98 callsubr
        </CharString>
        <CharString name="iacute.smcp">
          18 callsubr
          63 19 callsubr
          63 234 -217 -49 callsubr
          -17 95 -98 callsubr
        </CharString>
        <CharString name="icircumflex">
          1 callgsubr
          68 4 callgsubr
          -27 308 -199 131 -89 callsubr
          hintmask 00110000
          10 549 -89 callgsubr
        </CharString>
        <CharString name="icircumflex.smcp">
          18 callsubr
          67 4 callgsubr
          -6 308 -222 -49 callsubr
          164 53 -89 callgsubr
        </CharString>
        <CharString name="idieresis">
          1 callgsubr
          98 90 hstemhm
          -35 122 -5 131 -54 122 -89 callsubr
          hintmask 00110100
          -54 618 -107 callgsubr
        </CharString>
        <CharString name="idieresis.smcp">
          18 callsubr
          97 90 hstemhm
          -14 122 -28 133 -33 122 -72 callsubr
          hintmask 01101000
          100 122 -107 callgsubr
        </CharString>
        <CharString name="igrave">
          1 callgsubr
          64 19 callsubr
          -13 233 -138 131 -89 callsubr
          hintmask 00110000
          -142 755 -67 callgsubr
        </CharString>
        <CharString name="igrave.smcp">
          18 callsubr
          63 19 callsubr
          8 233 -161 -49 callsubr
          12 259 -67 callgsubr
        </CharString>
        <CharString name="ij">
          43 6 callsubr
          110 104 hstemhm
          57 140 -110 131 157 75 callgsubr
          hintmask 00100100
          218 395 rmoveto
          hintmask 01000100
          -94 callsubr
          hintmask 00011000
          -161 637 -90 callsubr
          hintmask 00000000
          446 -242 rmoveto
          hintmask 10100010
          -82 callsubr
          hintmask 11000010
          -163 613 -90 callsubr
          endchar
        </CharString>
        <CharString name="ij.smcp">
          182 77 callgsubr
          hstemhm
          80 133 298 132 hintmask 01100000
          -81 callgsubr
          hintmask 11010000
          261 -427 -61 callgsubr
          endchar
        </CharString>
        <CharString name="itilde">
          1 callgsubr
          80 102 hstemhm
          -56 366 -228 131 -89 callsubr
          hintmask 00000000
          -80 572 -91 callgsubr
          hintmask 00110000
          -93 callgsubr
        </CharString>
        <CharString name="itilde.smcp">
          18 callsubr
          79 102 hstemhm
          -35 366 -251 133 -72 callsubr
          hintmask 00000000
          74 76 -91 callgsubr
          hintmask 01100000
          -93 callgsubr
        </CharString>
        <CharString name="j">
          -235 6 callsubr
          110 104 hstemhm
          62 140 -106 75 callgsubr
          hintmask 10100100
          224 -45 callgsubr
          -162 613 -90 callsubr
          endchar
        </CharString>
        <CharString name="j.smcp">
          -112 77 callgsubr
          hstem
          217 132 vstem
          47 121 -61 callgsubr
          endchar
        </CharString>
        <CharString name="jcircumflex">
          -243 6 callsubr
          68 4 callgsubr
          -25 308 -194 75 callgsubr
          hintmask 10100100
          217 -45 callgsubr
          8 525 -89 callgsubr
        </CharString>
        <CharString name="jcircumflex.smcp">
          -112 77 callgsubr
          67 4 callgsubr
          129 308 -220 132 hintmask 11001000
          47 121 -61 callgsubr
          hintmask 00110000
          332 480 -89 callgsubr
        </CharString>
        <CharString name="k">
          -14 207 76 callgsubr
          hstem
          69 69 callgsubr
          -69 callsubr
          endchar
        </CharString>
        <CharString name="k.smcp">
          35 229 107 212 -20 26 76 callsubr
          28 callsubr
          -42 callsubr
          hintmask 11010000
          -44 callgsubr
          endchar
        </CharString>
        <CharString name="kcommaaccent">
          -14 -23 callgsubr
          259 76 callgsubr
          hstemhm
          69 127 33 117 hintmask 00011100
          -69 callsubr
          hintmask 11100010
          -118 -174 -93 callsubr
        </CharString>
        <CharString name="kcommaaccent.smcp">
          28 -23 callgsubr
          281 107 212 -20 26 76 callsubr
          36 117 hintmask 00000000
          hintmask 00010110
          -42 callsubr
          hintmask 00011010
          -44 callgsubr
          hintmask 11100001
          -192 -92 -93 callsubr
        </CharString>
        <CharString name="kgreenlandic">
          -14 207 76 callgsubr
          hstem
          69 69 callgsubr
          -61 callsubr
          108 66 callsubr
          22 -52 vhcurveto
          -51 -1 callgsubr
          -495 -62 callgsubr
          endchar
        </CharString>
        <CharString name="kgreenlandic.smcp">
          35 229 107 204 14 0 76 callsubr
          28 callsubr
          -28 callgsubr
          rrcurveto
          hintmask 11010000
          114 184 -37 callsubr
          139 66 callsubr
          22 -52 vhcurveto
          -56 -1 callgsubr
          -547 vlineto
          -3 18 26 -2 23 hhcurveto
          23 24 2 3 18 -14 callsubr
          endchar
        </CharString>
        <CharString name="l">
          -223 -5 101 hstem
          67 83 callgsubr
          -28 callsubr
          endchar
        </CharString>
        <CharString name="l.smcp">
          -52 -2 111 444 -20 hstem
          76 68 callsubr
          -29 callsubr
          endchar
        </CharString>
        <CharString name="ldot">
          -150 -5 101 209 106 hstemhm
          67 128 56 128 hintmask 10100000
          -28 callsubr
          hintmask 01010000
          -17 262 -63 callsubr
        </CharString>
        <CharString name="ldot.smcp">
          -45 -2 111 156 106 182 -20 hstemhm
          76 133 98 128 hintmask 10110000
          -29 callsubr
          hintmask 01001000
          -145 209 -63 callsubr
        </CharString>
        <CharString name="less">
          3 46 499 hstem
          46 139 vstem
          52 346 rmoveto
          -9 -30 2 -41 7 -30 362 -199 rcurveline
          30 17 26 44 4 42 -209 109 rcurveline
          -20 10 -41 17 -19 7 rrcurveto
          8 vlineto
          19 7 41 17 20 11 209 109 rcurveline
          -2 42 -26 41 -32 18 rrcurveto
          endchar
        </CharString>
        <CharString name="logicalnot">
          3 248 108 hstem
          361 115 vstem
          49 356 rmoveto
          -4 -18 -1 -23 -13 vvcurveto
          -13 1 -24 4 -17 vhcurveto
          255 hlineto
          19 19 1 20 hhcurveto
          -18 -1 -19 -18 vvcurveto
          -74 vlineto
          -4 22 17 -1 20 hhcurveto
          20 19 1 4 17 hvcurveto
          229 vlineto
          -7 7 rlineto
          endchar
        </CharString>
        <CharString name="lslash">
          -178 -5 101 hstem
          100 69 callgsubr
          269 96 rmoveto
          -29 -13 16 30 hvcurveto
          205 vlineto
          88 45 7 34 -1 37 -8 24 rlinecurve
          -9 5 -77 -39 rlineto
          202 78 callgsubr
          -53 vhcurveto
          -49 -4 callsubr
          -340 vlineto
          -80 -40 -7 -33 1 -37 8 -25 rlinecurve
          10 -5 68 34 rlineto
          -166 -2 callgsubr
          0 11 10 vvcurveto
          22 -3 23 -7 18 vhcurveto
          endchar
        </CharString>
        <CharString name="lslash.smcp">
          -36 -2 111 444 -20 hstem
          92 68 callsubr
          225 470 rmoveto
          12 callgsubr
          -234 vlineto
          -69 -20 -7 -33 1 -41 8 -22 rlinecurve
          9 -5 58 18 rlineto
          -135 -15 callgsubr
          16 vvcurveto
          -154 hlineto
          -25 -31 -2 -3 -32 hvcurveto
          144 vlineto
          146 45 7 33 -1 41 -8 22 rlinecurve
          -10 4 -134 -44 rlineto
          endchar
        </CharString>
        <CharString name="m">
          276 48 callgsubr
          80 callgsubr
          139 130 139 45 callgsubr
          hintmask 11110000
          338 307 rmoveto
          -307 36 callgsubr
          340 vlineto
          28 27 32 20 27 hhcurveto
          30 23 -19 -61 hvcurveto
          -234 vlineto
          -53 18 -28 52 32 30 12 16 20 vhcurveto
          -16 24 -5 34 37 vvcurveto
          232 vlineto
          89 -43 68 -88 -56 -56 -31 -41 -44 vhcurveto
          44 -21 -39 28 -56 hhcurveto
          -52 -47 -28 -37 -40 hvcurveto
          39 -8 -24 23 -40 hhcurveto
          -49 -1 callgsubr
          -495 36 callgsubr
          341 vlineto
          26 27 33 19 28 1 rrcurveto
          30 22 -20 -61 hvcurveto
          endchar
        </CharString>
        <CharString name="m.smcp">
          220 2 -20 101 110 224 131 hstem
          58 630 vstem
          58 2 rmoveto
          -5 18 25 -2 25 hhcurveto
          20 22 1 4 18 hvcurveto
          17 220 rlineto
          5 59 0 87 51 vvcurveto
          6 hlineto
          91 -334 rlineto
          -3 18 30 -2 20 hhcurveto
          18 31 2 3 19 hvcurveto
          92 334 rlineto
          5 hlineto
          1 -51 -1 -87 5 -59 17 -220 rcurveline
          -4 19 23 -1 19 hhcurveto
          25 25 2 5 17 hvcurveto
          -55 546 rlineto
          5 -24 -38 2 -23 hhcurveto
          -21 -37 -2 -5 -25 hvcurveto
          -62 -234 -8 -26 -13 -54 -5 -41 rlinecurve
          -6 hlineto
          -7 41 -13 54 -7 26 -63 234 rcurveline
          6 -22 -38 1 -23 hhcurveto
          -22 -36 -1 -6 -27 hvcurveto
          endchar
        </CharString>
        <CharString name="macron">
          573 98 hstemhm
          52 295 57 callgsubr
          347 573 rmoveto
          4 17 1 14 60 callsubr
          10 61 callsubr
          -295 hlineto
          -5 -18 -1 -13 -18 vvcurveto
          -19 1 -13 5 -17 vhcurveto
          endchar
        </CharString>
        <CharString name="mu">
          26 -198 -21 210 111 394 -20 hstem
          68 129 154 53 callsubr
          482 496 rmoveto
          4 -19 -25 1 -22 1 callsubr
          -348 vlineto
          -29 -22 -27 -17 -32 hhcurveto
          -45 -26 29 49 -2 hvcurveto
          316 vlineto
          4 -19 -23 1 -22 1 callsubr
          -592 vlineto
          -26 -3 -43 -18 -27 vhcurveto
          -17 22 26 -10 32 hhcurveto
          53 9 36 53 hvcurveto
          140 vlineto
          -12 19 22 -7 24 hhcurveto
          51 39 25 38 25 hvcurveto
          19 -34 32 -24 46 -4 18 13 20 30 6 23 rrcurveto
          -20 16 -8 33 35 vvcurveto
          endchar
        </CharString>
        <CharString name="multiply">
          3 497 -20 hstem
          64 401 vstem
          228 183 rmoveto
          12 11 12 13 13 13 12 -13 11 -13 13 -11 86 -87 rcurveline
          17 7 17 12 12 13 13 13 11 16 8 17 -86 86 rcurveline
          -38 36 38 37 86 86 -8 17 -12 16 -13 13 rlinecurve
          -13 13 -16 11 -16 8 -86 -87 rcurveline
          -13 -12 -11 -13 -12 -12 -13 12 -12 13 -12 13 -86 86 rcurveline
          -17 -7 -16 -11 -13 -14 -13 -13 -11 -16 -8 -17 86 -86 rcurveline
          12 -12 14 -12 12 -13 -38 -36 rcurveline
          -86 -86 8 -17 12 -16 12 -13 rlinecurve
          13 -13 16 -11 17 -8 rrcurveto
          endchar
        </CharString>
        <CharString name="n">
          44 callgsubr
          80 callgsubr
          151 45 callgsubr
          hintmask 01110000
          481 334 rmoveto
          hintmask 10110000
          12 callsubr
          hintmask 01110000
          -70 callgsubr
          endchar
        </CharString>
        <CharString name="n.smcp">
          29 callsubr
          79 callsubr
          227 125 hintmask 00000000
          hintmask 01110000
          -56 callgsubr
          hintmask 10110000
          -87 callsubr
          endchar
        </CharString>
        <CharString name="nacute">
          19 82 0 110 194 endchar
        </CharString>
        <CharString name="nacute.smcp">
          29 callsubr
          57 216 79 callsubr
          32 234 -39 -88 callsubr
          hintmask 00101000
          -320 95 -98 callsubr
        </CharString>
        <CharString name="nbspace">
          -307 0 0 32 32 endchar
        </CharString>
        <CharString name="ncaron">
          44 callgsubr
          169 -20 80 callgsubr
          -73 310 -86 -57 callsubr
          -296 624 -92 callgsubr
        </CharString>
        <CharString name="ncaron.smcp">
          29 callsubr
          169 -20 79 callsubr
          -37 310 -46 -88 callsubr
          hintmask 00000000
          -330 244 -92 callgsubr
        </CharString>
        <CharString name="nine">
          3 -14 103 125 106 244 98 hstem
          38 131 184 136 vstem
          259 662 rmoveto
          -123 -98 -87 -143 -152 73 -66 109 52 45 19 29 35 hvcurveto
          -101 -4 -40 -72 -94 hhcurveto
          -41 -34 10 11 -26 hvcurveto
          -26 -20 -15 -37 -3 -34 rrcurveto
          -20 38 54 -13 63 hhcurveto
          170 95 130 209 188 -49 55 -18 24 hvcurveto
          23 -19 -48 47 -96 hhcurveto
          -5 -342 rmoveto
          -51 -34 31 89 73 28 51 60 29 19 -14 -18 14 hvcurveto
          25 -31 9 -62 -63 vvcurveto
          -14 vlineto
          -27 -30 -35 -15 -34 hhcurveto
          endchar
        </CharString>
        <CharString name="nine.smcp">
          -45 -14 97 106 98 182 93 hstem
          40 127 147 132 vstem
          238 562 rmoveto
          -113 -85 -73 -122 -108 51 -70 109 44 38 12 22 32 hvcurveto
          -85 -4 -32 -55 -80 hhcurveto
          -35 -34 9 8 -22 hvcurveto
          -23 -20 -14 -31 -5 -34 rrcurveto
          -17 35 57 -12 48 hhcurveto
          154 87 105 176 98 -13 91 -57 56 hvcurveto
          32 -31 -45 18 -62 hhcurveto
          -4 -275 rmoveto
          -42 -25 30 62 57 25 33 45 25 16 -12 -13 11 hvcurveto
          18 -24 8 -43 -48 vvcurveto
          -15 vlineto
          -16 -25 -29 -11 -27 hhcurveto
          endchar
        </CharString>
        <CharString name="ntilde">
          44 callgsubr
          73 102 80 callgsubr
          -102 366 -113 -57 callsubr
          -195 456 -98 callgsubr
        </CharString>
        <CharString name="ntilde.smcp">
          29 callsubr
          73 102 79 callsubr
          -66 366 -73 -88 callsubr
          hintmask 00000000
          -229 76 -98 callgsubr
        </CharString>
        <CharString name="numbersign">
          156 3 10 130 105 162 105 130 9 hstem
          21 645 vstem
          447 515 rmoveto
          -122 hlineto
          30 130 -27 12 -60 0 -29 -12 rlinecurve
          -30 -130 rlineto
          -130 hlineto
          -11 -30 0 -45 11 -30 rrcurveto
          107 hlineto
          -37 -162 rlineto
          -121 hlineto
          -10 -30 0 -45 10 -30 rrcurveto
          98 hlineto
          -29 -130 27 55 callsubr
          122 hlineto
          -29 -130 26 55 callsubr
          128 hlineto
          11 30 0 45 -11 30 rrcurveto
          -105 hlineto
          37 162 rlineto
          119 hlineto
          10 30 0 45 -10 30 rrcurveto
          -96 hlineto
          30 130 -26 12 -60 0 -29 -12 rlinecurve
          -175 -235 rmoveto
          122 hlineto
          -37 -162 rlineto
          -122 hlineto
          endchar
        </CharString>
        <CharString name="o">
          59 callgsubr
          hstem
          37 134 179 33 callgsubr
          -76 callgsubr
          endchar
        </CharString>
        <CharString name="o.smcp">
          2 callsubr
          hstem
          36 136 254 137 vstem
          -101 callsubr
          endchar
        </CharString>
        <CharString name="oacute">
          59 callgsubr
          29 216 61 callgsubr
          5 234 -60 134 hintmask 11010100
          -76 callgsubr
          hintmask 00101000
          5 343 -98 callsubr
        </CharString>
        <CharString name="oacute.smcp">
          2 callsubr
          42 callsubr
          42 234 -22 -90 callgsubr
          hintmask 00101000
          178 369 -98 callsubr
        </CharString>
        <CharString name="ocircumflex">
          -6 61 0 111 195 endchar
        </CharString>
        <CharString name="ocircumflex.smcp">
          2 callsubr
          33 193 15 callsubr
          -27 308 -27 -90 callgsubr
          hintmask 00101000
          359 327 -89 callgsubr
        </CharString>
        <CharString name="odieresis">
          -6 61 0 111 200 endchar
        </CharString>
        <CharString name="odieresis.smcp">
          2 callsubr
          63 90 15 callsubr
          -35 -4 callgsubr
          -27 137 hintmask 11010010
          -101 callsubr
          hintmask 00101100
          295 396 -107 callgsubr
        </CharString>
        <CharString name="oe">
          287 -14 99 121 92 114 98 -94 94 61 callgsubr
          179 140 163 123 hintmask 00000000
          hintmask 11011110
          765 -26 callgsubr
          -72 92 -131 -72 -50 -27 -44 -32 vhcurveto
          44 -34 -52 27 -73 -50 callgsubr
          72 51 26 42 33 hvcurveto
          -42 30 49 -26 77 hhcurveto
          69 72 21 36 49 hvcurveto
          -5 callgsubr
          -41 -44 -15 -48 hhcurveto
          -76 -21 50 68 -4 hvcurveto
          -320 42 rmoveto
          hintmask 11101110
          -13 callsubr
          vhcurveto
          hintmask 11011110
          -74 -16 76 87 hvcurveto
          402 168 rmoveto
          59 21 -48 -59 hvcurveto
          -11 -163 vlineto
          76 4 25 42 54 hhcurveto
          endchar
        </CharString>
        <CharString name="oe.smcp">
          302 -19 callgsubr
          hstem
          36 138 214 69 callgsubr
          791 106 rmoveto
          -211 hlineto
          46 callsubr
          -21 hvcurveto
          16 1 26 16 vvcurveto
          63 61 vlineto
          145 hlineto
          5 15 2 23 71 callsubr
          -2 23 -5 15 vhcurveto
          -145 hlineto
          -13 -25 0 -1 -23 hvcurveto
          57 vlineto
          15 -1 25 16 vvcurveto
          62 hlineto
          191 hlineto
          7 19 -41 callsubr
          -333 hlineto
          7 -42 -51 7 -45 hhcurveto
          -79 -50 -21 -29 -39 hvcurveto
          -75 -56 -23 -96 -85 vvcurveto
          -84 23 -98 75 -56 vhcurveto
          -30 39 50 -21 79 hhcurveto
          42 49 7 6 40 hvcurveto
          275 hlineto
          48 25 21 42 86 callgsubr
          15 0 18 11 vvcurveto
          -489 -18 rmoveto
          -110 -18 103 84 83 18 104 110 28 30 -6 -8 28 hvcurveto
          33 callsubr
          -8 -28 -30 -5 -28 hhcurveto
          endchar
        </CharString>
        <CharString name="ograve">
          -6 63 0 111 193 endchar
        </CharString>
        <CharString name="ograve.smcp">
          2 callsubr
          42 callsubr
          -13 233 34 -90 callgsubr
          hintmask 00101000
          207 533 -67 callgsubr
        </CharString>
        <CharString name="one">
          3 0 108 540 -20 hstem
          230 83 callgsubr
          43 451 rmoveto
          6 -33 23 -31 26 -13 47 20 53 36 38 44 rrcurveto
          -2 -42 -4 -50 -27 vvcurveto
          -177 vlineto
          -24 1 -23 -24 vvcurveto
          -15 -32 1 -13 hhcurveto
          -87 hlineto
          -4 -16 -2 -20 -18 vvcurveto
          -18 2 -19 4 -17 vhcurveto
          398 hlineto
          4 17 2 19 18 vvcurveto
          18 -2 20 -4 16 vhcurveto
          -61 hlineto
          -14 -35 -1 -15 hhcurveto
          24 1 23 24 vvcurveto
          470 vlineto
          4 -23 -20 3 callsubr
          -19 -21 -1 -4 -22 hvcurveto
          -32 -69 -62 -67 -98 -61 rrcurveto
          endchar
        </CharString>
        <CharString name="one.smcp">
          -45 0 104 444 -20 hstem
          203 69 callgsubr
          40 385 rmoveto
          5 -31 20 -31 27 -13 46 19 41 26 31 34 rrcurveto
          -3 -30 -4 -32 -21 vvcurveto
          -143 vlineto
          -20 1 -21 -20 vvcurveto
          -14 -31 2 -12 hhcurveto
          -71 hlineto
          -4 -15 -2 -20 -17 vvcurveto
          -18 2 -18 37 callsubr
          360 hlineto
          4 15 2 19 18 vvcurveto
          17 -2 20 -4 15 vhcurveto
          -45 hlineto
          -13 -36 -2 -12 hhcurveto
          446 67 callsubr
          -20 3 callsubr
          -18 -23 -25 callsubr
          -31 -62 -49 -49 -89 -52 rrcurveto
          endchar
        </CharString>
        <CharString name="onehalf">
          475 0 -20 23 98 144 95 -1 -20 34 98 hstemhm
          162 107 1 504 55 116 hintmask 10000010
          270 hmoveto
          -33 callsubr
          hintmask 00100100
          -618 -143 -77 callsubr
          hintmask 00000000
          927 -439 -3 callsubr
          hintmask 01010001
          76 -59 59 -91 vhcurveto
          hintmask 01011001
          -78 -55 -51 -61 -15 hvcurveto
          hintmask 01010001
          -27 callsubr
          hintmask 01011001
          74 callsubr
        </CharString>
        <CharString name="onequarter">
          475 0 -20 265 95 hstemhm
          162 107 14 504 hintmask 01100000
          30 540 -77 callsubr
          hintmask 10010000
          253 -540 rmoveto
          -33 callsubr
          hintmask 00000000
          140 -677 -88 callgsubr
        </CharString>
        <CharString name="onesuperior">
          -107 329 95 hstem
          178 107 vstem
          46 624 -77 callsubr
          endchar
        </CharString>
        <CharString name="ordfeminine">
          -86 281 82 100 72 77 85 hstem
          39 107 115 113 vstem
          400 343 rmoveto
          -21 13 -5 21 28 vvcurveto
          156 vlineto
          97 -66 39 -74 -55 -71 -16 -21 -50 vhcurveto
          1 -28 11 -28 16 -17 rrcurveto
          15 44 37 10 40 hhcurveto
          28 26 -15 -39 hvcurveto
          -26 vlineto
          1 -24 -23 2 -18 hhcurveto
          -88 -69 -41 -93 -61 44 -59 79 49 39 23 26 30 hvcurveto
          17 -26 27 -16 34 -2 20 10 19 26 3 21 rrcurveto
          -208 20 rmoveto
          -28 -18 21 24 34 21 21 37 17 20 -1 -1 20 hvcurveto
          -56 vlineto
          -11 vlineto
          -20 -22 -26 -11 -21 hhcurveto
          endchar
        </CharString>
        <CharString name="ordmasculine">
          -92 281 84 248 84 hstem
          38 110 139 110 vstem
          397 489 rmoveto
          63 -16 58 -43 43 vhcurveto
          29 -30 -43 15 -48 hhcurveto
          -48 -42 -15 -29 -30 hvcurveto
          -43 -43 -16 -58 -63 vvcurveto
          -63 16 -59 43 -43 vhcurveto
          -29 30 42 -14 48 hhcurveto
          48 43 14 29 30 hvcurveto
          43 43 16 59 63 vvcurveto
          -249 hmoveto
          70 18 54 52 51 18 -54 -70 -70 -18 -54 -51 -52 -18 54 70 vhcurveto
          endchar
        </CharString>
        <CharString name="oslash">
          -3 -14 94 337 93 -15 -20 81 -20 hstemhm
          38 122 203 122 hintmask 00000000
          hintmask 11011100
          485 249 rmoveto
          78 -17 73 -53 53 vhcurveto
          37 65 -18 19 -26 13 -25 6 rlinecurve
          hintmask 10111100
          -35 -61 rlineto
          hintmask 11011100
          10 -26 -29 5 -31 hhcurveto
          -62 -52 -18 -38 -39 hvcurveto
          -54 -53 -17 -74 -78 vvcurveto
          -77 16 -74 53 -53 vhcurveto
          -37 -65 16 -19 28 -14 25 -5 rlinecurve
          35 59 rlineto
          -10 26 30 -5 32 hhcurveto
          61 52 18 39 40 hvcurveto
          53 53 17 75 78 vvcurveto
          -122 hmoveto
          -85 -19 -84 -82 -16 -13 3 5 -11 vhcurveto
          131 250 rlineto
          7 -27 3 -31 -31 vvcurveto
          -203 hmoveto
          85 19 83 83 15 13 -3 -5 11 vhcurveto
          -131 -249 rlineto
          -8 27 -2 31 31 vvcurveto
          endchar
        </CharString>
        <CharString name="oslash.smcp">
          71 -14 92 -73 -20 486 91 49 callgsubr
          268 130 hintmask 00000000
          hintmask 10111000
          36 274 rmoveto
          hintmask 01111000
          -70 17 -78 46 -57 vhcurveto
          -46 -64 rlineto
          hintmask 10111000
          14 -21 30 -20 26 -8 43 58 rcurveline
          -17 33 41 -11 59 hhcurveto
          78 48 19 30 40 hvcurveto
          73 57 25 97 85 vvcurveto
          71 -18 81 -49 57 vhcurveto
          46 63 -16 23 -29 18 -25 9 rlinecurve
          -44 -61 rlineto
          17 -33 -40 10 -56 hhcurveto
          -78 -48 -20 -29 -39 hvcurveto
          -10 callgsubr
          397 hmoveto
          -88 -21 -108 -113 -31 -23 8 13 -19 vhcurveto
          194 276 rlineto
          10 -32 3 -37 -32 vvcurveto
          -268 hmoveto
          86 22 111 112 29 23 -7 -13 18 vhcurveto
          -193 -273 rlineto
          -8 31 -3 34 31 vvcurveto
          endchar
        </CharString>
        <CharString name="otilde">
          59 callgsubr
          45 102 61 callgsubr
          -94 366 -93 134 hintmask 11010100
          -76 callgsubr
          hintmask 00000000
          95 324 -98 callgsubr
        </CharString>
        <CharString name="otilde.smcp">
          2 callsubr
          45 102 15 callsubr
          -56 366 -56 -90 callgsubr
          hintmask 00000000
          269 350 -98 callgsubr
        </CharString>
        <CharString name="p">
          7 -195 -21 207 100 313 106 -8 -20 hstemhm
          69 128 166 21 callgsubr
          hintmask 11011100
          496 254 rmoveto
          hintmask 11101100
          151 -58 105 -118 -53 -47 -23 -34 -34 vhcurveto
          hintmask 11011100
          31 -13 -26 18 -35 hhcurveto
          -37 -1 callgsubr
          -704 vlineto
          6 -7 rlineto
          51 hlineto
          52 19 23 58 hvcurveto
          153 vlineto
          -16 30 34 -11 39 hhcurveto
          103 93 88 175 hvcurveto
          hintmask 11101100
          -208 150 rmoveto
          41 34 -44 -105 -107 -32 -57 -52 -27 -28 12 17 -27 hvcurveto
          232 vlineto
          38 28 35 14 28 hhcurveto
          endchar
        </CharString>
        <CharString name="p.smcp">
          -4 180 99 174 100 65 callsubr
          497 366 rmoveto
          130 -92 57 -126 -66 -73 -3 -1 -57 vhcurveto
          -5 -6 rlineto
          -543 vlineto
          40 callsubr
          180 69 vlineto
          126 92 60 126 hvcurveto
          -287 88 rmoveto
          -1 26 14 0 20 hhcurveto
          76 15 -50 -37 -37 -15 -50 -76 hvcurveto
          -60 hlineto
          endchar
        </CharString>
        <CharString name="paragraph">
          185 -158 100 628 113 hstem
          281 132 63 68 callsubr
          281 62 rmoveto
          -49 -7 -27 -14 -16 vhcurveto
          -21 -18 -24 -7 -30 hhcurveto
          -32 -37 11 10 -28 hvcurveto
          -19 -25 -11 -46 1 -25 rrcurveto
          -12 30 55 -13 54 hhcurveto
          65 61 18 42 38 hvcurveto
          41 46 7 60 79 vvcurveto
          590 vlineto
          -7 7 rlineto
          2 -50 -37 2 -47 hhcurveto
          -137 -101 -65 -156 -150 101 -74 131 hvcurveto
          15 hlineto
          195 -374 rmoveto
          -5 20 30 16 callgsubr
          19 25 1 5 22 hvcurveto
          702 vlineto
          15 16 32 callsubr
          33 hlineto
          9 25 0 63 -9 25 rrcurveto
          -207 -1 callgsubr
          endchar
        </CharString>
        <CharString name="parenleft">
          -173 -189 1025 hstem
          60 138 vstem
          198 323 rmoveto
          150 44 166 94 128 vhcurveto
          -16 36 -30 23 -30 10 rrcurveto
          -132 -126 -68 -210 -177 vvcurveto
          -176 68 -210 132 -126 vhcurveto
          30 10 30 23 16 36 rrcurveto
          -94 128 -44 166 149 vvcurveto
          endchar
        </CharString>
        <CharString name="parenright">
          -173 -189 1025 hstem
          156 138 vstem
          156 323 rmoveto
          -149 -44 -166 -94 -128 vhcurveto
          16 -36 30 -23 30 -10 rrcurveto
          132 126 68 210 176 vvcurveto
          177 -68 210 -132 126 vhcurveto
          -30 -10 -30 -23 -16 -36 rrcurveto
          94 -128 44 -166 -150 vvcurveto
          endchar
        </CharString>
        <CharString name="percent">
          423 -13 83 -70 -20 293 83 -29 83 203 83 hstemhm
          46 108 114 108 198 108 114 108 hintmask 0000000000000000
          hintmask 0110111110000000
          904 199 rmoveto
          hintmask 1001111110000000
          62 -10 64 -41 41 vhcurveto
          31 -30 -38 13 -46 35 callgsubr
          -63 9 -64 41 -41 vhcurveto
          -31 30 39 -13 46 hhcurveto
          46 39 13 31 29 hvcurveto
          hintmask 0110111110000000
          42 41 9 64 63 vvcurveto
          hintmask 1001111110000000
          5 callgsubr
          -306 286 rmoveto
          62 -9 64 -42 41 vhcurveto
          31 -30 -37 13 -47 35 callgsubr
          hintmask 0110111110000000
          -63 9 -64 41 -41 vhcurveto
          -31 31 38 -13 46 hhcurveto
          47 38 13 31 29 hvcurveto
          hintmask 1001111110000000
          42 41 9 64 63 vvcurveto
          hintmask 0110111110000000
          5 callgsubr
          69 -485 rmoveto
          21 -7 72 -2 33 9 378 683 rcurveline
          -22 7 -71 2 -34 -9 rrcurveto
          endchar
        </CharString>
        <CharString name="period">
          -252 6 111 hstem
          57 151 vstem
          57 62 rmoveto
          -75 callsubr
          endchar
        </CharString>
        <CharString name="periodcentered">
          -209 230 111 hstem
          83 142 vstem
          83 286 rmoveto
          -12 2 -29 7 -15 vhcurveto
          -10 16 28 68 callgsubr
          21 29 6 10 16 hvcurveto
          6 -5 callsubr
          -3 callgsubr
          9 -16 -29 7 84 callsubr
          -28 -7 -9 -16 hvcurveto
          -7 -15 -2 -28 -12 vvcurveto
          endchar
        </CharString>
        <CharString name="plus">
          3 243 107 hstem
          208 114 vstem
          208 409 rmoveto
          -21 1 -19 -20 vvcurveto
          -20 -19 1 -20 hhcurveto
          -96 60 callgsubr
          -17 -20 vvcurveto
          -19 1 -18 37 callsubr
          96 hlineto
          20 19 1 20 hhcurveto
          -20 -1 -19 -19 vvcurveto
          -104 vlineto
          -4 19 19 -1 20 hhcurveto
          20 17 1 4 19 hvcurveto
          104 vlineto
          19 -1 19 20 vvcurveto
          19 19 -1 21 hhcurveto
          96 hlineto
          3 16 2 18 19 vvcurveto
          20 -2 15 -3 19 vhcurveto
          -96 hlineto
          -21 -19 -1 -19 hhcurveto
          20 1 19 21 vvcurveto
          103 vlineto
          4 -19 -19 10 callgsubr
          -20 -18 30 callsubr
          endchar
        </CharString>
        <CharString name="plusminus">
          3 0 102 204 99 hstem
          209 112 vstem
          209 465 rmoveto
          -21 1 -20 -20 vvcurveto
          -19 -19 10 callgsubr
          -88 hlineto
          -4 -19 -1 -11 -19 vvcurveto
          -19 1 -12 4 -19 vhcurveto
          88 hlineto
          19 19 1 19 hhcurveto
          -19 -1 -22 -19 vvcurveto
          -81 vlineto
          -4 19 18 -1 20 hhcurveto
          18 19 1 4 18 hvcurveto
          81 vlineto
          19 -1 22 19 vvcurveto
          18 19 -1 20 hhcurveto
          88 hlineto
          4 19 1 12 19 vvcurveto
          19 -1 11 -4 19 vhcurveto
          -88 hlineto
          -20 -19 -1 -18 hhcurveto
          20 1 20 21 vvcurveto
          80 vlineto
          4 -18 -19 3 callsubr
          -20 -18 30 callsubr
          256 -545 rmoveto
          4 19 1 13 60 callsubr
          12 -4 19 vhcurveto
          -400 hlineto
          -4 -19 -1 -12 -20 vvcurveto
          -19 1 -13 4 -19 vhcurveto
          endchar
        </CharString>
        <CharString name="q">
          7 -195 -21 28 -21 200 54 callgsubr
          166 75 callgsubr
          hintmask 10101110
          337 -135 rmoveto
          -58 18 -23 53 vhcurveto
          50 hlineto
          7 7 rlineto
          563 vlineto
          35 8 32 20 16 vhcurveto
          -6 23 -20 31 -18 13 -37 -4 -27 -15 -18 -23 rrcurveto
          hintmask 01110110
          27 -31 -43 21 -59 hhcurveto
          -102 -94 -88 -175 -152 58 -104 119 46 43 18 26 33 hvcurveto
          -92 62 rmoveto
          -40 -34 44 106 106 32 57 53 25 29 -14 -25 27 hvcurveto
          -8 vlineto
          -221 vlineto
          -29 -26 -33 -16 -33 hhcurveto
          endchar
        </CharString>
        <CharString name="q.smcp">
          73 -112 94 4 99 378 99 15 callsubr
          254 137 hintmask 00000000
          hintmask 01111000
          36 274 rmoveto
          -18 callgsubr
          53 -19 79 hhcurveto
          5 5 0 1 4 hvcurveto
          hintmask 10111000
          74 -62 rlineto
          -32 34 32 -5 24 hhcurveto
          47 41 31 63 3 hvcurveto
          -29 1 -43 1 -56 45 -2 1 rcurveline
          22 11 18 15 15 18 rrcurveto
          49 57 15 70 73 -65 callsubr
          hintmask 01111000
          -10 callgsubr
          136 hmoveto
          -70 callsubr
          endchar
        </CharString>
        <CharString name="question">
          -118 2 121 461 113 hstemhm
          86 131 -120 107 59 138 hintmask 00000000
          hintmask 11101000
          6 643 rmoveto
          2 -34 21 -42 24 -19 rrcurveto
          19 38 41 17 43 hhcurveto
          57 31 -31 -46 -52 -44 -35 -63 -30 hvcurveto
          hintmask 11011000
          -52 -25 -10 -13 7 -149 rlineto
          -5 16 19 -2 16 hhcurveto
          16 17 2 5 15 hvcurveto
          9 88 62 33 rlineto
          73 40 57 60 97 vvcurveto
          104 -71 72 -126 -74 -69 -23 -31 -55 vhcurveto
          146 -520 rmoveto
          -24 -26 -5 -10 -16 hvcurveto
          -6 -11 -4 80 callsubr
          4 -26 6 -11 vhcurveto
          -9 16 26 -5 24 hhcurveto
          24 25 5 9 16 hvcurveto
          7 11 3 26 16 vvcurveto
          16 -3 26 -7 11 vhcurveto
          10 -16 -25 5 -24 hhcurveto
          endchar
        </CharString>
        <CharString name="questiondown">
          -118 -203 113 461 121 hstemhm
          13 137 47 131 -119 107 hintmask 00000000
          hintmask 11110000
          408 -149 rmoveto
          -2 34 -22 42 -24 19 rrcurveto
          -20 -37 -42 -16 -42 hhcurveto
          -57 -32 31 46 51 45 35 62 31 hvcurveto
          hintmask 11101000
          52 25 11 13 -7 149 rlineto
          5 -16 -19 2 -16 hhcurveto
          -16 -17 -2 -5 -15 hvcurveto
          -9 -88 -62 -34 rlineto
          -74 -40 -56 -59 -97 vvcurveto
          -104 71 -72 125 75 69 23 31 55 vhcurveto
          -146 520 rmoveto
          24 25 5 10 17 hvcurveto
          6 10 3 27 16 vvcurveto
          16 -3 26 -6 11 vhcurveto
          9 -17 -25 5 -24 hhcurveto
          -24 -26 -5 -9 30 callgsubr
          80 callsubr
          4 -27 7 -10 vhcurveto
          -10 15 26 -5 24 hhcurveto
          endchar
        </CharString>
        <CharString name="quotedbl">
          -106 64 callgsubr
          44 134 66 134 hintmask 00000000
          hintmask 01010000
          244 711 rmoveto
          hintmask 10010000
          -55 callsubr
          hintmask 00000000
          -200 hmoveto
          hintmask 01100000
          -55 callsubr
          endchar
        </CharString>
        <CharString name="quotedblbase">
          -62 -9 123 hstemhm
          60 149 66 149 hintmask 11000000
          -43 callgsubr
          hintmask 10100000
          215 hmoveto
          -38 callsubr
          endchar
        </CharString>
        <CharString name="quotedblleft">
          -63 511 123 hstemhm
          38 150 65 150 hintmask 11000000
          50 511 rmoveto
          -67 callsubr
          hintmask 10100000
          215 hmoveto
          -67 callsubr
          endchar
        </CharString>
        <CharString name="quotedblright">
          -63 556 -20 105 123 hstemhm
          62 149 67 149 hintmask 11100000
          199 -42 callgsubr
          hintmask 11010000
          216 hmoveto
          -37 callgsubr
          endchar
        </CharString>
        <CharString name="quoteleft">
          -278 511 123 hstem
          40 150 vstem
          52 511 rmoveto
          -67 callsubr
          endchar
        </CharString>
        <CharString name="quoteright">
          -278 556 -20 105 123 hstem
          59 149 vstem
          196 -42 callgsubr
          endchar
        </CharString>
        <CharString name="quotesinglbase">
          -278 -9 123 hstem
          60 149 vstem
          -43 callgsubr
          endchar
        </CharString>
        <CharString name="quotesingle">
          -300 64 callgsubr
          42 134 hintmask 00000000
          hintmask 01100000
          42 711 rmoveto
          hintmask 10100000
          -55 callsubr
          endchar
        </CharString>
        <CharString name="r">
          -144 496 -20 hstem
          77 53 callsubr
          -51 callgsubr
          endchar
        </CharString>
        <CharString name="r.smcp">
          41 callsubr
          hstem
          38 callsubr
          162 136 vstem
          -99 callsubr
          endchar
        </CharString>
        <CharString name="racute">
          -144 8 0 114 194 endchar
        </CharString>
        <CharString name="racute.smcp">
          41 callsubr
          38 216 45 callsubr
          -19 234 -53 136 hintmask 11010100
          -99 callsubr
          hintmask 00101000
          -19 339 -98 callsubr
        </CharString>
        <CharString name="rcaron">
          -144 6 0 114 207 endchar
        </CharString>
        <CharString name="rcaron.smcp">
          41 callsubr
          150 -20 45 callsubr
          -89 310 -59 136 hintmask 11010100
          -99 callsubr
          hintmask 00000000
          -30 488 -92 callgsubr
        </CharString>
        <CharString name="rcommaaccent">
          -144 -23 callgsubr
          548 -20 hstemhm
          77 131 -108 117 hintmask 00011000
          -51 callgsubr
          hintmask 11100100
          166 -495 -93 callsubr
        </CharString>
        <CharString name="rcommaaccent.smcp">
          32 -23 callgsubr
          256 102 149 98 45 callsubr
          34 117 11 136 hintmask 00011101
          -99 callsubr
          hintmask 11100010
          140 -363 -93 callsubr
        </CharString>
        <CharString name="registered">
          70 207 73 163 54 57 53 64 73 hstem
          31 79 87 70 64 73 83 80 vstem
          31 475 rmoveto
          -150 117 -118 150 151 118 118 150 150 -118 119 -151 -150 -117 -119 -150 vhcurveto
          79 hmoveto
          108 80 88 108 108 81 -88 -108 -108 -81 -87 -108 -108 -80 87 108 vhcurveto
          294 58 rmoveto
          40 -28 34 -71 -31 -38 -2 -1 -36 vhcurveto
          -3 -2 rlineto
          -247 vlineto
          19 -6 34 0 17 6 rrcurveto
          88 14 vlineto
          16 6 -6 -12 6 hvcurveto
          23 -45 rlineto
          -20 11 10 -10 20 hhcurveto
          19 20 11 14 10 hvcurveto
          -10 6 -7 11 -6 12 -12 24 rcurveline
          -7 14 -9 16 -17 8 rrcurveto
          25 6 25 21 40 vvcurveto
          -137 21 rmoveto
          32 hlineto
          22 10 -13 -15 -16 -10 -13 -26 -6 -11 0 -1 -11 hvcurveto
          endchar
        </CharString>
        <CharString name="ring">
          541 69 63 callsubr
          662 -68 callsubr
        </CharString>
        <CharString name="ring.cap">
          664 68 63 callsubr
          784 -20 callgsubr
        </CharString>
        <CharString name="s">
          58 callgsubr
          hstem
          41 130 106 62 callgsubr
          -82 callgsubr
          endchar
        </CharString>
        <CharString name="s.smcp">
          -25 52 callgsubr
          hstem
          38 58 callsubr
          vstem
          -95 callsubr
          endchar
        </CharString>
        <CharString name="sacute">
          58 callgsubr
          29 19 callsubr
          41 130 -34 234 -94 135 hintmask 11010100
          -82 callgsubr
          hintmask 00101000
          112 556 -98 callsubr
        </CharString>
        <CharString name="sacute.smcp">
          -25 52 callgsubr
          29 19 callsubr
          38 139 -9 234 -69 142 hintmask 11010100
          -95 callsubr
          hintmask 00101000
          146 600 -98 callsubr
        </CharString>
        <CharString name="scaron">
          58 callgsubr
          141 -20 hstemhm
          41 130 -104 310 -100 135 hintmask 11010100
          -82 callgsubr
          hintmask 00000000
          101 705 -92 callgsubr
        </CharString>
        <CharString name="scaron.smcp">
          -25 52 callgsubr
          141 -20 hstemhm
          38 139 -79 310 -75 142 hintmask 11010100
          -95 callsubr
          hintmask 00000000
          135 749 -92 callgsubr
        </CharString>
        <CharString name="section">
          -34 -113 97 616 97 -36 -20 hstemhm
          29 126 -91 130 107 130 -92 126 hintmask 00000000
          hintmask 10110010
          465 308 rmoveto
          90 -75 45 -88 36 vhcurveto
          hintmask 11001010
          -57 23 rlineto
          -33 13 -18 15 24 vvcurveto
          28 26 18 36 41 42 -14 -16 38 vhcurveto
          hintmask 10110010
          22 17 17 43 -2 31 rrcurveto
          hintmask 11001010
          20 -42 -63 16 -57 hhcurveto
          -111 -77 -67 -87 -53 26 -37 40 -28 hvcurveto
          hintmask 10110100
          -58 -35 -43 -53 -60 vvcurveto
          -90 76 -44 87 -36 vhcurveto
          58 -24 rlineto
          33 -13 18 -16 -24 vvcurveto
          -28 -26 -18 -39 -50 -49 19 16 -35 vhcurveto
          -22 -16 -18 -43 2 -31 rrcurveto
          -26 44 68 -16 60 hhcurveto
          118 77 67 86 53 -27 39 -41 28 hvcurveto
          hintmask 10110010
          59 35 43 52 61 vvcurveto
          -225 66 rmoveto
          55 -22 44 -25 -42 vvcurveto
          -36 -27 -29 -34 -18 vhcurveto
          -23 9 rlineto
          -59 23 -41 24 42 vvcurveto
          35 27 30 35 18 vhcurveto
          endchar
        </CharString>
        <CharString name="semicolon">
          -241 -8 124 209 111 hstemhm
          62 151 -140 149 hintmask 10010000
          210 -43 callsubr
          hintmask 01100000
          -148 265 rmoveto
          -75 callsubr
          endchar
        </CharString>
        <CharString name="seven">
          3 537 111 -100 100 hstemhm
          143 133 57 callsubr
          64 648 rmoveto
          -8 -19 -4 -24 -23 vvcurveto
          -15 2 -17 4 -13 vhcurveto
          161 hlineto
          hintmask 01100000
          27 87 3 8 31 hvcurveto
          4 -5 -16 -15 -30 -36 -14 -20 rlinecurve
          -12 -16 -75 -104 -61 -142 -15 -165 rlinecurve
          -4 -45 rlineto
          -4 20 24 -1 24 hhcurveto
          25 24 1 4 17 hvcurveto
          3 41 16 169 50 125 92 130 rlinecurve
          36 52 rlineto
          12 17 7 19 15 vvcurveto
          22 -13 34 -11 24 vhcurveto
          endchar
        </CharString>
        <CharString name="seven.smcp">
          -45 441 107 hstemhm
          44 405 -323 131 57 callgsubr
          56 548 rmoveto
          -7 -18 -5 -20 -23 vvcurveto
          -17 3 -17 4 -12 vhcurveto
          145 hlineto
          30 70 3 5 31 hvcurveto
          3 -4 -13 -13 -17 -17 -11 -13 rlinecurve
          -14 -16 rlineto
          hintmask 10100000
          -85 -104 -51 -112 -12 -150 -1 -20 rcurveline
          -4 19 26 -3 22 hhcurveto
          26 23 3 4 15 hvcurveto
          1 20 8 152 45 95 82 108 rlinecurve
          39 52 rlineto
          11 15 6 12 16 vvcurveto
          19 -12 35 -13 24 vhcurveto
          endchar
        </CharString>
        <CharString name="six">
          3 -14 98 244 106 125 103 hstem
          41 136 184 53 callsubr
          271 -14 rmoveto
          123 98 87 143 152 -73 66 -109 -53 -45 -20 -28 -35 hvcurveto
          101 5 40 72 94 hhcurveto
          41 34 -10 -11 26 hvcurveto
          26 20 15 37 3 34 rrcurveto
          20 -38 -54 13 -63 hhcurveto
          -170 -95 -130 -209 -188 49 -55 18 -24 hvcurveto
          -23 19 48 -47 96 hhcurveto
          5 342 rmoveto
          51 34 -31 -89 -73 -28 -51 -60 -29 -20 14 18 -13 hvcurveto
          -25 31 -9 62 63 vvcurveto
          13 vlineto
          27 30 34 16 35 hhcurveto
          endchar
        </CharString>
        <CharString name="six.smcp">
          -45 -14 94 181 98 106 97 hstem
          39 132 147 69 callgsubr
          247 -14 rmoveto
          113 85 73 123 108 -51 69 -109 -44 -37 -12 -21 -33 hvcurveto
          84 4 32 55 81 hhcurveto
          34 34 -9 -7 22 hvcurveto
          23 20 15 30 4 35 rrcurveto
          17 -34 -58 11 -48 hhcurveto
          -154 -87 -105 -176 -98 14 -91 56 -56 hvcurveto
          -32 32 45 -18 61 hhcurveto
          4 275 rmoveto
          42 25 -29 -63 -57 -25 -32 -44 -25 -17 11 14 -10 hvcurveto
          -18 23 -8 43 49 vvcurveto
          14 vlineto
          16 24 29 11 27 hhcurveto
          endchar
        </CharString>
        <CharString name="slash">
          -90 -115 880 hstem
          4 427 vstem
          4 -73 rmoveto
          32 -25 42 -14 38 -3 315 837 rcurveline
          -32 25 -42 14 -38 4 rrcurveto
          endchar
        </CharString>
        <CharString name="space">
          -307 endchar
        </CharString>
        <CharString name="sterling">
          7 -1 109 153 95 198 108 hstemhm
          71 129 -73 118 hintmask 00000000
          hintmask 11110000
          407 356 rmoveto
          -63 -61 -1 -52 hhcurveto
          -14 39 -17 36 40 vvcurveto
          54 39 30 51 43 49 -22 -29 37 vhcurveto
          34 11 29 37 5 33 rrcurveto
          36 -39 -75 42 -92 hhcurveto
          -144 -66 -98 -84 -47 21 -38 16 -40 hvcurveto
          -19 -19 3 callsubr
          -9 -26 0 -44 9 -25 rrcurveto
          hintmask 11101000
          75 hlineto
          -4 -43 -22 -37 -19 -28 -15 -22 rcurveline
          -12 -16 -4 -15 -19 vvcurveto
          -12 2 -11 13 -59 vhcurveto
          346 hlineto
          49 31 22 43 8 hvcurveto
          2 16 0 12 16 vvcurveto
          -152 hlineto
          -67 -48 -3 -3 -45 hvcurveto
          -3 3 29 39 26 58 3 60 rlinecurve
          -1 54 54 0 54 hhcurveto
          hintmask 11110000
          9 26 0 44 -9 25 rrcurveto
          endchar
        </CharString>
        <CharString name="sterling.smcp">
          -53 -1 106 118 88 147 104 -67 -20 hstemhm
          44 184 -162 124 hintmask 00000000
          hintmask 11100100
          364 311 rmoveto
          -53 -54 -1 -45 hhcurveto
          -11 28 -11 28 26 vvcurveto
          41 29 25 41 38 41 -19 -23 30 vhcurveto
          hintmask 11010100
          31 14 25 33 9 32 rrcurveto
          hintmask 11100100
          35 -37 -67 32 -82 hhcurveto
          -115 -67 -76 -79 -36 14 -32 12 -28 hvcurveto
          -41 hlineto
          -10 -23 0 -41 10 -24 rrcurveto
          60 hlineto
          -4 -26 -13 -24 -18 -30 -11 -18 rcurveline
          -11 -17 -6 -16 -16 vvcurveto
          -16 5 -18 11 -43 vhcurveto
          293 hlineto
          49 31 21 43 7 hvcurveto
          2 16 0 10 16 vvcurveto
          hintmask 11101000
          -118 hlineto
          -66 -49 -2 -4 -32 hvcurveto
          -3 2 27 34 19 48 4 41 rlinecurve
          -1 45 44 0 47 hhcurveto
          hintmask 11100100
          9 24 0 41 -9 23 rrcurveto
          endchar
        </CharString>
        <CharString name="t">
          -164 -5 101 308 93 151 -20 hstem
          88 83 callgsubr
          -60 callgsubr
          endchar
        </CharString>
        <CharString name="t.smcp">
          -77 440 108 hstem
          162 68 callsubr
          -50 callsubr
          endchar
        </CharString>
        <CharString name="tcaron">
          -138 -5 101 308 93 56 9 86 -20 142 21 hstemhm
          88 128 59 125 hintmask 11010100
          -60 callgsubr
          hintmask 00101010
          -62 65 -17 callgsubr
        </CharString>
        <CharString name="tcaron.smcp">
          -77 440 108 155 -20 hstemhm
          75 310 -223 133 hintmask 10010000
          -50 callsubr
          hintmask 00000000
          -28 411 -48 callsubr
          hintmask 01100000
          -91 callsubr
        </CharString>
        <CharString name="thorn">
          4 -195 -21 207 99 310 106 hstem
          69 126 165 68 callsubr
          493 261 rmoveto
          141 -64 104 -112 -47 -43 -19 -27 -32 vhcurveto
          195 vlineto
          58 -18 74 callgsubr
          -938 vlineto
          6 -7 rlineto
          49 hlineto
          53 18 23 58 hvcurveto
          152 vlineto
          -16 32 36 -10 38 hhcurveto
          94 98 81 189 hvcurveto
          -208 139 rmoveto
          41 34 -42 -105 -106 -32 -57 -52 -25 -29 12 17 -27 hvcurveto
          230 vlineto
          38 28 35 13 27 hhcurveto
          endchar
        </CharString>
        <CharString name="thorn.smcp">
          -1 97 99 174 178 65 callsubr
          78 hmoveto
          -4 20 28 -1 17 -38 callgsubr
          97 69 vlineto
          127 91 60 126 131 -92 56 -126 hvcurveto
          -23 -23 -1 -23 hhcurveto
          79 vlineto
          4 -22 -26 10 callgsubr
          -17 -28 9 callgsubr
          192 -178 rmoveto
          74 17 -48 -39 -39 -17 -48 -74 -10 -26 0 -1 -24 hvcurveto
          176 vlineto
          -1 24 24 0 12 hhcurveto
          endchar
        </CharString>
        <CharString name="three">
          3 -14 106 216 83 146 111 hstem
          349 33 callgsubr
          432 513 rmoveto
          19 20 7 17 19 vvcurveto
          28 -15 29 -12 22 vhcurveto
          -355 hlineto
          -9 -21 -2 -24 -17 vvcurveto
          -11 1 -18 7 -20 vhcurveto
          131 hlineto
          27 56 4 7 23 hvcurveto
          4 -6 -17 -13 -34 -33 -17 -17 rlinecurve
          -108 -115 7 -29 20 -31 23 -10 rlinecurve
          9 18 23 5 20 hhcurveto
          58 42 -37 -64 -74 -49 -41 -68 -52 -45 21 28 -37 hvcurveto
          -27 -21 -23 -34 -6 -31 rrcurveto
          -39 45 73 -30 89 hhcurveto
          121 113 75 141 118 -76 62 -98 9 hvcurveto
          12 8 11 10 10 10 rrcurveto
          endchar
        </CharString>
        <CharString name="three.smcp">
          -45 -14 103 160 80 113 106 hstem
          305 33 callgsubr
          390 421 rmoveto
          15 14 9 16 19 vvcurveto
          22 -13 33 -13 23 vhcurveto
          -322 hlineto
          -9 -21 -2 -22 -16 vvcurveto
          -10 1 -15 8 -22 vhcurveto
          107 hlineto
          20 56 3 5 22 hvcurveto
          3 -5 -61 -49 -90 -86 rlineto
          -1 hlineto
          6 -24 24 -36 23 -11 rrcurveto
          6 15 17 4 19 hhcurveto
          51 30 -31 -44 -55 -39 -30 -55 -40 -42 17 25 -36 hvcurveto
          -27 -19 -21 -37 -6 -30 rrcurveto
          -34 43 67 -25 77 hhcurveto
          109 104 65 119 91 -66 59 -87 9 hvcurveto
          12 7 11 8 9 9 rrcurveto
          endchar
        </CharString>
        <CharString name="threequarters">
          475 0 -20 261 88 117 65 83 91 hstemhm
          245 114 -98 504 hintmask 10000100
          261 hmoveto
          -33 callsubr
          hintmask 01111000
          -319 -107 -65 callgsubr
          hintmask 00000000
          520 -524 -88 callgsubr
        </CharString>
        <CharString name="threesuperior">
          -107 324 88 117 65 83 91 hstem
          243 114 vstem
          318 659 -65 callgsubr
          endchar
        </CharString>
        <CharString name="tilde">
          555 102 -52 102 hstemhm
          16 366 57 callsubr
          205 572 -91 callgsubr
          hintmask 01100000
          -93 callgsubr
        </CharString>
        <CharString name="tilde.cap">
          741 102 -52 102 hstemhm
          8 382 57 callsubr
          205 758 -66 callgsubr
          hintmask 01100000
          -71 callsubr
        </CharString>
        <CharString name="two">
          3 -1 113 392 -20 71 107 hstem
          331 33 callgsubr
          482 112 rmoveto
          -160 hlineto
          -37 -54 -3 -6 -52 hvcurveto
          12 26 39 38 39 33 74 63 rcurveline
          65 56 57 56 92 vvcurveto
          117 -79 78 -124 -108 -75 -72 -86 -27 vhcurveto
          17 -26 45 -14 32 -1 rrcurveto
          48 16 35 44 52 hhcurveto
          50 32 -35 -50 -46 -25 -35 -38 -33 hvcurveto
          -103 -92 rlineto
          -64 -57 -56 -64 -63 vvcurveto
          -28 31 -36 17 -17 vhcurveto
          304 hlineto
          47 28 21 62 callsubr
          2 16 1 20 14 vvcurveto
          endchar
        </CharString>
        <CharString name="two.smcp">
          -45 -1 109 346 108 hstem
          288 53 callsubr
          437 108 rmoveto
          -130 hlineto
          -30 -49 -4 -6 -49 hvcurveto
          9 19 29 24 29 23 70 57 rcurveline
          56 45 47 55 69 vvcurveto
          99 -72 73 -113 -94 -68 -61 -75 -23 vhcurveto
          16 -24 40 -19 35 -1 rrcurveto
          39 15 30 33 41 hhcurveto
          38 24 -28 -34 -32 -19 -26 -29 -24 hvcurveto
          -93 -80 rlineto
          -55 -47 -50 -59 -49 vvcurveto
          -26 29 -36 16 -14 vhcurveto
          267 hlineto
          45 28 19 62 callsubr
          2 13 1 23 12 vvcurveto
          endchar
        </CharString>
        <CharString name="twosuperior">
          -107 327 98 238 -20 34 98 hstemhm
          234 116 hintmask 00000000
          hintmask 11010000
          362 425 -3 callsubr
          hintmask 11110000
          76 -59 59 -91 vhcurveto
          hintmask 11010000
          -78 -55 -51 -61 -15 hvcurveto
          hintmask 11110000
          -27 callsubr
          hintmask 11010000
          74 callsubr
        </CharString>
        <CharString name="u">
          43 callsubr
          hstem
          65 131 151 53 callsubr
          -79 callgsubr
          endchar
        </CharString>
        <CharString name="u.smcp">
          3 callgsubr
          48 callsubr
          207 21 callgsubr
          hintmask 11110000
          -95 callgsubr
          endchar
        </CharString>
        <CharString name="uacute">
          43 callsubr
          43 19 callsubr
          65 131 -14 234 -69 131 hintmask 11010100
          -79 callgsubr
          hintmask 00101000
          117 210 -98 callsubr
        </CharString>
        <CharString name="uacute.smcp">
          36 callsubr
          16 234 -43 -73 callgsubr
          -324 442 -98 callsubr
        </CharString>
        <CharString name="ucircumflex">
          21 67 0 117 195 endchar
        </CharString>
        <CharString name="ucircumflex.smcp">
          3 callgsubr
          67 193 48 callsubr
          -54 308 -47 -73 callgsubr
          -144 400 -89 callgsubr
        </CharString>
        <CharString name="udieresis">
          43 callsubr
          77 90 hstemhm
          65 131 -92 -4 callgsubr
          -73 131 hintmask 11010010
          -79 callgsubr
          hintmask 00101100
          233 237 -107 callgsubr
        </CharString>
        <CharString name="udieresis.smcp">
          3 callgsubr
          97 90 48 callsubr
          -62 -4 callgsubr
          -47 21 callgsubr
          hintmask 11010010
          -95 callgsubr
          hintmask 00101100
          -208 469 -107 callgsubr
        </CharString>
        <CharString name="ugrave">
          21 69 0 117 193 endchar
        </CharString>
        <CharString name="ugrave.smcp">
          36 callsubr
          -39 233 13 -73 callgsubr
          -295 606 -67 callgsubr
        </CharString>
        <CharString name="underscore">
          21 -166 99 hstem
          -6 560 vstem
          549 -166 rmoveto
          81 callsubr
          14 60 callsubr
          13 -4 17 vhcurveto
          -550 60 callgsubr
          -22 -11 vvcurveto
          -12 1 -21 37 callsubr
          endchar
        </CharString>
        <CharString name="uni00AD">
          -29 callgsubr
        </CharString>
        <CharString name="uring">
          21 67 0 117 202 endchar
        </CharString>
        <CharString name="uring.smcp">
          3 callgsubr
          65 69 105 68 48 callsubr
          -31 81 100 81 -24 21 callgsubr
          hintmask 11001001
          -95 callgsubr
          hintmask 00110110
          -371 513 -68 callsubr
        </CharString>
        <CharString name="v">
          -59 -6 108 383 20 -4 -20 hstemhm
          0 464 hintmask 00000000
          hintmask 11010000
          243 102 rmoveto
          -6 -2 0 8 -2 hvcurveto
          -6 30 -11 59 -13 44 -56 203 rcurveline
          43 -10 -24 16 -39 hhcurveto
          -22 -27 -7 -12 -25 hvcurveto
          129 -425 rlineto
          -56 17 25 -11 50 hhcurveto
          33 35 2 4 29 hvcurveto
          37 112 66 224 43 149 -4 6 rcurveline
          hintmask 10110000
          7 -20 -24 3 -23 hhcurveto
          -16 -16 -1 -4 -16 hvcurveto
          endchar
        </CharString>
        <CharString name="v.smcp">
          3 -5 108 451 -20 21 -20 hstemhm
          9 514 28 callsubr
          276 103 rmoveto
          -4 -3 -1 9 -2 hvcurveto
          -12 61 -13 55 -15 50 -67 216 rcurveline
          46 -15 -20 16 -40 hhcurveto
          -26 -26 -6 -10 -24 hvcurveto
          151 -486 rlineto
          -49 14 32 -9 43 hhcurveto
          34 44 1 4 26 hvcurveto
          hintmask 11010000
          170 538 -5 7 rlineto
          7 -24 -23 2 -20 hhcurveto
          -16 -15 -1 -5 -20 hvcurveto
          endchar
        </CharString>
        <CharString name="w">
          213 -5 102 282 114 9 -20 23 -20 hstemhm
          13 716 hintmask 00000000
          hintmask 10011000
          113 60 rmoveto
          -54 13 26 -11 47 hhcurveto
          32 41 1 4 28 hvcurveto
          34 182 rlineto
          hintmask 11001000
          9 51 14 76 10 70 rrcurveto
          6 hlineto
          10 -71 13 -76 9 -51 22 -123 rcurveline
          -55 9 26 -8 50 hhcurveto
          31 40 1 4 26 hvcurveto
          hintmask 10101000
          120 483 -4 8 rlineto
          9 -18 -31 2 -19 hhcurveto
          -17 -21 -2 -4 -14 hvcurveto
          -50 -230 -12 -60 -10 -57 -9 -52 rlinecurve
          -6 -1 1 7 -1 hvcurveto
          hintmask 11001000
          -69 388 rlineto
          4 -19 -41 2 -17 hhcurveto
          -17 -39 -2 -8 callgsubr
          -69 -396 rlineto
          -5 -1 1 7 -2 hvcurveto
          -5 36 -11 62 -13 63 -38 184 rcurveline
          36 -7 -16 19 -39 hhcurveto
          -22 -25 -5 -11 -27 hvcurveto
          endchar
        </CharString>
        <CharString name="w.smcp">
          273 -7 113 316 119 12 -20 22 -20 hstemhm
          22 757 hintmask 00000000
          hintmask 10011000
          127 52 rmoveto
          -51 11 32 -7 41 hhcurveto
          36 47 2 4 27 hvcurveto
          46 229 rlineto
          hintmask 11001000
          12 64 12 79 8 50 rrcurveto
          6 hlineto
          7 -50 11 -81 11 -62 34 -177 rcurveline
          -51 8 33 -8 38 hhcurveto
          34 51 2 5 26 hvcurveto
          hintmask 10011000
          121 536 -6 8 rlineto
          hintmask 10101000
          6 -18 -24 3 -22 hhcurveto
          -18 -20 9 callgsubr
          -58 -289 -8 -43 -10 -63 -6 -47 rlinecurve
          -5 -2 0 11 -2 hvcurveto
          hintmask 11001000
          -75 424 rlineto
          4 -24 -32 1 -26 hhcurveto
          -25 -32 -1 -4 -25 hvcurveto
          -81 -435 rlineto
          -6 -1 1 10 -2 hvcurveto
          -6 42 -9 59 -8 39 -43 225 rcurveline
          54 -10 -14 19 -45 hhcurveto
          -24 -31 -5 -8 -19 hvcurveto
          endchar
        </CharString>
        <CharString name="x">
          -56 502 -20 24 -20 hstemhm
          8 458 57 callsubr
          327 496 rmoveto
          -83 -136 rlineto
          hintmask 01100000
          -69 105 rlineto
          27 -17 -16 14 -33 hhcurveto
          -28 -33 -10 -20 -28 hvcurveto
          143 -222 -155 -241 4 -8 rlineto
          -8 19 24 -3 25 hhcurveto
          20 20 2 4 13 hvcurveto
          93 156 82 -125 rlineto
          -26 17 19 -13 32 hhcurveto
          30 34 12 17 26 hvcurveto
          -160 243 rlineto
          hintmask 10100000
          141 219 -3 10 rlineto
          5 -19 -21 4 -25 hhcurveto
          -18 -20 -2 -4 -14 hvcurveto
          endchar
        </CharString>
        <CharString name="x.smcp">
          11 554 -20 22 -20 hstemhm
          8 523 57 callsubr
          381 548 rmoveto
          -104 -156 rlineto
          hintmask 01100000
          -75 111 rlineto
          37 -25 -21 16 -36 hhcurveto
          -22 -35 -6 -22 -34 hvcurveto
          162 -240 -183 -277 4 -7 rlineto
          -6 20 21 -3 27 hhcurveto
          19 70 callsubr
          16 hvcurveto
          122 187 96 -142 rlineto
          -36 25 23 -16 35 hhcurveto
          21 39 5 23 32 hvcurveto
          -186 273 163 244 -2 7 rlineto
          hintmask 10100000
          6 -21 -28 3 -18 hhcurveto
          -19 -23 -2 -3 -16 hvcurveto
          endchar
        </CharString>
        <CharString name="y">
          66 callgsubr
          hstemhm
          3 472 28 callsubr
          73 callgsubr
          hintmask 11010000
          -9 callgsubr
          hintmask 10110000
          -45 callsubr
          endchar
        </CharString>
        <CharString name="y.smcp">
          -67 556 -20 hstem
          165 130 vstem
          -78 callgsubr
          endchar
        </CharString>
        <CharString name="yacute">
          -44 43 0 121 194 endchar
        </CharString>
        <CharString name="yacute.smcp">
          -67 556 -20 55 19 callsubr
          148 234 -217 130 hintmask 10010000
          -78 callgsubr
          hintmask 01100000
          -187 95 -98 callsubr
        </CharString>
        <CharString name="ydieresis">
          66 callgsubr
          88 90 hstemhm
          3 472 -397 -4 callgsubr
          hintmask 00000000
          hintmask 10101000
          73 callgsubr
          hintmask 11001000
          -9 callgsubr
          hintmask 10101000
          -45 callsubr
          hintmask 00010110
          -75 604 -107 callgsubr
        </CharString>
        <CharString name="ydieresis.smcp">
          -67 556 -20 89 90 hstemhm
          71 122 -28 130 -30 122 hintmask 10010000
          -78 callgsubr
          hintmask 01101000
          -70 122 -107 callgsubr
        </CharString>
        <CharString name="yen">
          6 160 84 72 84 235 20 hstem
          200 129 vstem
          477 160 rmoveto
          40 callgsubr
          -143 hlineto
          33 72 rlineto
          110 hlineto
          40 callgsubr
          -71 hlineto
          110 240 -5 7 rlineto
          7 -25 -18 1 -21 hhcurveto
          -18 -16 -1 -5 -18 hvcurveto
          -76 -178 -15 -32 -20 -56 -12 -40 rlinecurve
          -5 hlineto
          -11 35 -20 61 -12 30 -59 143 rcurveline
          31 -13 -14 15 -35 hhcurveto
          -25 -30 -9 -14 -28 hvcurveto
          105 -235 rlineto
          -72 35 callsubr
          109 hlineto
          32 -72 rlineto
          -141 35 callsubr
          147 -160 hlineto
          -4 21 27 16 callgsubr
          20 22 -53 callsubr
          160 vlineto
          endchar
        </CharString>
        <CharString name="yen.smcp">
          -48 128 76 59 77 217 -20 hstem
          175 125 vstem
          435 128 rmoveto
          81 callsubr
          4 18 vvcurveto
          17 -1 5 -4 16 vhcurveto
          -129 hlineto
          28 59 rlineto
          101 hlineto
          4 17 1 3 18 vvcurveto
          17 -1 5 -4 17 vhcurveto
          -65 hlineto
          96 200 -5 7 rlineto
          6 -25 -15 2 -19 hhcurveto
          -18 -19 -1 -5 -19 hvcurveto
          -68 -158 -12 -28 -12 -31 -9 -35 rlinecurve
          -5 hlineto
          -9 32 -11 36 -12 27 -52 124 rcurveline
          27 -11 -16 14 -30 hhcurveto
          -28 -29 -9 -14 -26 hvcurveto
          90 -194 rlineto
          -65 hlineto
          -5 -16 -2 -8 -15 vvcurveto
          -17 2 -4 5 -17 vhcurveto
          100 hlineto
          28 -59 rlineto
          -128 hlineto
          -5 -16 -2 -8 -14 vvcurveto
          -17 2 -5 5 -16 vhcurveto
          134 -128 hlineto
          -4 20 28 32 callsubr
          18 22 -10 callsubr
          128 vlineto
          endchar
        </CharString>
        <CharString name="z">
          -79 0 98 300 98 hstem
          30 390 vstem
          -64 callsubr
          endchar
        </CharString>
        <CharString name="z.smcp">
          29 callgsubr
          hstem
          37 441 vstem
          -97 callsubr
          endchar
        </CharString>
        <CharString name="zacute">
          -79 27 0 122 194 endchar
        </CharString>
        <CharString name="zacute.smcp">
          29 callgsubr
          43 19 callsubr
          37 441 -302 234 hintmask 11010000
          -97 callsubr
          hintmask 00101000
          -78 273 -98 callsubr
        </CharString>
        <CharString name="zcaron">
          -79 26 0 122 207 endchar
        </CharString>
        <CharString name="zcaron.smcp">
          29 callgsubr
          155 -20 hstemhm
          37 441 -371 310 hintmask 11010000
          -97 callsubr
          hintmask 00000000
          -88 422 -92 callgsubr
        </CharString>
        <CharString name="zdotaccent">
          -79 0 98 300 98 89 104 hstemhm
          30 390 -270 140 hintmask 11010000
          -64 callsubr
          hintmask 00101000
          -39 332 -90 callsubr
          endchar
        </CharString>
        <CharString name="zdotaccent.smcp">
          29 callgsubr
          89 104 hstemhm
          37 441 -292 140 hintmask 11010000
          -97 callsubr
          hintmask 00101000
          -68 319 -90 callsubr
          endchar
        </CharString>
        <CharString name="zero">
          3 -14 101 474 101 hstem
          38 135 184 62 callgsubr
          38 324 rmoveto
          -117 10 -92 62 -68 vhcurveto
          -36 36 44 -25 75 hhcurveto
          76 43 25 36 36 hvcurveto
          62 68 10 92 117 vvcurveto
          117 -10 92 -62 67 vhcurveto
          37 -36 -43 25 -76 hhcurveto
          -75 -44 -25 -37 -36 hvcurveto
          -62 -67 -10 -92 -117 vvcurveto
          135 hmoveto
          105 8 63 20 32 vhcurveto
          26 13 23 11 28 hhcurveto
          28 23 -11 -26 13 hvcurveto
          20 -32 8 -63 -105 vvcurveto
          -104 -8 -64 -20 -32 vhcurveto
          -26 -13 -23 -11 -28 hhcurveto
          -28 -23 11 26 -13 hvcurveto
          -20 32 -8 64 104 vvcurveto
          endchar
        </CharString>
        <CharString name="zero.smcp">
          -45 -14 97 383 96 hstem
          37 130 148 130 vstem
          37 274 rmoveto
          -86 6 -92 56 -56 vhcurveto
          -31 32 40 -23 70 hhcurveto
          71 39 23 31 32 hvcurveto
          56 56 6 92 86 vvcurveto
          88 -6 92 -56 55 vhcurveto
          32 -32 -39 21 -71 hhcurveto
          -70 -40 -21 -32 -32 hvcurveto
          -56 -54 -6 -93 -88 vvcurveto
          130 hmoveto
          87 5 56 17 24 vhcurveto
          16 11 16 9 25 hhcurveto
          25 16 -9 -16 11 hvcurveto
          17 -24 5 -56 -87 vvcurveto
          -86 -5 -56 -17 -24 vhcurveto
          -16 -11 -17 -9 -24 hhcurveto
          -25 -16 9 16 -11 hvcurveto
          -17 24 -5 56 86 vvcurveto
          endchar
        </CharString>
      <CharString index="0">
        rmoveto
        -107 callsubr
        -194 hmoveto
        -107 callsubr
        endchar
      </CharString>
      <CharString index="1">
        209 108 rmoveto
        -40 callgsubr
        rlineto
        -50 16 29 -7 32 hhcurveto
        21 34 5 9 20 hvcurveto
        -66 callsubr
        -196 -538 -79 callsubr
        19 178 -86 callsubr
        return
      </CharString>
      <CharString index="2">
        -83 callsubr
        4 -21 -35 2 84 callsubr
        -33 -2 -3 -22 hvcurveto
        -100 callgsubr
        return
      </CharString>
      <CharString index="3">
        -105 callsubr
        281 hlineto
        49 30 22 42 7 hvcurveto
        -11 callsubr
        return
      </CharString>
      <CharString index="4">
        183 342 rmoveto
        113 21 137 127 127 21 -137 -113 -113 -21 -138 -127 -127 -21 138 113 vhcurveto
        -141 hmoveto
        -107 26 -118 81 -70 vhcurveto
        -36 44 53 -25 85 hhcurveto
        86 53 25 36 43 hvcurveto
        82 70 25 118 107 vvcurveto
        107 -25 117 -82 70 vhcurveto
        36 -43 -53 25 -86 hhcurveto
        -85 -53 -25 -36 -44 hvcurveto
        -81 -70 -26 -117 -107 vvcurveto
        return
      </CharString>
      <CharString index="5">
        hintmask 11010000
        -106 callgsubr
        return
      </CharString>
      <CharString index="6">
        hintmask 11101000
        -104 callsubr
        return
      </CharString>
      <CharString index="7">
        -223 -673 -80 callgsubr
        23 234 -86 callgsubr
        return
      </CharString>
      <CharString index="8">
        553 477 rmoveto
        142 -96 69 -139 -72 -76 -32 callgsubr
        17 -38 callgsubr
        262 61 vlineto
        58 20 -32 -40 15 hvcurveto
        42 -119 rlineto
        -52 19 17 -27 49 hhcurveto
        35 37 16 24 17 hvcurveto
        -22 18 -15 27 -10 28 -37 101 rcurveline
        -14 41 -24 34 -36 13 rrcurveto
        65 23 60 65 95 vvcurveto
        -337 109 rmoveto
        -1 31 37 0 24 hhcurveto
        87 20 -52 -56 -55 -20 -53 -87 -19 -38 -1 -2 -35 hvcurveto
        return
      </CharString>
      <CharString index="9">
        -91 callgsubr
        hintmask 00101000
        -93 callgsubr
      </CharString>
      <CharString index="10">
        473 60 rmoveto
        -21 16 -7 25 -85 callsubr
        65 48 29 34 35 hvcurveto
        18 -30 30 -22 47 -5 18 13 20 31 6 24 rrcurveto
        -252 25 -56 callsubr
        return
      </CharString>
      <CharString index="11">
        59 135 rmoveto
        -11 -17 -6 -19 -17 vvcurveto
        -12 2 -11 14 -59 vhcurveto
        381 hlineto
        55 35 24 48 22 -4 23 -6 17 hvcurveto
        -12 -26 -38 -9 -51 hhcurveto
        -79 hlineto
        -37 -56 -3 -3 -43 hvcurveto
        -3 3 26 30 32 41 21 29 rlinecurve
        236 340 rlineto
        12 17 4 16 16 vvcurveto
        11 -1 11 -18 62 vhcurveto
        -428 hlineto
        -6 -23 -3 -19 -24 vvcurveto
        -14 1 -15 37 callsubr
        152 hlineto
        35 80 3 5 40 hvcurveto
        3 -3 -27 -31 -33 -42 -20 -28 rlinecurve
        return
      </CharString>
      <CharString index="12">
        541 548 rmoveto
        4 -21 -30 1 -17 hhcurveto
        -18 -25 -1 -4 -22 hvcurveto
        33 callsubr
        -70 -30 -40 -73 -73 -31 40 70 vhcurveto
        268 vlineto
        60 -27 24 -52 vhcurveto
        -48 hlineto
        -6 -5 rlineto
        33 callsubr
        -136 85 -79 152 151 85 79 136 vhcurveto
        return
      </CharString>
      <CharString index="13">
        141 hintmask 11010100
        -103 callgsubr
        return
      </CharString>
      <CharString index="14">
        -49 25 rlineto
        9 -16 -22 7 -22 hhcurveto
        -49 -39 -32 -48 -20 hvcurveto
        -9 -20 9 -23 29 -16 24 -30 callsubr
        12 12 8 13 hhcurveto
        11 11 -4 -5 9 hvcurveto
        endchar
      </CharString>
      <CharString index="15">
        -48 callsubr
        hintmask 00101000
        -91 callsubr
      </CharString>
      <CharString index="16">
        rmoveto
        -9 16 21 -8 23 hhcurveto
        47 40 31 50 21 hvcurveto
        9 19 rlineto
        23 -10 -28 17 -24 -18 callsubr
        -12 -12 -8 -13 hhcurveto
        -10 -11 4 5 -10 hvcurveto
        return
      </CharString>
      <CharString index="17">
        137 hintmask 11010100
        -101 callsubr
        return
      </CharString>
      <CharString index="18">
        rmoveto
        18 6 29 21 11 28 -94 125 rcurveline
        -30 8 -50 2 -29 -10 -105 -135 rcurveline
        15 -26 25 -18 19 -7 98 95 rcurveline
        endchar
      </CharString>
      <CharString index="19">
        rmoveto
        -4 18 21 32 callsubr
        15 19 1 4 16 hvcurveto
        74 vlineto
        9 14 -1 8 hhcurveto
        21 hlineto
        5 17 3 20 19 vvcurveto
        11 -1 12 -3 12 vhcurveto
        -56 hlineto
        16 1 29 18 vvcurveto
        54 vlineto
        -4 4 rlineto
        -27 hlineto
        -46 -29 -29 -50 hvcurveto
        -27 vlineto
        -15 vlineto
        -18 -1 -33 -1 -23 -2 -2 2 rcurveline
        22 27 28 58 14 33 63 138 rcurveline
        -22 17 -49 10 -33 -4 -115 -255 rcurveline
        -5 -11 -10 -20 -17 vvcurveto
        -18 11 -27 13 -21 vhcurveto
        111 hlineto
        19 12 2 18 hhcurveto
        -17 -1 -11 -17 vvcurveto
        endchar
      </CharString>
      <CharString index="20">
        hintmask 11010000
        -96 callgsubr
        hintmask 00101000
        return
      </CharString>
      <CharString index="21">
        rmoveto
        13 46 21 72 10 51 rrcurveto
        6 hlineto
        15 -60 22 -77 17 -57 30 -102 rcurveline
        -14 -19 1 -9 hhcurveto
        -86 hlineto
        -10 -21 -1 -14 hhcurveto
        return
      </CharString>
      <CharString index="22">
        124 hintmask 10101000
        598 689 rmoveto
        -43 hlineto
        -53 -21 -23 -60 hvcurveto
        -183 vlineto
        -69 4 -118 6 -87 vhcurveto
        -3 -1 -65 148 -182 387 rlineto
        4 -28 -33 3 callsubr
        -16 -42 -2 -5 -21 hvcurveto
        -681 23 callsubr
        26 78 callsubr
        22 -53 callsubr
        254 vlineto
        78 -5 117 -6 77 vhcurveto
        4 1 16 -41 21 -48 23 -51 rlinecurve
        184 -387 rlineto
        -4 28 34 78 callsubr
        42 2 5 22 hvcurveto
        680 vlineto
        return
      </CharString>
      <CharString index="23">
        rmoveto
        18 7 27 21 8 27 -113 108 rcurveline
        -31 7 -47 0 -33 -7 -117 -117 rcurveline
        7 -25 29 -24 19 -7 118 84 rcurveline
        endchar
      </CharString>
      <CharString index="24">
        22 60 rmoveto
        -47 71 94 -27 82 hhcurveto
        170 84 89 119 88 -59 65 -91 39 hvcurveto
        -118 50 rlineto
        -47 20 -24 22 34 vvcurveto
        40 34 36 65 53 71 -23 -25 52 vhcurveto
        27 25 18 39 2 38 rrcurveto
        27 -52 -83 28 -89 hhcurveto
        -135 -100 -84 -118 -90 57 -53 83 -36 hvcurveto
        118 -50 rlineto
        57 -25 20 -32 -34 vvcurveto
        -43 -1 -34 -36 -69 hhcurveto
        -70 -75 30 36 -57 hvcurveto
        -26 -22 -24 -41 -4 -39 rrcurveto
        return
      </CharString>
      <CharString index="25">
        25 35 rmoveto
        -26 45 69 -23 76 hhcurveto
        117 80 60 96 81 -55 47 -75 28 hvcurveto
        -61 22 rlineto
        -34 13 -16 14 22 vvcurveto
        26 21 19 35 49 50 -18 -17 38 vhcurveto
        21 17 17 44 -1 31 rrcurveto
        21 -43 -75 18 -56 hhcurveto
        -110 -76 -60 -96 -79 56 -42 70 -26 hvcurveto
        56 -21 rlineto
        36 -13 18 -19 -24 vvcurveto
        -28 -1 -26 -20 -47 hhcurveto
        -43 -53 20 23 -43 hvcurveto
        -20 -20 -18 -41 -1 -29 rrcurveto
        return
      </CharString>
      <CharString index="26">
        80 84 callgsubr
        30 16 callgsubr
        18 25 -53 callsubr
        548 vlineto
        4 -22 -25 3 callsubr
        -17 -30 -25 callsubr
        return
      </CharString>
      <CharString index="27">
        5 -7 rlineto
        -6 16 27 -3 21 hhcurveto
        21 20 1 4 17 hvcurveto
        47 156 rlineto
        -1 16 23 0 10 hhcurveto
        return
      </CharString>
      <CharString index="28">
        65 162 rmoveto
        -98 44 -73 93 62 54 32 40 43 vhcurveto
        17 -39 34 -27 50 -5 19 13 19 30 6 23 rrcurveto
        -19 16 -9 32 35 vvcurveto
        355 75 callsubr
        -23 1 callsubr
        -341 vlineto
        -31 -31 -40 -15 -28 hhcurveto
        -41 -11 24 56 hvcurveto
        233 vlineto
        53 -18 29 -52 -32 -31 -12 -16 -19 vhcurveto
        16 -25 5 -33 -37 vvcurveto
        return
      </CharString>
      <CharString index="29">
        274 396 rmoveto
        -14 -33 -11 -47 -11 -36 rrcurveto
        -6 hlineto
        -5 29 -10 37 -15 39 -50 121 rcurveline
        37 -14 -21 13 -36 hhcurveto
        -24 -27 -7 -12 -26 hvcurveto
        161 -370 rlineto
        -167 23 callsubr
        29 32 callsubr
        19 24 -10 callsubr
        163 vlineto
        162 376 -6 7 rlineto
        5 -23 -13 3 -22 hhcurveto
        -18 -21 -1 -5 -19 hvcurveto
        return
      </CharString>
      <CharString index="30">
        -58 callgsubr
        70 72 21 36 50 vhcurveto
        -35 callgsubr
        -36 callsubr
        return
      </CharString>
      <CharString index="31">
        484 248 rmoveto
        85 -18 68 -53 53 vhcurveto
        38 -40 -52 18 -61 -50 callgsubr
        61 52 18 39 40 hvcurveto
        53 53 18 67 85 vvcurveto
        -313 hmoveto
        -13 callsubr
        -74 -16 76 87 vhcurveto
        return
      </CharString>
      <CharString index="32">
        446 428 rmoveto
        -48 callgsubr
        -175 67 -178 202 106 99 47 56 56 hvcurveto
        -46 callsubr
        98 28 -82 -80 -2 hvcurveto
        return
      </CharString>
      <CharString index="33">
        390 316 rmoveto
        -44 callsubr
        -139 59 -147 184 97 79 37 47 53 hvcurveto
        -46 callgsubr
        80 21 -62 -80 hvcurveto
        return
      </CharString>
      <CharString index="34">
        21 callgsubr
        hintmask 11010100
        -95 callgsubr
        hintmask 00101000
        return
      </CharString>
      <CharString index="35">
        598 34 rmoveto
        -28 24 -8 25 -13 34 -47 134 rcurveline
        -22 60 -26 44 -68 14 20 16 15 21 14 25 136 243 rcurveline
        -8 10 rlineto
        2 -27 -30 2 -22 hhcurveto
        -42 -14 -17 -33 -18 hvcurveto
        -111 -198 rlineto
        -23 -12 -7 -8 -23 hhcurveto
        -40 -1 rlineto
        275 -36 callgsubr
        295 vlineto
        1 23 19 1 14 hhcurveto
        53 28 -26 -69 24 hvcurveto
        46 -131 rlineto
        -53 17 17 -26 50 hhcurveto
        35 37 15 27 18 hvcurveto
        return
      </CharString>
      <CharString index="36">
        hintmask 10010000
        -81 callsubr
        return
      </CharString>
      <CharString index="37">
        38 -8 -22 22 -40 hhcurveto
        -50 -1 callgsubr
        -495 vlineto
        -3 18 25 -2 22 hhcurveto
        23 24 -76 callsubr
        return
      </CharString>
      <CharString index="38">
        138 hintmask 11010100
        -99 callgsubr
        hintmask 00101000
        return
      </CharString>
      <CharString index="39">
        hvcurveto
        -4 -15 -2 -17 -15 vvcurveto
        -16 2 -14 4 -15 vhcurveto
        return
      </CharString>
      <CharString index="40">
        rmoveto
        -34 -11 -39 -34 -11 -35 178 -136 rcurveline
        23 7 23 21 9 24 rrcurveto
        endchar
      </CharString>
      <CharString index="41">
        rmoveto
        -9 16 23 -8 23 hhcurveto
        50 41 31 50 23 hvcurveto
        9 19 rlineto
        23 -10 -30 16 -26 -18 callsubr
        -12 -13 -7 -13 hhcurveto
        -10 -12 4 5 -10 hvcurveto
        return
      </CharString>
      <CharString index="42">
        rmoveto
        19 16 4 16 16 vvcurveto
        16 -13 29 -9 16 vhcurveto
        -250 hlineto
        -8 -16 -1 -20 -12 vvcurveto
        -9 0 -15 6 -19 vhcurveto
        73 hlineto
        18 43 2 4 18 hvcurveto
        3 -4 -13 -8 -18 -13 -12 -11 rlinecurve
        -72 -67 5 -23 21 -28 18 -7 rlinecurve
        4 11 12 3 11 hhcurveto
        39 20 -27 -31 -38 -27 -21 -41 -33 -28 14 17 -26 hvcurveto
        -21 -18 -18 -28 -5 -27 rrcurveto
        -27 34 52 -19 62 hhcurveto
        84 81 50 93 72 -51 51 -67 4 hvcurveto
        10 6 10 6 7 7 rrcurveto
        return
      </CharString>
      <CharString index="43">
        141 hintmask 11010100
        -83 callgsubr
        hintmask 00101000
        return
      </CharString>
      <CharString index="44">
        -59 callsubr
        220 hlineto
        return
      </CharString>
      <CharString index="45">
        vlineto
        -3 18 22 -2 50 callgsubr
        23 -21 callsubr
        205 vlineto
        1 12 12 1 14 hhcurveto
        37 17 -11 -47 18 hvcurveto
        34 -92 rlineto
        -45 16 16 -19 41 hhcurveto
        34 34 17 23 20 hvcurveto
        -25 18 -11 29 -12 35 rrcurveto
        return
      </CharString>
      <CharString index="46">
        rmoveto
        -24 -24 -16 -36 -5 -33 rrcurveto
        -22 32 61 -19 57 hhcurveto
        143 54 75 142 hvcurveto
        344 vlineto
        5 -21 -27 0 -18 hhcurveto
        -17 53 callgsubr
        -348 vlineto
        -71 -23 -36 -58 -28 -35 11 17 -26 vhcurveto
        return
      </CharString>
      <CharString index="47">
        337 497 rmoveto
        -121 -2 rlineto
        147 vlineto
        -7 6 rlineto
        -50 hlineto
        -53 -18 -22 -58 hvcurveto
        -72 vlineto
        -76 1 rlineto
        -4 -16 -1 -15 -15 vvcurveto
        -17 1 -15 37 callsubr
        76 1 rlineto
        -287 vlineto
        -83 40 -39 80 39 47 4 5 34 vhcurveto
        3 8 0 11 10 vvcurveto
        21 -4 24 -6 18 vhcurveto
        -62 hlineto
        -31 -12 17 29 hvcurveto
        263 vlineto
        121 -2 rlineto
        4 16 2 15 17 vvcurveto
        15 -2 15 -4 16 vhcurveto
        return
      </CharString>
      <CharString index="48">
        38 242 rmoveto
        -151 58 -105 118 57 50 27 38 34 vhcurveto
        18 -33 31 -22 45 -4 18 13 20 31 5 24 rrcurveto
        -19 15 -9 32 36 vvcurveto
        512 -9 callsubr
        -250 vlineto
        15 -30 -34 12 -38 hhcurveto
        -103 -93 -89 -175 hvcurveto
        208 -149 rmoveto
        -41 -34 43 106 106 32 58 52 26 28 -12 -17 27 hvcurveto
        -234 vlineto
        -37 -28 -35 -13 -27 hhcurveto
        return
      </CharString>
      <CharString index="49">
        446 -26 callgsubr
        -73 92 -131 -149 -67 -114 -150 -134 47 -126 168 return
      </CharString>
      <CharString index="50">
        67 -52 54 -79 -79 -52 -54 -67 vhcurveto
        81 hmoveto
        30 20 23 30 30 20 -23 -30 return
      </CharString>
</ttFont>
